M48
METRIC
T1C0.200
T2C0.300
T3C0.600
T4C0.990
T5C1.000
T6C1.100
T7C1.300
T8C0.650
T9C3.200
%
G90
G05
T1
X151.775Y-82.56
X151.775Y-83.96
X152.475Y-81.86
X152.475Y-83.26
X152.475Y-84.66
X153.175Y-82.56
X153.175Y-83.96
X153.875Y-81.86
X153.875Y-83.26
X153.875Y-84.66
X154.575Y-82.56
X154.575Y-83.96
T2
X133.7Y-87.1
X133.7Y-88.1
X136.873Y-116.397
X137.0Y-111.2
X137.425Y-89.425
X139.322Y-86.828
X139.575Y-89.425
X140.25Y-75.875
X140.275Y-85.775
X140.325Y-77.45
X140.6Y-89.4
X140.625Y-105.175
X140.83Y-99.38
X140.93Y-92.17
X141.63Y-90.7
X142.025Y-120.875
X142.025Y-122.8
X142.85Y-75.725
X142.9Y-76.85
X143.15Y-90.37
X143.45Y-95.22
X144.575Y-100.231
X144.87Y-98.09
X147.43Y-87.24
X147.6Y-75.46
X147.7Y-96.2
X148.6Y-117.1
X148.8Y-90.375
X148.95Y-92.05
X149.02Y-75.45
X150.31Y-75.46
X151.287Y-91.487
X151.57Y-75.46
X152.32Y-116.8
X152.77Y-91.57
X152.91Y-75.53
X153.87Y-117.201
X154.025Y-91.575
X154.275Y-120.525
X154.33Y-75.52
X154.6Y-115.6
X155.325Y-91.6
X155.483Y-117.488
X155.62Y-75.53
X156.09Y-82.84
X156.58Y-91.67
X156.88Y-75.53
X157.125Y-116.4
X157.6Y-112.6
X157.625Y-98.5
X157.92Y-117.505
X157.925Y-95.7
X158.06Y-75.57
X158.25Y-120.57
X159.48Y-75.56
X160.4Y-94.9
X160.4Y-117.875
X160.77Y-75.57
X161.695Y-94.905
X162.03Y-75.57
X162.1Y-81.9
X162.75Y-117.1
X162.77Y-120.1
X163.175Y-112.8
X163.42Y-97.525
X163.42Y-100.545
X164.95Y-92.05
X165.05Y-89.22
X167.19Y-88.37
X167.19Y-93.29
X167.22Y-80.03
X168.05Y-108.29
X169.3Y-95.6
X171.197Y-103.998
X171.5Y-95.9
X176.4Y-111.6
T4
X176.79Y-94.65
X176.79Y-99.15
T5
X134.76Y-97.14
X134.76Y-99.68
X134.76Y-102.22
X134.76Y-104.76
X134.76Y-107.3
X137.3Y-97.14
X137.3Y-99.68
X137.3Y-102.22
X137.3Y-104.76
X137.3Y-107.3
X170.74Y-86.36
X170.74Y-88.9
X173.28Y-86.36
X173.28Y-88.9
X175.82Y-86.36
X175.82Y-88.9
T6
X141.09Y-107.475
X151.25Y-107.475
T7
X174.3Y-93.4
X174.3Y-100.41
T8
X151.83Y-119.495
X157.61Y-119.495
T9
X133.72Y-78.5
X133.72Y-120.5
X175.72Y-78.5
X175.72Y-120.5
T3
G00X150.4Y-118.445
M15
G01X150.4Y-119.545
M16
G05
G00X150.4Y-122.775
M15
G01X150.4Y-123.575
M16
G05
G00X159.04Y-118.445
M15
G01X159.04Y-119.545
M16
G05
G00X159.04Y-122.775
M15
G01X159.04Y-123.575
M16
G05
M30
