%TF.GenerationSoftware,KiCad,Pcbnew,9.0.3*%
%TF.CreationDate,2026-04-10T19:54:12+05:30*%
%TF.ProjectId,Multilayer pcb intro,4d756c74-696c-4617-9965-722070636220,rev?*%
%TF.SameCoordinates,Original*%
%TF.FileFunction,Legend,Top*%
%TF.FilePolarity,Positive*%
%FSLAX46Y46*%
G04 Gerber Fmt 4.6, Leading zero omitted, Abs format (unit mm)*
G04 Created by KiCad (PCBNEW 9.0.3) date 2026-04-10 19:54:12*
%MOMM*%
%LPD*%
G01*
G04 APERTURE LIST*
%ADD10C,0.062500*%
%ADD11C,0.100000*%
%ADD12C,0.200000*%
%ADD13C,0.150000*%
%ADD14C,0.120000*%
%ADD15C,0.000000*%
G04 APERTURE END LIST*
D10*
X136388737Y-90224250D02*
X136424451Y-90236154D01*
X136424451Y-90236154D02*
X136483975Y-90236154D01*
X136483975Y-90236154D02*
X136507784Y-90224250D01*
X136507784Y-90224250D02*
X136519689Y-90212345D01*
X136519689Y-90212345D02*
X136531594Y-90188535D01*
X136531594Y-90188535D02*
X136531594Y-90164726D01*
X136531594Y-90164726D02*
X136519689Y-90140916D01*
X136519689Y-90140916D02*
X136507784Y-90129011D01*
X136507784Y-90129011D02*
X136483975Y-90117107D01*
X136483975Y-90117107D02*
X136436356Y-90105202D01*
X136436356Y-90105202D02*
X136412546Y-90093297D01*
X136412546Y-90093297D02*
X136400641Y-90081392D01*
X136400641Y-90081392D02*
X136388737Y-90057583D01*
X136388737Y-90057583D02*
X136388737Y-90033773D01*
X136388737Y-90033773D02*
X136400641Y-90009964D01*
X136400641Y-90009964D02*
X136412546Y-89998059D01*
X136412546Y-89998059D02*
X136436356Y-89986154D01*
X136436356Y-89986154D02*
X136495879Y-89986154D01*
X136495879Y-89986154D02*
X136531594Y-89998059D01*
X136781593Y-90212345D02*
X136769689Y-90224250D01*
X136769689Y-90224250D02*
X136733974Y-90236154D01*
X136733974Y-90236154D02*
X136710165Y-90236154D01*
X136710165Y-90236154D02*
X136674451Y-90224250D01*
X136674451Y-90224250D02*
X136650641Y-90200440D01*
X136650641Y-90200440D02*
X136638736Y-90176630D01*
X136638736Y-90176630D02*
X136626832Y-90129011D01*
X136626832Y-90129011D02*
X136626832Y-90093297D01*
X136626832Y-90093297D02*
X136638736Y-90045678D01*
X136638736Y-90045678D02*
X136650641Y-90021869D01*
X136650641Y-90021869D02*
X136674451Y-89998059D01*
X136674451Y-89998059D02*
X136710165Y-89986154D01*
X136710165Y-89986154D02*
X136733974Y-89986154D01*
X136733974Y-89986154D02*
X136769689Y-89998059D01*
X136769689Y-89998059D02*
X136781593Y-90009964D01*
X137007784Y-90236154D02*
X136888736Y-90236154D01*
X136888736Y-90236154D02*
X136888736Y-89986154D01*
D11*
X131236741Y-107307419D02*
X131189122Y-107283609D01*
X131189122Y-107283609D02*
X131117693Y-107283609D01*
X131117693Y-107283609D02*
X131046265Y-107307419D01*
X131046265Y-107307419D02*
X130998646Y-107355038D01*
X130998646Y-107355038D02*
X130974836Y-107402657D01*
X130974836Y-107402657D02*
X130951027Y-107497895D01*
X130951027Y-107497895D02*
X130951027Y-107569323D01*
X130951027Y-107569323D02*
X130974836Y-107664561D01*
X130974836Y-107664561D02*
X130998646Y-107712180D01*
X130998646Y-107712180D02*
X131046265Y-107759800D01*
X131046265Y-107759800D02*
X131117693Y-107783609D01*
X131117693Y-107783609D02*
X131165312Y-107783609D01*
X131165312Y-107783609D02*
X131236741Y-107759800D01*
X131236741Y-107759800D02*
X131260550Y-107735990D01*
X131260550Y-107735990D02*
X131260550Y-107569323D01*
X131260550Y-107569323D02*
X131165312Y-107569323D01*
X131474836Y-107783609D02*
X131474836Y-107283609D01*
X131474836Y-107283609D02*
X131760550Y-107783609D01*
X131760550Y-107783609D02*
X131760550Y-107283609D01*
X131998646Y-107783609D02*
X131998646Y-107283609D01*
X131998646Y-107283609D02*
X132117694Y-107283609D01*
X132117694Y-107283609D02*
X132189122Y-107307419D01*
X132189122Y-107307419D02*
X132236741Y-107355038D01*
X132236741Y-107355038D02*
X132260551Y-107402657D01*
X132260551Y-107402657D02*
X132284360Y-107497895D01*
X132284360Y-107497895D02*
X132284360Y-107569323D01*
X132284360Y-107569323D02*
X132260551Y-107664561D01*
X132260551Y-107664561D02*
X132236741Y-107712180D01*
X132236741Y-107712180D02*
X132189122Y-107759800D01*
X132189122Y-107759800D02*
X132117694Y-107783609D01*
X132117694Y-107783609D02*
X131998646Y-107783609D01*
X130854836Y-102593609D02*
X130854836Y-102093609D01*
X130854836Y-102093609D02*
X131021503Y-102450752D01*
X131021503Y-102450752D02*
X131188169Y-102093609D01*
X131188169Y-102093609D02*
X131188169Y-102593609D01*
X131521503Y-102093609D02*
X131616741Y-102093609D01*
X131616741Y-102093609D02*
X131664360Y-102117419D01*
X131664360Y-102117419D02*
X131711979Y-102165038D01*
X131711979Y-102165038D02*
X131735789Y-102260276D01*
X131735789Y-102260276D02*
X131735789Y-102426942D01*
X131735789Y-102426942D02*
X131711979Y-102522180D01*
X131711979Y-102522180D02*
X131664360Y-102569800D01*
X131664360Y-102569800D02*
X131616741Y-102593609D01*
X131616741Y-102593609D02*
X131521503Y-102593609D01*
X131521503Y-102593609D02*
X131473884Y-102569800D01*
X131473884Y-102569800D02*
X131426265Y-102522180D01*
X131426265Y-102522180D02*
X131402456Y-102426942D01*
X131402456Y-102426942D02*
X131402456Y-102260276D01*
X131402456Y-102260276D02*
X131426265Y-102165038D01*
X131426265Y-102165038D02*
X131473884Y-102117419D01*
X131473884Y-102117419D02*
X131521503Y-102093609D01*
X131926266Y-102569800D02*
X131997694Y-102593609D01*
X131997694Y-102593609D02*
X132116742Y-102593609D01*
X132116742Y-102593609D02*
X132164361Y-102569800D01*
X132164361Y-102569800D02*
X132188170Y-102545990D01*
X132188170Y-102545990D02*
X132211980Y-102498371D01*
X132211980Y-102498371D02*
X132211980Y-102450752D01*
X132211980Y-102450752D02*
X132188170Y-102403133D01*
X132188170Y-102403133D02*
X132164361Y-102379323D01*
X132164361Y-102379323D02*
X132116742Y-102355514D01*
X132116742Y-102355514D02*
X132021504Y-102331704D01*
X132021504Y-102331704D02*
X131973885Y-102307895D01*
X131973885Y-102307895D02*
X131950075Y-102284085D01*
X131950075Y-102284085D02*
X131926266Y-102236466D01*
X131926266Y-102236466D02*
X131926266Y-102188847D01*
X131926266Y-102188847D02*
X131950075Y-102141228D01*
X131950075Y-102141228D02*
X131973885Y-102117419D01*
X131973885Y-102117419D02*
X132021504Y-102093609D01*
X132021504Y-102093609D02*
X132140551Y-102093609D01*
X132140551Y-102093609D02*
X132211980Y-102117419D01*
X132426265Y-102593609D02*
X132426265Y-102093609D01*
D10*
X136731594Y-87048059D02*
X136707784Y-87036154D01*
X136707784Y-87036154D02*
X136672070Y-87036154D01*
X136672070Y-87036154D02*
X136636356Y-87048059D01*
X136636356Y-87048059D02*
X136612546Y-87071869D01*
X136612546Y-87071869D02*
X136600641Y-87095678D01*
X136600641Y-87095678D02*
X136588737Y-87143297D01*
X136588737Y-87143297D02*
X136588737Y-87179011D01*
X136588737Y-87179011D02*
X136600641Y-87226630D01*
X136600641Y-87226630D02*
X136612546Y-87250440D01*
X136612546Y-87250440D02*
X136636356Y-87274250D01*
X136636356Y-87274250D02*
X136672070Y-87286154D01*
X136672070Y-87286154D02*
X136695879Y-87286154D01*
X136695879Y-87286154D02*
X136731594Y-87274250D01*
X136731594Y-87274250D02*
X136743498Y-87262345D01*
X136743498Y-87262345D02*
X136743498Y-87179011D01*
X136743498Y-87179011D02*
X136695879Y-87179011D01*
X136850641Y-87286154D02*
X136850641Y-87036154D01*
X136850641Y-87036154D02*
X136993498Y-87286154D01*
X136993498Y-87286154D02*
X136993498Y-87036154D01*
X137112546Y-87286154D02*
X137112546Y-87036154D01*
X137112546Y-87036154D02*
X137172070Y-87036154D01*
X137172070Y-87036154D02*
X137207784Y-87048059D01*
X137207784Y-87048059D02*
X137231594Y-87071869D01*
X137231594Y-87071869D02*
X137243499Y-87095678D01*
X137243499Y-87095678D02*
X137255403Y-87143297D01*
X137255403Y-87143297D02*
X137255403Y-87179011D01*
X137255403Y-87179011D02*
X137243499Y-87226630D01*
X137243499Y-87226630D02*
X137231594Y-87250440D01*
X137231594Y-87250440D02*
X137207784Y-87274250D01*
X137207784Y-87274250D02*
X137172070Y-87286154D01*
X137172070Y-87286154D02*
X137112546Y-87286154D01*
D11*
X139274836Y-104573609D02*
X139274836Y-104073609D01*
X139798645Y-104573609D02*
X139631979Y-104335514D01*
X139512931Y-104573609D02*
X139512931Y-104073609D01*
X139512931Y-104073609D02*
X139703407Y-104073609D01*
X139703407Y-104073609D02*
X139751026Y-104097419D01*
X139751026Y-104097419D02*
X139774836Y-104121228D01*
X139774836Y-104121228D02*
X139798645Y-104168847D01*
X139798645Y-104168847D02*
X139798645Y-104240276D01*
X139798645Y-104240276D02*
X139774836Y-104287895D01*
X139774836Y-104287895D02*
X139751026Y-104311704D01*
X139751026Y-104311704D02*
X139703407Y-104335514D01*
X139703407Y-104335514D02*
X139512931Y-104335514D01*
X140346264Y-104621228D02*
X140298645Y-104597419D01*
X140298645Y-104597419D02*
X140251026Y-104549800D01*
X140251026Y-104549800D02*
X140179598Y-104478371D01*
X140179598Y-104478371D02*
X140131979Y-104454561D01*
X140131979Y-104454561D02*
X140084360Y-104454561D01*
X140108169Y-104573609D02*
X140060550Y-104549800D01*
X140060550Y-104549800D02*
X140012931Y-104502180D01*
X140012931Y-104502180D02*
X139989122Y-104406942D01*
X139989122Y-104406942D02*
X139989122Y-104240276D01*
X139989122Y-104240276D02*
X140012931Y-104145038D01*
X140012931Y-104145038D02*
X140060550Y-104097419D01*
X140060550Y-104097419D02*
X140108169Y-104073609D01*
X140108169Y-104073609D02*
X140203407Y-104073609D01*
X140203407Y-104073609D02*
X140251026Y-104097419D01*
X140251026Y-104097419D02*
X140298645Y-104145038D01*
X140298645Y-104145038D02*
X140322455Y-104240276D01*
X140322455Y-104240276D02*
X140322455Y-104406942D01*
X140322455Y-104406942D02*
X140298645Y-104502180D01*
X140298645Y-104502180D02*
X140251026Y-104549800D01*
X140251026Y-104549800D02*
X140203407Y-104573609D01*
X140203407Y-104573609D02*
X140108169Y-104573609D01*
X175811704Y-84158496D02*
X175835514Y-84087068D01*
X175835514Y-84087068D02*
X175859323Y-84063258D01*
X175859323Y-84063258D02*
X175906942Y-84039449D01*
X175906942Y-84039449D02*
X175978371Y-84039449D01*
X175978371Y-84039449D02*
X176025990Y-84063258D01*
X176025990Y-84063258D02*
X176049800Y-84087068D01*
X176049800Y-84087068D02*
X176073609Y-84134687D01*
X176073609Y-84134687D02*
X176073609Y-84325163D01*
X176073609Y-84325163D02*
X175573609Y-84325163D01*
X175573609Y-84325163D02*
X175573609Y-84158496D01*
X175573609Y-84158496D02*
X175597419Y-84110877D01*
X175597419Y-84110877D02*
X175621228Y-84087068D01*
X175621228Y-84087068D02*
X175668847Y-84063258D01*
X175668847Y-84063258D02*
X175716466Y-84063258D01*
X175716466Y-84063258D02*
X175764085Y-84087068D01*
X175764085Y-84087068D02*
X175787895Y-84110877D01*
X175787895Y-84110877D02*
X175811704Y-84158496D01*
X175811704Y-84158496D02*
X175811704Y-84325163D01*
X175573609Y-83729925D02*
X175573609Y-83634687D01*
X175573609Y-83634687D02*
X175597419Y-83587068D01*
X175597419Y-83587068D02*
X175645038Y-83539449D01*
X175645038Y-83539449D02*
X175740276Y-83515639D01*
X175740276Y-83515639D02*
X175906942Y-83515639D01*
X175906942Y-83515639D02*
X176002180Y-83539449D01*
X176002180Y-83539449D02*
X176049800Y-83587068D01*
X176049800Y-83587068D02*
X176073609Y-83634687D01*
X176073609Y-83634687D02*
X176073609Y-83729925D01*
X176073609Y-83729925D02*
X176049800Y-83777544D01*
X176049800Y-83777544D02*
X176002180Y-83825163D01*
X176002180Y-83825163D02*
X175906942Y-83848972D01*
X175906942Y-83848972D02*
X175740276Y-83848972D01*
X175740276Y-83848972D02*
X175645038Y-83825163D01*
X175645038Y-83825163D02*
X175597419Y-83777544D01*
X175597419Y-83777544D02*
X175573609Y-83729925D01*
X175573609Y-83206115D02*
X175573609Y-83110877D01*
X175573609Y-83110877D02*
X175597419Y-83063258D01*
X175597419Y-83063258D02*
X175645038Y-83015639D01*
X175645038Y-83015639D02*
X175740276Y-82991829D01*
X175740276Y-82991829D02*
X175906942Y-82991829D01*
X175906942Y-82991829D02*
X176002180Y-83015639D01*
X176002180Y-83015639D02*
X176049800Y-83063258D01*
X176049800Y-83063258D02*
X176073609Y-83110877D01*
X176073609Y-83110877D02*
X176073609Y-83206115D01*
X176073609Y-83206115D02*
X176049800Y-83253734D01*
X176049800Y-83253734D02*
X176002180Y-83301353D01*
X176002180Y-83301353D02*
X175906942Y-83325162D01*
X175906942Y-83325162D02*
X175740276Y-83325162D01*
X175740276Y-83325162D02*
X175645038Y-83301353D01*
X175645038Y-83301353D02*
X175597419Y-83253734D01*
X175597419Y-83253734D02*
X175573609Y-83206115D01*
X175573609Y-82848971D02*
X175573609Y-82563257D01*
X176073609Y-82706114D02*
X175573609Y-82706114D01*
X170403609Y-84292782D02*
X170403609Y-83983258D01*
X170403609Y-83983258D02*
X170594085Y-84149925D01*
X170594085Y-84149925D02*
X170594085Y-84078496D01*
X170594085Y-84078496D02*
X170617895Y-84030877D01*
X170617895Y-84030877D02*
X170641704Y-84007068D01*
X170641704Y-84007068D02*
X170689323Y-83983258D01*
X170689323Y-83983258D02*
X170808371Y-83983258D01*
X170808371Y-83983258D02*
X170855990Y-84007068D01*
X170855990Y-84007068D02*
X170879800Y-84030877D01*
X170879800Y-84030877D02*
X170903609Y-84078496D01*
X170903609Y-84078496D02*
X170903609Y-84221353D01*
X170903609Y-84221353D02*
X170879800Y-84268972D01*
X170879800Y-84268972D02*
X170855990Y-84292782D01*
X170855990Y-83768973D02*
X170879800Y-83745163D01*
X170879800Y-83745163D02*
X170903609Y-83768973D01*
X170903609Y-83768973D02*
X170879800Y-83792782D01*
X170879800Y-83792782D02*
X170855990Y-83768973D01*
X170855990Y-83768973D02*
X170903609Y-83768973D01*
X170403609Y-83578497D02*
X170403609Y-83268973D01*
X170403609Y-83268973D02*
X170594085Y-83435640D01*
X170594085Y-83435640D02*
X170594085Y-83364211D01*
X170594085Y-83364211D02*
X170617895Y-83316592D01*
X170617895Y-83316592D02*
X170641704Y-83292783D01*
X170641704Y-83292783D02*
X170689323Y-83268973D01*
X170689323Y-83268973D02*
X170808371Y-83268973D01*
X170808371Y-83268973D02*
X170855990Y-83292783D01*
X170855990Y-83292783D02*
X170879800Y-83316592D01*
X170879800Y-83316592D02*
X170903609Y-83364211D01*
X170903609Y-83364211D02*
X170903609Y-83507068D01*
X170903609Y-83507068D02*
X170879800Y-83554687D01*
X170879800Y-83554687D02*
X170855990Y-83578497D01*
X170570276Y-83102307D02*
X170903609Y-82983259D01*
X170903609Y-82983259D02*
X170570276Y-82864212D01*
X139117419Y-107773258D02*
X139093609Y-107820877D01*
X139093609Y-107820877D02*
X139093609Y-107892306D01*
X139093609Y-107892306D02*
X139117419Y-107963734D01*
X139117419Y-107963734D02*
X139165038Y-108011353D01*
X139165038Y-108011353D02*
X139212657Y-108035163D01*
X139212657Y-108035163D02*
X139307895Y-108058972D01*
X139307895Y-108058972D02*
X139379323Y-108058972D01*
X139379323Y-108058972D02*
X139474561Y-108035163D01*
X139474561Y-108035163D02*
X139522180Y-108011353D01*
X139522180Y-108011353D02*
X139569800Y-107963734D01*
X139569800Y-107963734D02*
X139593609Y-107892306D01*
X139593609Y-107892306D02*
X139593609Y-107844687D01*
X139593609Y-107844687D02*
X139569800Y-107773258D01*
X139569800Y-107773258D02*
X139545990Y-107749449D01*
X139545990Y-107749449D02*
X139379323Y-107749449D01*
X139379323Y-107749449D02*
X139379323Y-107844687D01*
X139593609Y-107535163D02*
X139093609Y-107535163D01*
X139093609Y-107535163D02*
X139593609Y-107249449D01*
X139593609Y-107249449D02*
X139093609Y-107249449D01*
X139593609Y-107011353D02*
X139093609Y-107011353D01*
X139093609Y-107011353D02*
X139093609Y-106892305D01*
X139093609Y-106892305D02*
X139117419Y-106820877D01*
X139117419Y-106820877D02*
X139165038Y-106773258D01*
X139165038Y-106773258D02*
X139212657Y-106749448D01*
X139212657Y-106749448D02*
X139307895Y-106725639D01*
X139307895Y-106725639D02*
X139379323Y-106725639D01*
X139379323Y-106725639D02*
X139474561Y-106749448D01*
X139474561Y-106749448D02*
X139522180Y-106773258D01*
X139522180Y-106773258D02*
X139569800Y-106820877D01*
X139569800Y-106820877D02*
X139593609Y-106892305D01*
X139593609Y-106892305D02*
X139593609Y-107011353D01*
X139360550Y-102405990D02*
X139336741Y-102429800D01*
X139336741Y-102429800D02*
X139265312Y-102453609D01*
X139265312Y-102453609D02*
X139217693Y-102453609D01*
X139217693Y-102453609D02*
X139146265Y-102429800D01*
X139146265Y-102429800D02*
X139098646Y-102382180D01*
X139098646Y-102382180D02*
X139074836Y-102334561D01*
X139074836Y-102334561D02*
X139051027Y-102239323D01*
X139051027Y-102239323D02*
X139051027Y-102167895D01*
X139051027Y-102167895D02*
X139074836Y-102072657D01*
X139074836Y-102072657D02*
X139098646Y-102025038D01*
X139098646Y-102025038D02*
X139146265Y-101977419D01*
X139146265Y-101977419D02*
X139217693Y-101953609D01*
X139217693Y-101953609D02*
X139265312Y-101953609D01*
X139265312Y-101953609D02*
X139336741Y-101977419D01*
X139336741Y-101977419D02*
X139360550Y-102001228D01*
X139812931Y-102453609D02*
X139574836Y-102453609D01*
X139574836Y-102453609D02*
X139574836Y-101953609D01*
X139979598Y-102453609D02*
X139979598Y-101953609D01*
X140265312Y-102453609D02*
X140051027Y-102167895D01*
X140265312Y-101953609D02*
X139979598Y-102239323D01*
D10*
X136556832Y-88016154D02*
X136711594Y-88016154D01*
X136711594Y-88016154D02*
X136628260Y-88111392D01*
X136628260Y-88111392D02*
X136663975Y-88111392D01*
X136663975Y-88111392D02*
X136687784Y-88123297D01*
X136687784Y-88123297D02*
X136699689Y-88135202D01*
X136699689Y-88135202D02*
X136711594Y-88159011D01*
X136711594Y-88159011D02*
X136711594Y-88218535D01*
X136711594Y-88218535D02*
X136699689Y-88242345D01*
X136699689Y-88242345D02*
X136687784Y-88254250D01*
X136687784Y-88254250D02*
X136663975Y-88266154D01*
X136663975Y-88266154D02*
X136592546Y-88266154D01*
X136592546Y-88266154D02*
X136568737Y-88254250D01*
X136568737Y-88254250D02*
X136556832Y-88242345D01*
X136818736Y-88242345D02*
X136830641Y-88254250D01*
X136830641Y-88254250D02*
X136818736Y-88266154D01*
X136818736Y-88266154D02*
X136806832Y-88254250D01*
X136806832Y-88254250D02*
X136818736Y-88242345D01*
X136818736Y-88242345D02*
X136818736Y-88266154D01*
X136913975Y-88016154D02*
X137068737Y-88016154D01*
X137068737Y-88016154D02*
X136985403Y-88111392D01*
X136985403Y-88111392D02*
X137021118Y-88111392D01*
X137021118Y-88111392D02*
X137044927Y-88123297D01*
X137044927Y-88123297D02*
X137056832Y-88135202D01*
X137056832Y-88135202D02*
X137068737Y-88159011D01*
X137068737Y-88159011D02*
X137068737Y-88218535D01*
X137068737Y-88218535D02*
X137056832Y-88242345D01*
X137056832Y-88242345D02*
X137044927Y-88254250D01*
X137044927Y-88254250D02*
X137021118Y-88266154D01*
X137021118Y-88266154D02*
X136949689Y-88266154D01*
X136949689Y-88266154D02*
X136925880Y-88254250D01*
X136925880Y-88254250D02*
X136913975Y-88242345D01*
X137152070Y-88099488D02*
X137211594Y-88266154D01*
X137211594Y-88266154D02*
X137271117Y-88099488D01*
D11*
X130714836Y-97283133D02*
X131095789Y-97283133D01*
X130905312Y-97473609D02*
X130905312Y-97092657D01*
X131286265Y-96973609D02*
X131595789Y-96973609D01*
X131595789Y-96973609D02*
X131429122Y-97164085D01*
X131429122Y-97164085D02*
X131500551Y-97164085D01*
X131500551Y-97164085D02*
X131548170Y-97187895D01*
X131548170Y-97187895D02*
X131571979Y-97211704D01*
X131571979Y-97211704D02*
X131595789Y-97259323D01*
X131595789Y-97259323D02*
X131595789Y-97378371D01*
X131595789Y-97378371D02*
X131571979Y-97425990D01*
X131571979Y-97425990D02*
X131548170Y-97449800D01*
X131548170Y-97449800D02*
X131500551Y-97473609D01*
X131500551Y-97473609D02*
X131357694Y-97473609D01*
X131357694Y-97473609D02*
X131310075Y-97449800D01*
X131310075Y-97449800D02*
X131286265Y-97425990D01*
X131810074Y-97425990D02*
X131833884Y-97449800D01*
X131833884Y-97449800D02*
X131810074Y-97473609D01*
X131810074Y-97473609D02*
X131786265Y-97449800D01*
X131786265Y-97449800D02*
X131810074Y-97425990D01*
X131810074Y-97425990D02*
X131810074Y-97473609D01*
X132000550Y-96973609D02*
X132310074Y-96973609D01*
X132310074Y-96973609D02*
X132143407Y-97164085D01*
X132143407Y-97164085D02*
X132214836Y-97164085D01*
X132214836Y-97164085D02*
X132262455Y-97187895D01*
X132262455Y-97187895D02*
X132286264Y-97211704D01*
X132286264Y-97211704D02*
X132310074Y-97259323D01*
X132310074Y-97259323D02*
X132310074Y-97378371D01*
X132310074Y-97378371D02*
X132286264Y-97425990D01*
X132286264Y-97425990D02*
X132262455Y-97449800D01*
X132262455Y-97449800D02*
X132214836Y-97473609D01*
X132214836Y-97473609D02*
X132071979Y-97473609D01*
X132071979Y-97473609D02*
X132024360Y-97449800D01*
X132024360Y-97449800D02*
X132000550Y-97425990D01*
X132476740Y-97140276D02*
X132595788Y-97473609D01*
X132595788Y-97473609D02*
X132714835Y-97140276D01*
X173666390Y-90813408D02*
X173666390Y-91099122D01*
X173166390Y-90956265D02*
X173666390Y-90956265D01*
X173166390Y-91218169D02*
X173499723Y-91480074D01*
X173499723Y-91218169D02*
X173166390Y-91480074D01*
X175666390Y-91170550D02*
X175904485Y-91003884D01*
X175666390Y-90884836D02*
X176166390Y-90884836D01*
X176166390Y-90884836D02*
X176166390Y-91075312D01*
X176166390Y-91075312D02*
X176142580Y-91122931D01*
X176142580Y-91122931D02*
X176118771Y-91146741D01*
X176118771Y-91146741D02*
X176071152Y-91170550D01*
X176071152Y-91170550D02*
X175999723Y-91170550D01*
X175999723Y-91170550D02*
X175952104Y-91146741D01*
X175952104Y-91146741D02*
X175928295Y-91122931D01*
X175928295Y-91122931D02*
X175904485Y-91075312D01*
X175904485Y-91075312D02*
X175904485Y-90884836D01*
X175666390Y-91337217D02*
X175999723Y-91599122D01*
X175999723Y-91337217D02*
X175666390Y-91599122D01*
X130824836Y-105033609D02*
X130824836Y-104533609D01*
X130824836Y-104533609D02*
X130991503Y-104890752D01*
X130991503Y-104890752D02*
X131158169Y-104533609D01*
X131158169Y-104533609D02*
X131158169Y-105033609D01*
X131396265Y-105033609D02*
X131396265Y-104533609D01*
X131610551Y-105009800D02*
X131681979Y-105033609D01*
X131681979Y-105033609D02*
X131801027Y-105033609D01*
X131801027Y-105033609D02*
X131848646Y-105009800D01*
X131848646Y-105009800D02*
X131872455Y-104985990D01*
X131872455Y-104985990D02*
X131896265Y-104938371D01*
X131896265Y-104938371D02*
X131896265Y-104890752D01*
X131896265Y-104890752D02*
X131872455Y-104843133D01*
X131872455Y-104843133D02*
X131848646Y-104819323D01*
X131848646Y-104819323D02*
X131801027Y-104795514D01*
X131801027Y-104795514D02*
X131705789Y-104771704D01*
X131705789Y-104771704D02*
X131658170Y-104747895D01*
X131658170Y-104747895D02*
X131634360Y-104724085D01*
X131634360Y-104724085D02*
X131610551Y-104676466D01*
X131610551Y-104676466D02*
X131610551Y-104628847D01*
X131610551Y-104628847D02*
X131634360Y-104581228D01*
X131634360Y-104581228D02*
X131658170Y-104557419D01*
X131658170Y-104557419D02*
X131705789Y-104533609D01*
X131705789Y-104533609D02*
X131824836Y-104533609D01*
X131824836Y-104533609D02*
X131896265Y-104557419D01*
X132205788Y-104533609D02*
X132301026Y-104533609D01*
X132301026Y-104533609D02*
X132348645Y-104557419D01*
X132348645Y-104557419D02*
X132396264Y-104605038D01*
X132396264Y-104605038D02*
X132420074Y-104700276D01*
X132420074Y-104700276D02*
X132420074Y-104866942D01*
X132420074Y-104866942D02*
X132396264Y-104962180D01*
X132396264Y-104962180D02*
X132348645Y-105009800D01*
X132348645Y-105009800D02*
X132301026Y-105033609D01*
X132301026Y-105033609D02*
X132205788Y-105033609D01*
X132205788Y-105033609D02*
X132158169Y-105009800D01*
X132158169Y-105009800D02*
X132110550Y-104962180D01*
X132110550Y-104962180D02*
X132086741Y-104866942D01*
X132086741Y-104866942D02*
X132086741Y-104700276D01*
X132086741Y-104700276D02*
X132110550Y-104605038D01*
X132110550Y-104605038D02*
X132158169Y-104557419D01*
X132158169Y-104557419D02*
X132205788Y-104533609D01*
X173117419Y-83983258D02*
X173093609Y-84030877D01*
X173093609Y-84030877D02*
X173093609Y-84102306D01*
X173093609Y-84102306D02*
X173117419Y-84173734D01*
X173117419Y-84173734D02*
X173165038Y-84221353D01*
X173165038Y-84221353D02*
X173212657Y-84245163D01*
X173212657Y-84245163D02*
X173307895Y-84268972D01*
X173307895Y-84268972D02*
X173379323Y-84268972D01*
X173379323Y-84268972D02*
X173474561Y-84245163D01*
X173474561Y-84245163D02*
X173522180Y-84221353D01*
X173522180Y-84221353D02*
X173569800Y-84173734D01*
X173569800Y-84173734D02*
X173593609Y-84102306D01*
X173593609Y-84102306D02*
X173593609Y-84054687D01*
X173593609Y-84054687D02*
X173569800Y-83983258D01*
X173569800Y-83983258D02*
X173545990Y-83959449D01*
X173545990Y-83959449D02*
X173379323Y-83959449D01*
X173379323Y-83959449D02*
X173379323Y-84054687D01*
X173593609Y-83745163D02*
X173093609Y-83745163D01*
X173093609Y-83745163D02*
X173593609Y-83459449D01*
X173593609Y-83459449D02*
X173093609Y-83459449D01*
X173593609Y-83221353D02*
X173093609Y-83221353D01*
X173093609Y-83221353D02*
X173093609Y-83102305D01*
X173093609Y-83102305D02*
X173117419Y-83030877D01*
X173117419Y-83030877D02*
X173165038Y-82983258D01*
X173165038Y-82983258D02*
X173212657Y-82959448D01*
X173212657Y-82959448D02*
X173307895Y-82935639D01*
X173307895Y-82935639D02*
X173379323Y-82935639D01*
X173379323Y-82935639D02*
X173474561Y-82959448D01*
X173474561Y-82959448D02*
X173522180Y-82983258D01*
X173522180Y-82983258D02*
X173569800Y-83030877D01*
X173569800Y-83030877D02*
X173593609Y-83102305D01*
X173593609Y-83102305D02*
X173593609Y-83221353D01*
X139590550Y-99795990D02*
X139566741Y-99819800D01*
X139566741Y-99819800D02*
X139495312Y-99843609D01*
X139495312Y-99843609D02*
X139447693Y-99843609D01*
X139447693Y-99843609D02*
X139376265Y-99819800D01*
X139376265Y-99819800D02*
X139328646Y-99772180D01*
X139328646Y-99772180D02*
X139304836Y-99724561D01*
X139304836Y-99724561D02*
X139281027Y-99629323D01*
X139281027Y-99629323D02*
X139281027Y-99557895D01*
X139281027Y-99557895D02*
X139304836Y-99462657D01*
X139304836Y-99462657D02*
X139328646Y-99415038D01*
X139328646Y-99415038D02*
X139376265Y-99367419D01*
X139376265Y-99367419D02*
X139447693Y-99343609D01*
X139447693Y-99343609D02*
X139495312Y-99343609D01*
X139495312Y-99343609D02*
X139566741Y-99367419D01*
X139566741Y-99367419D02*
X139590550Y-99391228D01*
X139781027Y-99819800D02*
X139852455Y-99843609D01*
X139852455Y-99843609D02*
X139971503Y-99843609D01*
X139971503Y-99843609D02*
X140019122Y-99819800D01*
X140019122Y-99819800D02*
X140042931Y-99795990D01*
X140042931Y-99795990D02*
X140066741Y-99748371D01*
X140066741Y-99748371D02*
X140066741Y-99700752D01*
X140066741Y-99700752D02*
X140042931Y-99653133D01*
X140042931Y-99653133D02*
X140019122Y-99629323D01*
X140019122Y-99629323D02*
X139971503Y-99605514D01*
X139971503Y-99605514D02*
X139876265Y-99581704D01*
X139876265Y-99581704D02*
X139828646Y-99557895D01*
X139828646Y-99557895D02*
X139804836Y-99534085D01*
X139804836Y-99534085D02*
X139781027Y-99486466D01*
X139781027Y-99486466D02*
X139781027Y-99438847D01*
X139781027Y-99438847D02*
X139804836Y-99391228D01*
X139804836Y-99391228D02*
X139828646Y-99367419D01*
X139828646Y-99367419D02*
X139876265Y-99343609D01*
X139876265Y-99343609D02*
X139995312Y-99343609D01*
X139995312Y-99343609D02*
X140066741Y-99367419D01*
X170728295Y-90884836D02*
X170728295Y-91051503D01*
X170466390Y-91122931D02*
X170466390Y-90884836D01*
X170466390Y-90884836D02*
X170966390Y-90884836D01*
X170966390Y-90884836D02*
X170966390Y-91122931D01*
X170799723Y-91337217D02*
X170466390Y-91337217D01*
X170752104Y-91337217D02*
X170775914Y-91361027D01*
X170775914Y-91361027D02*
X170799723Y-91408646D01*
X170799723Y-91408646D02*
X170799723Y-91480074D01*
X170799723Y-91480074D02*
X170775914Y-91527693D01*
X170775914Y-91527693D02*
X170728295Y-91551503D01*
X170728295Y-91551503D02*
X170466390Y-91551503D01*
D10*
X136358737Y-89334250D02*
X136394451Y-89346154D01*
X136394451Y-89346154D02*
X136453975Y-89346154D01*
X136453975Y-89346154D02*
X136477784Y-89334250D01*
X136477784Y-89334250D02*
X136489689Y-89322345D01*
X136489689Y-89322345D02*
X136501594Y-89298535D01*
X136501594Y-89298535D02*
X136501594Y-89274726D01*
X136501594Y-89274726D02*
X136489689Y-89250916D01*
X136489689Y-89250916D02*
X136477784Y-89239011D01*
X136477784Y-89239011D02*
X136453975Y-89227107D01*
X136453975Y-89227107D02*
X136406356Y-89215202D01*
X136406356Y-89215202D02*
X136382546Y-89203297D01*
X136382546Y-89203297D02*
X136370641Y-89191392D01*
X136370641Y-89191392D02*
X136358737Y-89167583D01*
X136358737Y-89167583D02*
X136358737Y-89143773D01*
X136358737Y-89143773D02*
X136370641Y-89119964D01*
X136370641Y-89119964D02*
X136382546Y-89108059D01*
X136382546Y-89108059D02*
X136406356Y-89096154D01*
X136406356Y-89096154D02*
X136465879Y-89096154D01*
X136465879Y-89096154D02*
X136501594Y-89108059D01*
X136608736Y-89346154D02*
X136608736Y-89096154D01*
X136608736Y-89096154D02*
X136668260Y-89096154D01*
X136668260Y-89096154D02*
X136703974Y-89108059D01*
X136703974Y-89108059D02*
X136727784Y-89131869D01*
X136727784Y-89131869D02*
X136739689Y-89155678D01*
X136739689Y-89155678D02*
X136751593Y-89203297D01*
X136751593Y-89203297D02*
X136751593Y-89239011D01*
X136751593Y-89239011D02*
X136739689Y-89286630D01*
X136739689Y-89286630D02*
X136727784Y-89310440D01*
X136727784Y-89310440D02*
X136703974Y-89334250D01*
X136703974Y-89334250D02*
X136668260Y-89346154D01*
X136668260Y-89346154D02*
X136608736Y-89346154D01*
X136846832Y-89274726D02*
X136965879Y-89274726D01*
X136823022Y-89346154D02*
X136906355Y-89096154D01*
X136906355Y-89096154D02*
X136989689Y-89346154D01*
D11*
X131030550Y-100128637D02*
X130863884Y-99890542D01*
X130744836Y-100128637D02*
X130744836Y-99628637D01*
X130744836Y-99628637D02*
X130935312Y-99628637D01*
X130935312Y-99628637D02*
X130982931Y-99652447D01*
X130982931Y-99652447D02*
X131006741Y-99676256D01*
X131006741Y-99676256D02*
X131030550Y-99723875D01*
X131030550Y-99723875D02*
X131030550Y-99795304D01*
X131030550Y-99795304D02*
X131006741Y-99842923D01*
X131006741Y-99842923D02*
X130982931Y-99866732D01*
X130982931Y-99866732D02*
X130935312Y-99890542D01*
X130935312Y-99890542D02*
X130744836Y-99890542D01*
X131244836Y-99866732D02*
X131411503Y-99866732D01*
X131482931Y-100128637D02*
X131244836Y-100128637D01*
X131244836Y-100128637D02*
X131244836Y-99628637D01*
X131244836Y-99628637D02*
X131482931Y-99628637D01*
X131673408Y-100104828D02*
X131744836Y-100128637D01*
X131744836Y-100128637D02*
X131863884Y-100128637D01*
X131863884Y-100128637D02*
X131911503Y-100104828D01*
X131911503Y-100104828D02*
X131935312Y-100081018D01*
X131935312Y-100081018D02*
X131959122Y-100033399D01*
X131959122Y-100033399D02*
X131959122Y-99985780D01*
X131959122Y-99985780D02*
X131935312Y-99938161D01*
X131935312Y-99938161D02*
X131911503Y-99914351D01*
X131911503Y-99914351D02*
X131863884Y-99890542D01*
X131863884Y-99890542D02*
X131768646Y-99866732D01*
X131768646Y-99866732D02*
X131721027Y-99842923D01*
X131721027Y-99842923D02*
X131697217Y-99819113D01*
X131697217Y-99819113D02*
X131673408Y-99771494D01*
X131673408Y-99771494D02*
X131673408Y-99723875D01*
X131673408Y-99723875D02*
X131697217Y-99676256D01*
X131697217Y-99676256D02*
X131721027Y-99652447D01*
X131721027Y-99652447D02*
X131768646Y-99628637D01*
X131768646Y-99628637D02*
X131887693Y-99628637D01*
X131887693Y-99628637D02*
X131959122Y-99652447D01*
X132173407Y-99866732D02*
X132340074Y-99866732D01*
X132411502Y-100128637D02*
X132173407Y-100128637D01*
X132173407Y-100128637D02*
X132173407Y-99628637D01*
X132173407Y-99628637D02*
X132411502Y-99628637D01*
X132554360Y-99628637D02*
X132840074Y-99628637D01*
X132697217Y-100128637D02*
X132697217Y-99628637D01*
D12*
X158579673Y-102777100D02*
X158758244Y-102836623D01*
X158758244Y-102836623D02*
X159055863Y-102836623D01*
X159055863Y-102836623D02*
X159174911Y-102777100D01*
X159174911Y-102777100D02*
X159234435Y-102717576D01*
X159234435Y-102717576D02*
X159293958Y-102598528D01*
X159293958Y-102598528D02*
X159293958Y-102479480D01*
X159293958Y-102479480D02*
X159234435Y-102360433D01*
X159234435Y-102360433D02*
X159174911Y-102300909D01*
X159174911Y-102300909D02*
X159055863Y-102241385D01*
X159055863Y-102241385D02*
X158817768Y-102181861D01*
X158817768Y-102181861D02*
X158698720Y-102122338D01*
X158698720Y-102122338D02*
X158639197Y-102062814D01*
X158639197Y-102062814D02*
X158579673Y-101943766D01*
X158579673Y-101943766D02*
X158579673Y-101824719D01*
X158579673Y-101824719D02*
X158639197Y-101705671D01*
X158639197Y-101705671D02*
X158698720Y-101646147D01*
X158698720Y-101646147D02*
X158817768Y-101586623D01*
X158817768Y-101586623D02*
X159115387Y-101586623D01*
X159115387Y-101586623D02*
X159293958Y-101646147D01*
X159770149Y-102479480D02*
X160365387Y-102479480D01*
X159651101Y-102836623D02*
X160067768Y-101586623D01*
X160067768Y-101586623D02*
X160484434Y-102836623D01*
X160901102Y-102836623D02*
X160901102Y-101586623D01*
X160901102Y-101586623D02*
X161317768Y-102479480D01*
X161317768Y-102479480D02*
X161734435Y-101586623D01*
X161734435Y-101586623D02*
X161734435Y-102836623D01*
D11*
X139334836Y-97163133D02*
X139715789Y-97163133D01*
X139525312Y-97353609D02*
X139525312Y-96972657D01*
X139906265Y-96853609D02*
X140215789Y-96853609D01*
X140215789Y-96853609D02*
X140049122Y-97044085D01*
X140049122Y-97044085D02*
X140120551Y-97044085D01*
X140120551Y-97044085D02*
X140168170Y-97067895D01*
X140168170Y-97067895D02*
X140191979Y-97091704D01*
X140191979Y-97091704D02*
X140215789Y-97139323D01*
X140215789Y-97139323D02*
X140215789Y-97258371D01*
X140215789Y-97258371D02*
X140191979Y-97305990D01*
X140191979Y-97305990D02*
X140168170Y-97329800D01*
X140168170Y-97329800D02*
X140120551Y-97353609D01*
X140120551Y-97353609D02*
X139977694Y-97353609D01*
X139977694Y-97353609D02*
X139930075Y-97329800D01*
X139930075Y-97329800D02*
X139906265Y-97305990D01*
X140430074Y-97305990D02*
X140453884Y-97329800D01*
X140453884Y-97329800D02*
X140430074Y-97353609D01*
X140430074Y-97353609D02*
X140406265Y-97329800D01*
X140406265Y-97329800D02*
X140430074Y-97305990D01*
X140430074Y-97305990D02*
X140430074Y-97353609D01*
X140620550Y-96853609D02*
X140930074Y-96853609D01*
X140930074Y-96853609D02*
X140763407Y-97044085D01*
X140763407Y-97044085D02*
X140834836Y-97044085D01*
X140834836Y-97044085D02*
X140882455Y-97067895D01*
X140882455Y-97067895D02*
X140906264Y-97091704D01*
X140906264Y-97091704D02*
X140930074Y-97139323D01*
X140930074Y-97139323D02*
X140930074Y-97258371D01*
X140930074Y-97258371D02*
X140906264Y-97305990D01*
X140906264Y-97305990D02*
X140882455Y-97329800D01*
X140882455Y-97329800D02*
X140834836Y-97353609D01*
X140834836Y-97353609D02*
X140691979Y-97353609D01*
X140691979Y-97353609D02*
X140644360Y-97329800D01*
X140644360Y-97329800D02*
X140620550Y-97305990D01*
X141096740Y-97020276D02*
X141215788Y-97353609D01*
X141215788Y-97353609D02*
X141334835Y-97020276D01*
D13*
X164931905Y-111304819D02*
X164931905Y-110304819D01*
X164931905Y-110304819D02*
X165170000Y-110304819D01*
X165170000Y-110304819D02*
X165312857Y-110352438D01*
X165312857Y-110352438D02*
X165408095Y-110447676D01*
X165408095Y-110447676D02*
X165455714Y-110542914D01*
X165455714Y-110542914D02*
X165503333Y-110733390D01*
X165503333Y-110733390D02*
X165503333Y-110876247D01*
X165503333Y-110876247D02*
X165455714Y-111066723D01*
X165455714Y-111066723D02*
X165408095Y-111161961D01*
X165408095Y-111161961D02*
X165312857Y-111257200D01*
X165312857Y-111257200D02*
X165170000Y-111304819D01*
X165170000Y-111304819D02*
X164931905Y-111304819D01*
X166360476Y-110304819D02*
X166170000Y-110304819D01*
X166170000Y-110304819D02*
X166074762Y-110352438D01*
X166074762Y-110352438D02*
X166027143Y-110400057D01*
X166027143Y-110400057D02*
X165931905Y-110542914D01*
X165931905Y-110542914D02*
X165884286Y-110733390D01*
X165884286Y-110733390D02*
X165884286Y-111114342D01*
X165884286Y-111114342D02*
X165931905Y-111209580D01*
X165931905Y-111209580D02*
X165979524Y-111257200D01*
X165979524Y-111257200D02*
X166074762Y-111304819D01*
X166074762Y-111304819D02*
X166265238Y-111304819D01*
X166265238Y-111304819D02*
X166360476Y-111257200D01*
X166360476Y-111257200D02*
X166408095Y-111209580D01*
X166408095Y-111209580D02*
X166455714Y-111114342D01*
X166455714Y-111114342D02*
X166455714Y-110876247D01*
X166455714Y-110876247D02*
X166408095Y-110781009D01*
X166408095Y-110781009D02*
X166360476Y-110733390D01*
X166360476Y-110733390D02*
X166265238Y-110685771D01*
X166265238Y-110685771D02*
X166074762Y-110685771D01*
X166074762Y-110685771D02*
X165979524Y-110733390D01*
X165979524Y-110733390D02*
X165931905Y-110781009D01*
X165931905Y-110781009D02*
X165884286Y-110876247D01*
X138779819Y-85416666D02*
X138303628Y-85749999D01*
X138779819Y-85988094D02*
X137779819Y-85988094D01*
X137779819Y-85988094D02*
X137779819Y-85607142D01*
X137779819Y-85607142D02*
X137827438Y-85511904D01*
X137827438Y-85511904D02*
X137875057Y-85464285D01*
X137875057Y-85464285D02*
X137970295Y-85416666D01*
X137970295Y-85416666D02*
X138113152Y-85416666D01*
X138113152Y-85416666D02*
X138208390Y-85464285D01*
X138208390Y-85464285D02*
X138256009Y-85511904D01*
X138256009Y-85511904D02*
X138303628Y-85607142D01*
X138303628Y-85607142D02*
X138303628Y-85988094D01*
X138779819Y-84940475D02*
X138779819Y-84749999D01*
X138779819Y-84749999D02*
X138732200Y-84654761D01*
X138732200Y-84654761D02*
X138684580Y-84607142D01*
X138684580Y-84607142D02*
X138541723Y-84511904D01*
X138541723Y-84511904D02*
X138351247Y-84464285D01*
X138351247Y-84464285D02*
X137970295Y-84464285D01*
X137970295Y-84464285D02*
X137875057Y-84511904D01*
X137875057Y-84511904D02*
X137827438Y-84559523D01*
X137827438Y-84559523D02*
X137779819Y-84654761D01*
X137779819Y-84654761D02*
X137779819Y-84845237D01*
X137779819Y-84845237D02*
X137827438Y-84940475D01*
X137827438Y-84940475D02*
X137875057Y-84988094D01*
X137875057Y-84988094D02*
X137970295Y-85035713D01*
X137970295Y-85035713D02*
X138208390Y-85035713D01*
X138208390Y-85035713D02*
X138303628Y-84988094D01*
X138303628Y-84988094D02*
X138351247Y-84940475D01*
X138351247Y-84940475D02*
X138398866Y-84845237D01*
X138398866Y-84845237D02*
X138398866Y-84654761D01*
X138398866Y-84654761D02*
X138351247Y-84559523D01*
X138351247Y-84559523D02*
X138303628Y-84511904D01*
X138303628Y-84511904D02*
X138208390Y-84464285D01*
X170774819Y-101418094D02*
X169774819Y-101418094D01*
X169774819Y-101418094D02*
X169774819Y-101179999D01*
X169774819Y-101179999D02*
X169822438Y-101037142D01*
X169822438Y-101037142D02*
X169917676Y-100941904D01*
X169917676Y-100941904D02*
X170012914Y-100894285D01*
X170012914Y-100894285D02*
X170203390Y-100846666D01*
X170203390Y-100846666D02*
X170346247Y-100846666D01*
X170346247Y-100846666D02*
X170536723Y-100894285D01*
X170536723Y-100894285D02*
X170631961Y-100941904D01*
X170631961Y-100941904D02*
X170727200Y-101037142D01*
X170727200Y-101037142D02*
X170774819Y-101179999D01*
X170774819Y-101179999D02*
X170774819Y-101418094D01*
X169870057Y-100465713D02*
X169822438Y-100418094D01*
X169822438Y-100418094D02*
X169774819Y-100322856D01*
X169774819Y-100322856D02*
X169774819Y-100084761D01*
X169774819Y-100084761D02*
X169822438Y-99989523D01*
X169822438Y-99989523D02*
X169870057Y-99941904D01*
X169870057Y-99941904D02*
X169965295Y-99894285D01*
X169965295Y-99894285D02*
X170060533Y-99894285D01*
X170060533Y-99894285D02*
X170203390Y-99941904D01*
X170203390Y-99941904D02*
X170774819Y-100513332D01*
X170774819Y-100513332D02*
X170774819Y-99894285D01*
X138954819Y-93367857D02*
X138478628Y-93701190D01*
X138954819Y-93939285D02*
X137954819Y-93939285D01*
X137954819Y-93939285D02*
X137954819Y-93558333D01*
X137954819Y-93558333D02*
X138002438Y-93463095D01*
X138002438Y-93463095D02*
X138050057Y-93415476D01*
X138050057Y-93415476D02*
X138145295Y-93367857D01*
X138145295Y-93367857D02*
X138288152Y-93367857D01*
X138288152Y-93367857D02*
X138383390Y-93415476D01*
X138383390Y-93415476D02*
X138431009Y-93463095D01*
X138431009Y-93463095D02*
X138478628Y-93558333D01*
X138478628Y-93558333D02*
X138478628Y-93939285D01*
X138954819Y-92415476D02*
X138954819Y-92986904D01*
X138954819Y-92701190D02*
X137954819Y-92701190D01*
X137954819Y-92701190D02*
X138097676Y-92796428D01*
X138097676Y-92796428D02*
X138192914Y-92891666D01*
X138192914Y-92891666D02*
X138240533Y-92986904D01*
X137954819Y-91796428D02*
X137954819Y-91701190D01*
X137954819Y-91701190D02*
X138002438Y-91605952D01*
X138002438Y-91605952D02*
X138050057Y-91558333D01*
X138050057Y-91558333D02*
X138145295Y-91510714D01*
X138145295Y-91510714D02*
X138335771Y-91463095D01*
X138335771Y-91463095D02*
X138573866Y-91463095D01*
X138573866Y-91463095D02*
X138764342Y-91510714D01*
X138764342Y-91510714D02*
X138859580Y-91558333D01*
X138859580Y-91558333D02*
X138907200Y-91605952D01*
X138907200Y-91605952D02*
X138954819Y-91701190D01*
X138954819Y-91701190D02*
X138954819Y-91796428D01*
X138954819Y-91796428D02*
X138907200Y-91891666D01*
X138907200Y-91891666D02*
X138859580Y-91939285D01*
X138859580Y-91939285D02*
X138764342Y-91986904D01*
X138764342Y-91986904D02*
X138573866Y-92034523D01*
X138573866Y-92034523D02*
X138335771Y-92034523D01*
X138335771Y-92034523D02*
X138145295Y-91986904D01*
X138145295Y-91986904D02*
X138050057Y-91939285D01*
X138050057Y-91939285D02*
X138002438Y-91891666D01*
X138002438Y-91891666D02*
X137954819Y-91796428D01*
X174986667Y-115007200D02*
X175129524Y-115054819D01*
X175129524Y-115054819D02*
X175367619Y-115054819D01*
X175367619Y-115054819D02*
X175462857Y-115007200D01*
X175462857Y-115007200D02*
X175510476Y-114959580D01*
X175510476Y-114959580D02*
X175558095Y-114864342D01*
X175558095Y-114864342D02*
X175558095Y-114769104D01*
X175558095Y-114769104D02*
X175510476Y-114673866D01*
X175510476Y-114673866D02*
X175462857Y-114626247D01*
X175462857Y-114626247D02*
X175367619Y-114578628D01*
X175367619Y-114578628D02*
X175177143Y-114531009D01*
X175177143Y-114531009D02*
X175081905Y-114483390D01*
X175081905Y-114483390D02*
X175034286Y-114435771D01*
X175034286Y-114435771D02*
X174986667Y-114340533D01*
X174986667Y-114340533D02*
X174986667Y-114245295D01*
X174986667Y-114245295D02*
X175034286Y-114150057D01*
X175034286Y-114150057D02*
X175081905Y-114102438D01*
X175081905Y-114102438D02*
X175177143Y-114054819D01*
X175177143Y-114054819D02*
X175415238Y-114054819D01*
X175415238Y-114054819D02*
X175558095Y-114102438D01*
X175891429Y-114054819D02*
X176129524Y-115054819D01*
X176129524Y-115054819D02*
X176320000Y-114340533D01*
X176320000Y-114340533D02*
X176510476Y-115054819D01*
X176510476Y-115054819D02*
X176748572Y-114054819D01*
X177034286Y-114054819D02*
X177653333Y-114054819D01*
X177653333Y-114054819D02*
X177320000Y-114435771D01*
X177320000Y-114435771D02*
X177462857Y-114435771D01*
X177462857Y-114435771D02*
X177558095Y-114483390D01*
X177558095Y-114483390D02*
X177605714Y-114531009D01*
X177605714Y-114531009D02*
X177653333Y-114626247D01*
X177653333Y-114626247D02*
X177653333Y-114864342D01*
X177653333Y-114864342D02*
X177605714Y-114959580D01*
X177605714Y-114959580D02*
X177558095Y-115007200D01*
X177558095Y-115007200D02*
X177462857Y-115054819D01*
X177462857Y-115054819D02*
X177177143Y-115054819D01*
X177177143Y-115054819D02*
X177081905Y-115007200D01*
X177081905Y-115007200D02*
X177034286Y-114959580D01*
X174962857Y-109531009D02*
X175105714Y-109578628D01*
X175105714Y-109578628D02*
X175153333Y-109626247D01*
X175153333Y-109626247D02*
X175200952Y-109721485D01*
X175200952Y-109721485D02*
X175200952Y-109864342D01*
X175200952Y-109864342D02*
X175153333Y-109959580D01*
X175153333Y-109959580D02*
X175105714Y-110007200D01*
X175105714Y-110007200D02*
X175010476Y-110054819D01*
X175010476Y-110054819D02*
X174629524Y-110054819D01*
X174629524Y-110054819D02*
X174629524Y-109054819D01*
X174629524Y-109054819D02*
X174962857Y-109054819D01*
X174962857Y-109054819D02*
X175058095Y-109102438D01*
X175058095Y-109102438D02*
X175105714Y-109150057D01*
X175105714Y-109150057D02*
X175153333Y-109245295D01*
X175153333Y-109245295D02*
X175153333Y-109340533D01*
X175153333Y-109340533D02*
X175105714Y-109435771D01*
X175105714Y-109435771D02*
X175058095Y-109483390D01*
X175058095Y-109483390D02*
X174962857Y-109531009D01*
X174962857Y-109531009D02*
X174629524Y-109531009D01*
X175820000Y-109054819D02*
X176010476Y-109054819D01*
X176010476Y-109054819D02*
X176105714Y-109102438D01*
X176105714Y-109102438D02*
X176200952Y-109197676D01*
X176200952Y-109197676D02*
X176248571Y-109388152D01*
X176248571Y-109388152D02*
X176248571Y-109721485D01*
X176248571Y-109721485D02*
X176200952Y-109911961D01*
X176200952Y-109911961D02*
X176105714Y-110007200D01*
X176105714Y-110007200D02*
X176010476Y-110054819D01*
X176010476Y-110054819D02*
X175820000Y-110054819D01*
X175820000Y-110054819D02*
X175724762Y-110007200D01*
X175724762Y-110007200D02*
X175629524Y-109911961D01*
X175629524Y-109911961D02*
X175581905Y-109721485D01*
X175581905Y-109721485D02*
X175581905Y-109388152D01*
X175581905Y-109388152D02*
X175629524Y-109197676D01*
X175629524Y-109197676D02*
X175724762Y-109102438D01*
X175724762Y-109102438D02*
X175820000Y-109054819D01*
X176867619Y-109054819D02*
X177058095Y-109054819D01*
X177058095Y-109054819D02*
X177153333Y-109102438D01*
X177153333Y-109102438D02*
X177248571Y-109197676D01*
X177248571Y-109197676D02*
X177296190Y-109388152D01*
X177296190Y-109388152D02*
X177296190Y-109721485D01*
X177296190Y-109721485D02*
X177248571Y-109911961D01*
X177248571Y-109911961D02*
X177153333Y-110007200D01*
X177153333Y-110007200D02*
X177058095Y-110054819D01*
X177058095Y-110054819D02*
X176867619Y-110054819D01*
X176867619Y-110054819D02*
X176772381Y-110007200D01*
X176772381Y-110007200D02*
X176677143Y-109911961D01*
X176677143Y-109911961D02*
X176629524Y-109721485D01*
X176629524Y-109721485D02*
X176629524Y-109388152D01*
X176629524Y-109388152D02*
X176677143Y-109197676D01*
X176677143Y-109197676D02*
X176772381Y-109102438D01*
X176772381Y-109102438D02*
X176867619Y-109054819D01*
X177581905Y-109054819D02*
X178153333Y-109054819D01*
X177867619Y-110054819D02*
X177867619Y-109054819D01*
X156538095Y-113654819D02*
X156538095Y-114464342D01*
X156538095Y-114464342D02*
X156585714Y-114559580D01*
X156585714Y-114559580D02*
X156633333Y-114607200D01*
X156633333Y-114607200D02*
X156728571Y-114654819D01*
X156728571Y-114654819D02*
X156919047Y-114654819D01*
X156919047Y-114654819D02*
X157014285Y-114607200D01*
X157014285Y-114607200D02*
X157061904Y-114559580D01*
X157061904Y-114559580D02*
X157109523Y-114464342D01*
X157109523Y-114464342D02*
X157109523Y-113654819D01*
X158109523Y-114654819D02*
X157538095Y-114654819D01*
X157823809Y-114654819D02*
X157823809Y-113654819D01*
X157823809Y-113654819D02*
X157728571Y-113797676D01*
X157728571Y-113797676D02*
X157633333Y-113892914D01*
X157633333Y-113892914D02*
X157538095Y-113940533D01*
X142954819Y-84561904D02*
X143764342Y-84561904D01*
X143764342Y-84561904D02*
X143859580Y-84514285D01*
X143859580Y-84514285D02*
X143907200Y-84466666D01*
X143907200Y-84466666D02*
X143954819Y-84371428D01*
X143954819Y-84371428D02*
X143954819Y-84180952D01*
X143954819Y-84180952D02*
X143907200Y-84085714D01*
X143907200Y-84085714D02*
X143859580Y-84038095D01*
X143859580Y-84038095D02*
X143764342Y-83990476D01*
X143764342Y-83990476D02*
X142954819Y-83990476D01*
X143050057Y-83561904D02*
X143002438Y-83514285D01*
X143002438Y-83514285D02*
X142954819Y-83419047D01*
X142954819Y-83419047D02*
X142954819Y-83180952D01*
X142954819Y-83180952D02*
X143002438Y-83085714D01*
X143002438Y-83085714D02*
X143050057Y-83038095D01*
X143050057Y-83038095D02*
X143145295Y-82990476D01*
X143145295Y-82990476D02*
X143240533Y-82990476D01*
X143240533Y-82990476D02*
X143383390Y-83038095D01*
X143383390Y-83038095D02*
X143954819Y-83609523D01*
X143954819Y-83609523D02*
X143954819Y-82990476D01*
X144733333Y-95854819D02*
X144400000Y-95378628D01*
X144161905Y-95854819D02*
X144161905Y-94854819D01*
X144161905Y-94854819D02*
X144542857Y-94854819D01*
X144542857Y-94854819D02*
X144638095Y-94902438D01*
X144638095Y-94902438D02*
X144685714Y-94950057D01*
X144685714Y-94950057D02*
X144733333Y-95045295D01*
X144733333Y-95045295D02*
X144733333Y-95188152D01*
X144733333Y-95188152D02*
X144685714Y-95283390D01*
X144685714Y-95283390D02*
X144638095Y-95331009D01*
X144638095Y-95331009D02*
X144542857Y-95378628D01*
X144542857Y-95378628D02*
X144161905Y-95378628D01*
X145638095Y-94854819D02*
X145161905Y-94854819D01*
X145161905Y-94854819D02*
X145114286Y-95331009D01*
X145114286Y-95331009D02*
X145161905Y-95283390D01*
X145161905Y-95283390D02*
X145257143Y-95235771D01*
X145257143Y-95235771D02*
X145495238Y-95235771D01*
X145495238Y-95235771D02*
X145590476Y-95283390D01*
X145590476Y-95283390D02*
X145638095Y-95331009D01*
X145638095Y-95331009D02*
X145685714Y-95426247D01*
X145685714Y-95426247D02*
X145685714Y-95664342D01*
X145685714Y-95664342D02*
X145638095Y-95759580D01*
X145638095Y-95759580D02*
X145590476Y-95807200D01*
X145590476Y-95807200D02*
X145495238Y-95854819D01*
X145495238Y-95854819D02*
X145257143Y-95854819D01*
X145257143Y-95854819D02*
X145161905Y-95807200D01*
X145161905Y-95807200D02*
X145114286Y-95759580D01*
X161129642Y-115849819D02*
X160796309Y-115373628D01*
X160558214Y-115849819D02*
X160558214Y-114849819D01*
X160558214Y-114849819D02*
X160939166Y-114849819D01*
X160939166Y-114849819D02*
X161034404Y-114897438D01*
X161034404Y-114897438D02*
X161082023Y-114945057D01*
X161082023Y-114945057D02*
X161129642Y-115040295D01*
X161129642Y-115040295D02*
X161129642Y-115183152D01*
X161129642Y-115183152D02*
X161082023Y-115278390D01*
X161082023Y-115278390D02*
X161034404Y-115326009D01*
X161034404Y-115326009D02*
X160939166Y-115373628D01*
X160939166Y-115373628D02*
X160558214Y-115373628D01*
X162082023Y-115849819D02*
X161510595Y-115849819D01*
X161796309Y-115849819D02*
X161796309Y-114849819D01*
X161796309Y-114849819D02*
X161701071Y-114992676D01*
X161701071Y-114992676D02*
X161605833Y-115087914D01*
X161605833Y-115087914D02*
X161510595Y-115135533D01*
X163034404Y-115849819D02*
X162462976Y-115849819D01*
X162748690Y-115849819D02*
X162748690Y-114849819D01*
X162748690Y-114849819D02*
X162653452Y-114992676D01*
X162653452Y-114992676D02*
X162558214Y-115087914D01*
X162558214Y-115087914D02*
X162462976Y-115135533D01*
X173754819Y-108938094D02*
X172754819Y-108938094D01*
X172754819Y-108938094D02*
X172754819Y-108699999D01*
X172754819Y-108699999D02*
X172802438Y-108557142D01*
X172802438Y-108557142D02*
X172897676Y-108461904D01*
X172897676Y-108461904D02*
X172992914Y-108414285D01*
X172992914Y-108414285D02*
X173183390Y-108366666D01*
X173183390Y-108366666D02*
X173326247Y-108366666D01*
X173326247Y-108366666D02*
X173516723Y-108414285D01*
X173516723Y-108414285D02*
X173611961Y-108461904D01*
X173611961Y-108461904D02*
X173707200Y-108557142D01*
X173707200Y-108557142D02*
X173754819Y-108699999D01*
X173754819Y-108699999D02*
X173754819Y-108938094D01*
X172754819Y-108033332D02*
X172754819Y-107414285D01*
X172754819Y-107414285D02*
X173135771Y-107747618D01*
X173135771Y-107747618D02*
X173135771Y-107604761D01*
X173135771Y-107604761D02*
X173183390Y-107509523D01*
X173183390Y-107509523D02*
X173231009Y-107461904D01*
X173231009Y-107461904D02*
X173326247Y-107414285D01*
X173326247Y-107414285D02*
X173564342Y-107414285D01*
X173564342Y-107414285D02*
X173659580Y-107461904D01*
X173659580Y-107461904D02*
X173707200Y-107509523D01*
X173707200Y-107509523D02*
X173754819Y-107604761D01*
X173754819Y-107604761D02*
X173754819Y-107890475D01*
X173754819Y-107890475D02*
X173707200Y-107985713D01*
X173707200Y-107985713D02*
X173659580Y-108033332D01*
X132958095Y-116804819D02*
X132958095Y-115804819D01*
X132958095Y-116281009D02*
X133529523Y-116281009D01*
X133529523Y-116804819D02*
X133529523Y-115804819D01*
X133910476Y-115804819D02*
X134529523Y-115804819D01*
X134529523Y-115804819D02*
X134196190Y-116185771D01*
X134196190Y-116185771D02*
X134339047Y-116185771D01*
X134339047Y-116185771D02*
X134434285Y-116233390D01*
X134434285Y-116233390D02*
X134481904Y-116281009D01*
X134481904Y-116281009D02*
X134529523Y-116376247D01*
X134529523Y-116376247D02*
X134529523Y-116614342D01*
X134529523Y-116614342D02*
X134481904Y-116709580D01*
X134481904Y-116709580D02*
X134434285Y-116757200D01*
X134434285Y-116757200D02*
X134339047Y-116804819D01*
X134339047Y-116804819D02*
X134053333Y-116804819D01*
X134053333Y-116804819D02*
X133958095Y-116757200D01*
X133958095Y-116757200D02*
X133910476Y-116709580D01*
X135696666Y-94214819D02*
X135696666Y-94929104D01*
X135696666Y-94929104D02*
X135649047Y-95071961D01*
X135649047Y-95071961D02*
X135553809Y-95167200D01*
X135553809Y-95167200D02*
X135410952Y-95214819D01*
X135410952Y-95214819D02*
X135315714Y-95214819D01*
X136601428Y-94548152D02*
X136601428Y-95214819D01*
X136363333Y-94167200D02*
X136125238Y-94881485D01*
X136125238Y-94881485D02*
X136744285Y-94881485D01*
X141259580Y-121866666D02*
X141307200Y-121914285D01*
X141307200Y-121914285D02*
X141354819Y-122057142D01*
X141354819Y-122057142D02*
X141354819Y-122152380D01*
X141354819Y-122152380D02*
X141307200Y-122295237D01*
X141307200Y-122295237D02*
X141211961Y-122390475D01*
X141211961Y-122390475D02*
X141116723Y-122438094D01*
X141116723Y-122438094D02*
X140926247Y-122485713D01*
X140926247Y-122485713D02*
X140783390Y-122485713D01*
X140783390Y-122485713D02*
X140592914Y-122438094D01*
X140592914Y-122438094D02*
X140497676Y-122390475D01*
X140497676Y-122390475D02*
X140402438Y-122295237D01*
X140402438Y-122295237D02*
X140354819Y-122152380D01*
X140354819Y-122152380D02*
X140354819Y-122057142D01*
X140354819Y-122057142D02*
X140402438Y-121914285D01*
X140402438Y-121914285D02*
X140450057Y-121866666D01*
X140354819Y-121533332D02*
X140354819Y-120866666D01*
X140354819Y-120866666D02*
X141354819Y-121295237D01*
X142004819Y-87641666D02*
X141528628Y-87974999D01*
X142004819Y-88213094D02*
X141004819Y-88213094D01*
X141004819Y-88213094D02*
X141004819Y-87832142D01*
X141004819Y-87832142D02*
X141052438Y-87736904D01*
X141052438Y-87736904D02*
X141100057Y-87689285D01*
X141100057Y-87689285D02*
X141195295Y-87641666D01*
X141195295Y-87641666D02*
X141338152Y-87641666D01*
X141338152Y-87641666D02*
X141433390Y-87689285D01*
X141433390Y-87689285D02*
X141481009Y-87736904D01*
X141481009Y-87736904D02*
X141528628Y-87832142D01*
X141528628Y-87832142D02*
X141528628Y-88213094D01*
X141004819Y-87308332D02*
X141004819Y-86641666D01*
X141004819Y-86641666D02*
X142004819Y-87070237D01*
X174958095Y-116804819D02*
X174958095Y-115804819D01*
X174958095Y-116281009D02*
X175529523Y-116281009D01*
X175529523Y-116804819D02*
X175529523Y-115804819D01*
X176434285Y-116138152D02*
X176434285Y-116804819D01*
X176196190Y-115757200D02*
X175958095Y-116471485D01*
X175958095Y-116471485D02*
X176577142Y-116471485D01*
X172374819Y-113518094D02*
X171374819Y-113518094D01*
X171374819Y-113518094D02*
X171374819Y-113279999D01*
X171374819Y-113279999D02*
X171422438Y-113137142D01*
X171422438Y-113137142D02*
X171517676Y-113041904D01*
X171517676Y-113041904D02*
X171612914Y-112994285D01*
X171612914Y-112994285D02*
X171803390Y-112946666D01*
X171803390Y-112946666D02*
X171946247Y-112946666D01*
X171946247Y-112946666D02*
X172136723Y-112994285D01*
X172136723Y-112994285D02*
X172231961Y-113041904D01*
X172231961Y-113041904D02*
X172327200Y-113137142D01*
X172327200Y-113137142D02*
X172374819Y-113279999D01*
X172374819Y-113279999D02*
X172374819Y-113518094D01*
X171374819Y-112041904D02*
X171374819Y-112518094D01*
X171374819Y-112518094D02*
X171851009Y-112565713D01*
X171851009Y-112565713D02*
X171803390Y-112518094D01*
X171803390Y-112518094D02*
X171755771Y-112422856D01*
X171755771Y-112422856D02*
X171755771Y-112184761D01*
X171755771Y-112184761D02*
X171803390Y-112089523D01*
X171803390Y-112089523D02*
X171851009Y-112041904D01*
X171851009Y-112041904D02*
X171946247Y-111994285D01*
X171946247Y-111994285D02*
X172184342Y-111994285D01*
X172184342Y-111994285D02*
X172279580Y-112041904D01*
X172279580Y-112041904D02*
X172327200Y-112089523D01*
X172327200Y-112089523D02*
X172374819Y-112184761D01*
X172374819Y-112184761D02*
X172374819Y-112422856D01*
X172374819Y-112422856D02*
X172327200Y-112518094D01*
X172327200Y-112518094D02*
X172279580Y-112565713D01*
X168609642Y-116054819D02*
X168276309Y-115578628D01*
X168038214Y-116054819D02*
X168038214Y-115054819D01*
X168038214Y-115054819D02*
X168419166Y-115054819D01*
X168419166Y-115054819D02*
X168514404Y-115102438D01*
X168514404Y-115102438D02*
X168562023Y-115150057D01*
X168562023Y-115150057D02*
X168609642Y-115245295D01*
X168609642Y-115245295D02*
X168609642Y-115388152D01*
X168609642Y-115388152D02*
X168562023Y-115483390D01*
X168562023Y-115483390D02*
X168514404Y-115531009D01*
X168514404Y-115531009D02*
X168419166Y-115578628D01*
X168419166Y-115578628D02*
X168038214Y-115578628D01*
X169562023Y-116054819D02*
X168990595Y-116054819D01*
X169276309Y-116054819D02*
X169276309Y-115054819D01*
X169276309Y-115054819D02*
X169181071Y-115197676D01*
X169181071Y-115197676D02*
X169085833Y-115292914D01*
X169085833Y-115292914D02*
X168990595Y-115340533D01*
X169895357Y-115054819D02*
X170514404Y-115054819D01*
X170514404Y-115054819D02*
X170181071Y-115435771D01*
X170181071Y-115435771D02*
X170323928Y-115435771D01*
X170323928Y-115435771D02*
X170419166Y-115483390D01*
X170419166Y-115483390D02*
X170466785Y-115531009D01*
X170466785Y-115531009D02*
X170514404Y-115626247D01*
X170514404Y-115626247D02*
X170514404Y-115864342D01*
X170514404Y-115864342D02*
X170466785Y-115959580D01*
X170466785Y-115959580D02*
X170419166Y-116007200D01*
X170419166Y-116007200D02*
X170323928Y-116054819D01*
X170323928Y-116054819D02*
X170038214Y-116054819D01*
X170038214Y-116054819D02*
X169942976Y-116007200D01*
X169942976Y-116007200D02*
X169895357Y-115959580D01*
X142466666Y-104431009D02*
X142133333Y-104431009D01*
X142133333Y-104954819D02*
X142133333Y-103954819D01*
X142133333Y-103954819D02*
X142609523Y-103954819D01*
X143323809Y-104431009D02*
X143466666Y-104478628D01*
X143466666Y-104478628D02*
X143514285Y-104526247D01*
X143514285Y-104526247D02*
X143561904Y-104621485D01*
X143561904Y-104621485D02*
X143561904Y-104764342D01*
X143561904Y-104764342D02*
X143514285Y-104859580D01*
X143514285Y-104859580D02*
X143466666Y-104907200D01*
X143466666Y-104907200D02*
X143371428Y-104954819D01*
X143371428Y-104954819D02*
X142990476Y-104954819D01*
X142990476Y-104954819D02*
X142990476Y-103954819D01*
X142990476Y-103954819D02*
X143323809Y-103954819D01*
X143323809Y-103954819D02*
X143419047Y-104002438D01*
X143419047Y-104002438D02*
X143466666Y-104050057D01*
X143466666Y-104050057D02*
X143514285Y-104145295D01*
X143514285Y-104145295D02*
X143514285Y-104240533D01*
X143514285Y-104240533D02*
X143466666Y-104335771D01*
X143466666Y-104335771D02*
X143419047Y-104383390D01*
X143419047Y-104383390D02*
X143323809Y-104431009D01*
X143323809Y-104431009D02*
X142990476Y-104431009D01*
X144514285Y-104954819D02*
X143942857Y-104954819D01*
X144228571Y-104954819D02*
X144228571Y-103954819D01*
X144228571Y-103954819D02*
X144133333Y-104097676D01*
X144133333Y-104097676D02*
X144038095Y-104192914D01*
X144038095Y-104192914D02*
X143942857Y-104240533D01*
X158553333Y-110659580D02*
X158505714Y-110707200D01*
X158505714Y-110707200D02*
X158362857Y-110754819D01*
X158362857Y-110754819D02*
X158267619Y-110754819D01*
X158267619Y-110754819D02*
X158124762Y-110707200D01*
X158124762Y-110707200D02*
X158029524Y-110611961D01*
X158029524Y-110611961D02*
X157981905Y-110516723D01*
X157981905Y-110516723D02*
X157934286Y-110326247D01*
X157934286Y-110326247D02*
X157934286Y-110183390D01*
X157934286Y-110183390D02*
X157981905Y-109992914D01*
X157981905Y-109992914D02*
X158029524Y-109897676D01*
X158029524Y-109897676D02*
X158124762Y-109802438D01*
X158124762Y-109802438D02*
X158267619Y-109754819D01*
X158267619Y-109754819D02*
X158362857Y-109754819D01*
X158362857Y-109754819D02*
X158505714Y-109802438D01*
X158505714Y-109802438D02*
X158553333Y-109850057D01*
X159458095Y-109754819D02*
X158981905Y-109754819D01*
X158981905Y-109754819D02*
X158934286Y-110231009D01*
X158934286Y-110231009D02*
X158981905Y-110183390D01*
X158981905Y-110183390D02*
X159077143Y-110135771D01*
X159077143Y-110135771D02*
X159315238Y-110135771D01*
X159315238Y-110135771D02*
X159410476Y-110183390D01*
X159410476Y-110183390D02*
X159458095Y-110231009D01*
X159458095Y-110231009D02*
X159505714Y-110326247D01*
X159505714Y-110326247D02*
X159505714Y-110564342D01*
X159505714Y-110564342D02*
X159458095Y-110659580D01*
X159458095Y-110659580D02*
X159410476Y-110707200D01*
X159410476Y-110707200D02*
X159315238Y-110754819D01*
X159315238Y-110754819D02*
X159077143Y-110754819D01*
X159077143Y-110754819D02*
X158981905Y-110707200D01*
X158981905Y-110707200D02*
X158934286Y-110659580D01*
X164333333Y-118429819D02*
X164000000Y-117953628D01*
X163761905Y-118429819D02*
X163761905Y-117429819D01*
X163761905Y-117429819D02*
X164142857Y-117429819D01*
X164142857Y-117429819D02*
X164238095Y-117477438D01*
X164238095Y-117477438D02*
X164285714Y-117525057D01*
X164285714Y-117525057D02*
X164333333Y-117620295D01*
X164333333Y-117620295D02*
X164333333Y-117763152D01*
X164333333Y-117763152D02*
X164285714Y-117858390D01*
X164285714Y-117858390D02*
X164238095Y-117906009D01*
X164238095Y-117906009D02*
X164142857Y-117953628D01*
X164142857Y-117953628D02*
X163761905Y-117953628D01*
X164714286Y-117525057D02*
X164761905Y-117477438D01*
X164761905Y-117477438D02*
X164857143Y-117429819D01*
X164857143Y-117429819D02*
X165095238Y-117429819D01*
X165095238Y-117429819D02*
X165190476Y-117477438D01*
X165190476Y-117477438D02*
X165238095Y-117525057D01*
X165238095Y-117525057D02*
X165285714Y-117620295D01*
X165285714Y-117620295D02*
X165285714Y-117715533D01*
X165285714Y-117715533D02*
X165238095Y-117858390D01*
X165238095Y-117858390D02*
X164666667Y-118429819D01*
X164666667Y-118429819D02*
X165285714Y-118429819D01*
X150541666Y-105061009D02*
X150208333Y-105061009D01*
X150208333Y-105584819D02*
X150208333Y-104584819D01*
X150208333Y-104584819D02*
X150684523Y-104584819D01*
X151589285Y-105584819D02*
X151017857Y-105584819D01*
X151303571Y-105584819D02*
X151303571Y-104584819D01*
X151303571Y-104584819D02*
X151208333Y-104727676D01*
X151208333Y-104727676D02*
X151113095Y-104822914D01*
X151113095Y-104822914D02*
X151017857Y-104870533D01*
X174986667Y-108507200D02*
X175129524Y-108554819D01*
X175129524Y-108554819D02*
X175367619Y-108554819D01*
X175367619Y-108554819D02*
X175462857Y-108507200D01*
X175462857Y-108507200D02*
X175510476Y-108459580D01*
X175510476Y-108459580D02*
X175558095Y-108364342D01*
X175558095Y-108364342D02*
X175558095Y-108269104D01*
X175558095Y-108269104D02*
X175510476Y-108173866D01*
X175510476Y-108173866D02*
X175462857Y-108126247D01*
X175462857Y-108126247D02*
X175367619Y-108078628D01*
X175367619Y-108078628D02*
X175177143Y-108031009D01*
X175177143Y-108031009D02*
X175081905Y-107983390D01*
X175081905Y-107983390D02*
X175034286Y-107935771D01*
X175034286Y-107935771D02*
X174986667Y-107840533D01*
X174986667Y-107840533D02*
X174986667Y-107745295D01*
X174986667Y-107745295D02*
X175034286Y-107650057D01*
X175034286Y-107650057D02*
X175081905Y-107602438D01*
X175081905Y-107602438D02*
X175177143Y-107554819D01*
X175177143Y-107554819D02*
X175415238Y-107554819D01*
X175415238Y-107554819D02*
X175558095Y-107602438D01*
X175891429Y-107554819D02*
X176129524Y-108554819D01*
X176129524Y-108554819D02*
X176320000Y-107840533D01*
X176320000Y-107840533D02*
X176510476Y-108554819D01*
X176510476Y-108554819D02*
X176748572Y-107554819D01*
X177081905Y-107650057D02*
X177129524Y-107602438D01*
X177129524Y-107602438D02*
X177224762Y-107554819D01*
X177224762Y-107554819D02*
X177462857Y-107554819D01*
X177462857Y-107554819D02*
X177558095Y-107602438D01*
X177558095Y-107602438D02*
X177605714Y-107650057D01*
X177605714Y-107650057D02*
X177653333Y-107745295D01*
X177653333Y-107745295D02*
X177653333Y-107840533D01*
X177653333Y-107840533D02*
X177605714Y-107983390D01*
X177605714Y-107983390D02*
X177034286Y-108554819D01*
X177034286Y-108554819D02*
X177653333Y-108554819D01*
X174867618Y-103554819D02*
X174534285Y-103078628D01*
X174296190Y-103554819D02*
X174296190Y-102554819D01*
X174296190Y-102554819D02*
X174677142Y-102554819D01*
X174677142Y-102554819D02*
X174772380Y-102602438D01*
X174772380Y-102602438D02*
X174819999Y-102650057D01*
X174819999Y-102650057D02*
X174867618Y-102745295D01*
X174867618Y-102745295D02*
X174867618Y-102888152D01*
X174867618Y-102888152D02*
X174819999Y-102983390D01*
X174819999Y-102983390D02*
X174772380Y-103031009D01*
X174772380Y-103031009D02*
X174677142Y-103078628D01*
X174677142Y-103078628D02*
X174296190Y-103078628D01*
X175296190Y-103031009D02*
X175629523Y-103031009D01*
X175772380Y-103554819D02*
X175296190Y-103554819D01*
X175296190Y-103554819D02*
X175296190Y-102554819D01*
X175296190Y-102554819D02*
X175772380Y-102554819D01*
X176153333Y-103507200D02*
X176296190Y-103554819D01*
X176296190Y-103554819D02*
X176534285Y-103554819D01*
X176534285Y-103554819D02*
X176629523Y-103507200D01*
X176629523Y-103507200D02*
X176677142Y-103459580D01*
X176677142Y-103459580D02*
X176724761Y-103364342D01*
X176724761Y-103364342D02*
X176724761Y-103269104D01*
X176724761Y-103269104D02*
X176677142Y-103173866D01*
X176677142Y-103173866D02*
X176629523Y-103126247D01*
X176629523Y-103126247D02*
X176534285Y-103078628D01*
X176534285Y-103078628D02*
X176343809Y-103031009D01*
X176343809Y-103031009D02*
X176248571Y-102983390D01*
X176248571Y-102983390D02*
X176200952Y-102935771D01*
X176200952Y-102935771D02*
X176153333Y-102840533D01*
X176153333Y-102840533D02*
X176153333Y-102745295D01*
X176153333Y-102745295D02*
X176200952Y-102650057D01*
X176200952Y-102650057D02*
X176248571Y-102602438D01*
X176248571Y-102602438D02*
X176343809Y-102554819D01*
X176343809Y-102554819D02*
X176581904Y-102554819D01*
X176581904Y-102554819D02*
X176724761Y-102602438D01*
X177153333Y-103031009D02*
X177486666Y-103031009D01*
X177629523Y-103554819D02*
X177153333Y-103554819D01*
X177153333Y-103554819D02*
X177153333Y-102554819D01*
X177153333Y-102554819D02*
X177629523Y-102554819D01*
X177915238Y-102554819D02*
X178486666Y-102554819D01*
X178200952Y-103554819D02*
X178200952Y-102554819D01*
X169474819Y-103566666D02*
X168998628Y-103899999D01*
X169474819Y-104138094D02*
X168474819Y-104138094D01*
X168474819Y-104138094D02*
X168474819Y-103757142D01*
X168474819Y-103757142D02*
X168522438Y-103661904D01*
X168522438Y-103661904D02*
X168570057Y-103614285D01*
X168570057Y-103614285D02*
X168665295Y-103566666D01*
X168665295Y-103566666D02*
X168808152Y-103566666D01*
X168808152Y-103566666D02*
X168903390Y-103614285D01*
X168903390Y-103614285D02*
X168951009Y-103661904D01*
X168951009Y-103661904D02*
X168998628Y-103757142D01*
X168998628Y-103757142D02*
X168998628Y-104138094D01*
X168808152Y-102709523D02*
X169474819Y-102709523D01*
X168427200Y-102947618D02*
X169141485Y-103185713D01*
X169141485Y-103185713D02*
X169141485Y-102566666D01*
X164258333Y-119854819D02*
X163925000Y-119378628D01*
X163686905Y-119854819D02*
X163686905Y-118854819D01*
X163686905Y-118854819D02*
X164067857Y-118854819D01*
X164067857Y-118854819D02*
X164163095Y-118902438D01*
X164163095Y-118902438D02*
X164210714Y-118950057D01*
X164210714Y-118950057D02*
X164258333Y-119045295D01*
X164258333Y-119045295D02*
X164258333Y-119188152D01*
X164258333Y-119188152D02*
X164210714Y-119283390D01*
X164210714Y-119283390D02*
X164163095Y-119331009D01*
X164163095Y-119331009D02*
X164067857Y-119378628D01*
X164067857Y-119378628D02*
X163686905Y-119378628D01*
X164591667Y-118854819D02*
X165210714Y-118854819D01*
X165210714Y-118854819D02*
X164877381Y-119235771D01*
X164877381Y-119235771D02*
X165020238Y-119235771D01*
X165020238Y-119235771D02*
X165115476Y-119283390D01*
X165115476Y-119283390D02*
X165163095Y-119331009D01*
X165163095Y-119331009D02*
X165210714Y-119426247D01*
X165210714Y-119426247D02*
X165210714Y-119664342D01*
X165210714Y-119664342D02*
X165163095Y-119759580D01*
X165163095Y-119759580D02*
X165115476Y-119807200D01*
X165115476Y-119807200D02*
X165020238Y-119854819D01*
X165020238Y-119854819D02*
X164734524Y-119854819D01*
X164734524Y-119854819D02*
X164639286Y-119807200D01*
X164639286Y-119807200D02*
X164591667Y-119759580D01*
X139054819Y-118066666D02*
X138578628Y-118399999D01*
X139054819Y-118638094D02*
X138054819Y-118638094D01*
X138054819Y-118638094D02*
X138054819Y-118257142D01*
X138054819Y-118257142D02*
X138102438Y-118161904D01*
X138102438Y-118161904D02*
X138150057Y-118114285D01*
X138150057Y-118114285D02*
X138245295Y-118066666D01*
X138245295Y-118066666D02*
X138388152Y-118066666D01*
X138388152Y-118066666D02*
X138483390Y-118114285D01*
X138483390Y-118114285D02*
X138531009Y-118161904D01*
X138531009Y-118161904D02*
X138578628Y-118257142D01*
X138578628Y-118257142D02*
X138578628Y-118638094D01*
X138483390Y-117495237D02*
X138435771Y-117590475D01*
X138435771Y-117590475D02*
X138388152Y-117638094D01*
X138388152Y-117638094D02*
X138292914Y-117685713D01*
X138292914Y-117685713D02*
X138245295Y-117685713D01*
X138245295Y-117685713D02*
X138150057Y-117638094D01*
X138150057Y-117638094D02*
X138102438Y-117590475D01*
X138102438Y-117590475D02*
X138054819Y-117495237D01*
X138054819Y-117495237D02*
X138054819Y-117304761D01*
X138054819Y-117304761D02*
X138102438Y-117209523D01*
X138102438Y-117209523D02*
X138150057Y-117161904D01*
X138150057Y-117161904D02*
X138245295Y-117114285D01*
X138245295Y-117114285D02*
X138292914Y-117114285D01*
X138292914Y-117114285D02*
X138388152Y-117161904D01*
X138388152Y-117161904D02*
X138435771Y-117209523D01*
X138435771Y-117209523D02*
X138483390Y-117304761D01*
X138483390Y-117304761D02*
X138483390Y-117495237D01*
X138483390Y-117495237D02*
X138531009Y-117590475D01*
X138531009Y-117590475D02*
X138578628Y-117638094D01*
X138578628Y-117638094D02*
X138673866Y-117685713D01*
X138673866Y-117685713D02*
X138864342Y-117685713D01*
X138864342Y-117685713D02*
X138959580Y-117638094D01*
X138959580Y-117638094D02*
X139007200Y-117590475D01*
X139007200Y-117590475D02*
X139054819Y-117495237D01*
X139054819Y-117495237D02*
X139054819Y-117304761D01*
X139054819Y-117304761D02*
X139007200Y-117209523D01*
X139007200Y-117209523D02*
X138959580Y-117161904D01*
X138959580Y-117161904D02*
X138864342Y-117114285D01*
X138864342Y-117114285D02*
X138673866Y-117114285D01*
X138673866Y-117114285D02*
X138578628Y-117161904D01*
X138578628Y-117161904D02*
X138531009Y-117209523D01*
X138531009Y-117209523D02*
X138483390Y-117304761D01*
X148359580Y-121966666D02*
X148407200Y-122014285D01*
X148407200Y-122014285D02*
X148454819Y-122157142D01*
X148454819Y-122157142D02*
X148454819Y-122252380D01*
X148454819Y-122252380D02*
X148407200Y-122395237D01*
X148407200Y-122395237D02*
X148311961Y-122490475D01*
X148311961Y-122490475D02*
X148216723Y-122538094D01*
X148216723Y-122538094D02*
X148026247Y-122585713D01*
X148026247Y-122585713D02*
X147883390Y-122585713D01*
X147883390Y-122585713D02*
X147692914Y-122538094D01*
X147692914Y-122538094D02*
X147597676Y-122490475D01*
X147597676Y-122490475D02*
X147502438Y-122395237D01*
X147502438Y-122395237D02*
X147454819Y-122252380D01*
X147454819Y-122252380D02*
X147454819Y-122157142D01*
X147454819Y-122157142D02*
X147502438Y-122014285D01*
X147502438Y-122014285D02*
X147550057Y-121966666D01*
X147454819Y-121109523D02*
X147454819Y-121299999D01*
X147454819Y-121299999D02*
X147502438Y-121395237D01*
X147502438Y-121395237D02*
X147550057Y-121442856D01*
X147550057Y-121442856D02*
X147692914Y-121538094D01*
X147692914Y-121538094D02*
X147883390Y-121585713D01*
X147883390Y-121585713D02*
X148264342Y-121585713D01*
X148264342Y-121585713D02*
X148359580Y-121538094D01*
X148359580Y-121538094D02*
X148407200Y-121490475D01*
X148407200Y-121490475D02*
X148454819Y-121395237D01*
X148454819Y-121395237D02*
X148454819Y-121204761D01*
X148454819Y-121204761D02*
X148407200Y-121109523D01*
X148407200Y-121109523D02*
X148359580Y-121061904D01*
X148359580Y-121061904D02*
X148264342Y-121014285D01*
X148264342Y-121014285D02*
X148026247Y-121014285D01*
X148026247Y-121014285D02*
X147931009Y-121061904D01*
X147931009Y-121061904D02*
X147883390Y-121109523D01*
X147883390Y-121109523D02*
X147835771Y-121204761D01*
X147835771Y-121204761D02*
X147835771Y-121395237D01*
X147835771Y-121395237D02*
X147883390Y-121490475D01*
X147883390Y-121490475D02*
X147931009Y-121538094D01*
X147931009Y-121538094D02*
X148026247Y-121585713D01*
X169349580Y-106666666D02*
X169397200Y-106714285D01*
X169397200Y-106714285D02*
X169444819Y-106857142D01*
X169444819Y-106857142D02*
X169444819Y-106952380D01*
X169444819Y-106952380D02*
X169397200Y-107095237D01*
X169397200Y-107095237D02*
X169301961Y-107190475D01*
X169301961Y-107190475D02*
X169206723Y-107238094D01*
X169206723Y-107238094D02*
X169016247Y-107285713D01*
X169016247Y-107285713D02*
X168873390Y-107285713D01*
X168873390Y-107285713D02*
X168682914Y-107238094D01*
X168682914Y-107238094D02*
X168587676Y-107190475D01*
X168587676Y-107190475D02*
X168492438Y-107095237D01*
X168492438Y-107095237D02*
X168444819Y-106952380D01*
X168444819Y-106952380D02*
X168444819Y-106857142D01*
X168444819Y-106857142D02*
X168492438Y-106714285D01*
X168492438Y-106714285D02*
X168540057Y-106666666D01*
X168778152Y-105809523D02*
X169444819Y-105809523D01*
X168397200Y-106047618D02*
X169111485Y-106285713D01*
X169111485Y-106285713D02*
X169111485Y-105666666D01*
X159483095Y-95504819D02*
X159483095Y-96314342D01*
X159483095Y-96314342D02*
X159530714Y-96409580D01*
X159530714Y-96409580D02*
X159578333Y-96457200D01*
X159578333Y-96457200D02*
X159673571Y-96504819D01*
X159673571Y-96504819D02*
X159864047Y-96504819D01*
X159864047Y-96504819D02*
X159959285Y-96457200D01*
X159959285Y-96457200D02*
X160006904Y-96409580D01*
X160006904Y-96409580D02*
X160054523Y-96314342D01*
X160054523Y-96314342D02*
X160054523Y-95504819D01*
X160959285Y-95838152D02*
X160959285Y-96504819D01*
X160721190Y-95457200D02*
X160483095Y-96171485D01*
X160483095Y-96171485D02*
X161102142Y-96171485D01*
X144059580Y-78866666D02*
X144107200Y-78914285D01*
X144107200Y-78914285D02*
X144154819Y-79057142D01*
X144154819Y-79057142D02*
X144154819Y-79152380D01*
X144154819Y-79152380D02*
X144107200Y-79295237D01*
X144107200Y-79295237D02*
X144011961Y-79390475D01*
X144011961Y-79390475D02*
X143916723Y-79438094D01*
X143916723Y-79438094D02*
X143726247Y-79485713D01*
X143726247Y-79485713D02*
X143583390Y-79485713D01*
X143583390Y-79485713D02*
X143392914Y-79438094D01*
X143392914Y-79438094D02*
X143297676Y-79390475D01*
X143297676Y-79390475D02*
X143202438Y-79295237D01*
X143202438Y-79295237D02*
X143154819Y-79152380D01*
X143154819Y-79152380D02*
X143154819Y-79057142D01*
X143154819Y-79057142D02*
X143202438Y-78914285D01*
X143202438Y-78914285D02*
X143250057Y-78866666D01*
X143250057Y-78485713D02*
X143202438Y-78438094D01*
X143202438Y-78438094D02*
X143154819Y-78342856D01*
X143154819Y-78342856D02*
X143154819Y-78104761D01*
X143154819Y-78104761D02*
X143202438Y-78009523D01*
X143202438Y-78009523D02*
X143250057Y-77961904D01*
X143250057Y-77961904D02*
X143345295Y-77914285D01*
X143345295Y-77914285D02*
X143440533Y-77914285D01*
X143440533Y-77914285D02*
X143583390Y-77961904D01*
X143583390Y-77961904D02*
X144154819Y-78533332D01*
X144154819Y-78533332D02*
X144154819Y-77914285D01*
X170738095Y-76654819D02*
X170738095Y-75654819D01*
X170738095Y-76131009D02*
X171309523Y-76131009D01*
X171309523Y-76654819D02*
X171309523Y-75654819D01*
X171738095Y-75750057D02*
X171785714Y-75702438D01*
X171785714Y-75702438D02*
X171880952Y-75654819D01*
X171880952Y-75654819D02*
X172119047Y-75654819D01*
X172119047Y-75654819D02*
X172214285Y-75702438D01*
X172214285Y-75702438D02*
X172261904Y-75750057D01*
X172261904Y-75750057D02*
X172309523Y-75845295D01*
X172309523Y-75845295D02*
X172309523Y-75940533D01*
X172309523Y-75940533D02*
X172261904Y-76083390D01*
X172261904Y-76083390D02*
X171690476Y-76654819D01*
X171690476Y-76654819D02*
X172309523Y-76654819D01*
X149650833Y-96924819D02*
X149317500Y-96448628D01*
X149079405Y-96924819D02*
X149079405Y-95924819D01*
X149079405Y-95924819D02*
X149460357Y-95924819D01*
X149460357Y-95924819D02*
X149555595Y-95972438D01*
X149555595Y-95972438D02*
X149603214Y-96020057D01*
X149603214Y-96020057D02*
X149650833Y-96115295D01*
X149650833Y-96115295D02*
X149650833Y-96258152D01*
X149650833Y-96258152D02*
X149603214Y-96353390D01*
X149603214Y-96353390D02*
X149555595Y-96401009D01*
X149555595Y-96401009D02*
X149460357Y-96448628D01*
X149460357Y-96448628D02*
X149079405Y-96448628D01*
X150507976Y-95924819D02*
X150317500Y-95924819D01*
X150317500Y-95924819D02*
X150222262Y-95972438D01*
X150222262Y-95972438D02*
X150174643Y-96020057D01*
X150174643Y-96020057D02*
X150079405Y-96162914D01*
X150079405Y-96162914D02*
X150031786Y-96353390D01*
X150031786Y-96353390D02*
X150031786Y-96734342D01*
X150031786Y-96734342D02*
X150079405Y-96829580D01*
X150079405Y-96829580D02*
X150127024Y-96877200D01*
X150127024Y-96877200D02*
X150222262Y-96924819D01*
X150222262Y-96924819D02*
X150412738Y-96924819D01*
X150412738Y-96924819D02*
X150507976Y-96877200D01*
X150507976Y-96877200D02*
X150555595Y-96829580D01*
X150555595Y-96829580D02*
X150603214Y-96734342D01*
X150603214Y-96734342D02*
X150603214Y-96496247D01*
X150603214Y-96496247D02*
X150555595Y-96401009D01*
X150555595Y-96401009D02*
X150507976Y-96353390D01*
X150507976Y-96353390D02*
X150412738Y-96305771D01*
X150412738Y-96305771D02*
X150222262Y-96305771D01*
X150222262Y-96305771D02*
X150127024Y-96353390D01*
X150127024Y-96353390D02*
X150079405Y-96401009D01*
X150079405Y-96401009D02*
X150031786Y-96496247D01*
X158966666Y-115954819D02*
X158966666Y-116669104D01*
X158966666Y-116669104D02*
X158919047Y-116811961D01*
X158919047Y-116811961D02*
X158823809Y-116907200D01*
X158823809Y-116907200D02*
X158680952Y-116954819D01*
X158680952Y-116954819D02*
X158585714Y-116954819D01*
X159966666Y-116954819D02*
X159395238Y-116954819D01*
X159680952Y-116954819D02*
X159680952Y-115954819D01*
X159680952Y-115954819D02*
X159585714Y-116097676D01*
X159585714Y-116097676D02*
X159490476Y-116192914D01*
X159490476Y-116192914D02*
X159395238Y-116240533D01*
X170804819Y-97664166D02*
X170328628Y-97997499D01*
X170804819Y-98235594D02*
X169804819Y-98235594D01*
X169804819Y-98235594D02*
X169804819Y-97854642D01*
X169804819Y-97854642D02*
X169852438Y-97759404D01*
X169852438Y-97759404D02*
X169900057Y-97711785D01*
X169900057Y-97711785D02*
X169995295Y-97664166D01*
X169995295Y-97664166D02*
X170138152Y-97664166D01*
X170138152Y-97664166D02*
X170233390Y-97711785D01*
X170233390Y-97711785D02*
X170281009Y-97759404D01*
X170281009Y-97759404D02*
X170328628Y-97854642D01*
X170328628Y-97854642D02*
X170328628Y-98235594D01*
X170804819Y-96711785D02*
X170804819Y-97283213D01*
X170804819Y-96997499D02*
X169804819Y-96997499D01*
X169804819Y-96997499D02*
X169947676Y-97092737D01*
X169947676Y-97092737D02*
X170042914Y-97187975D01*
X170042914Y-97187975D02*
X170090533Y-97283213D01*
X175517200Y-98233332D02*
X175564819Y-98090475D01*
X175564819Y-98090475D02*
X175564819Y-97852380D01*
X175564819Y-97852380D02*
X175517200Y-97757142D01*
X175517200Y-97757142D02*
X175469580Y-97709523D01*
X175469580Y-97709523D02*
X175374342Y-97661904D01*
X175374342Y-97661904D02*
X175279104Y-97661904D01*
X175279104Y-97661904D02*
X175183866Y-97709523D01*
X175183866Y-97709523D02*
X175136247Y-97757142D01*
X175136247Y-97757142D02*
X175088628Y-97852380D01*
X175088628Y-97852380D02*
X175041009Y-98042856D01*
X175041009Y-98042856D02*
X174993390Y-98138094D01*
X174993390Y-98138094D02*
X174945771Y-98185713D01*
X174945771Y-98185713D02*
X174850533Y-98233332D01*
X174850533Y-98233332D02*
X174755295Y-98233332D01*
X174755295Y-98233332D02*
X174660057Y-98185713D01*
X174660057Y-98185713D02*
X174612438Y-98138094D01*
X174612438Y-98138094D02*
X174564819Y-98042856D01*
X174564819Y-98042856D02*
X174564819Y-97804761D01*
X174564819Y-97804761D02*
X174612438Y-97661904D01*
X174564819Y-97328570D02*
X175564819Y-97090475D01*
X175564819Y-97090475D02*
X174850533Y-96899999D01*
X174850533Y-96899999D02*
X175564819Y-96709523D01*
X175564819Y-96709523D02*
X174564819Y-96471428D01*
X175564819Y-95566666D02*
X175564819Y-96138094D01*
X175564819Y-95852380D02*
X174564819Y-95852380D01*
X174564819Y-95852380D02*
X174707676Y-95947618D01*
X174707676Y-95947618D02*
X174802914Y-96042856D01*
X174802914Y-96042856D02*
X174850533Y-96138094D01*
X164939580Y-99224166D02*
X164987200Y-99271785D01*
X164987200Y-99271785D02*
X165034819Y-99414642D01*
X165034819Y-99414642D02*
X165034819Y-99509880D01*
X165034819Y-99509880D02*
X164987200Y-99652737D01*
X164987200Y-99652737D02*
X164891961Y-99747975D01*
X164891961Y-99747975D02*
X164796723Y-99795594D01*
X164796723Y-99795594D02*
X164606247Y-99843213D01*
X164606247Y-99843213D02*
X164463390Y-99843213D01*
X164463390Y-99843213D02*
X164272914Y-99795594D01*
X164272914Y-99795594D02*
X164177676Y-99747975D01*
X164177676Y-99747975D02*
X164082438Y-99652737D01*
X164082438Y-99652737D02*
X164034819Y-99509880D01*
X164034819Y-99509880D02*
X164034819Y-99414642D01*
X164034819Y-99414642D02*
X164082438Y-99271785D01*
X164082438Y-99271785D02*
X164130057Y-99224166D01*
X164463390Y-98652737D02*
X164415771Y-98747975D01*
X164415771Y-98747975D02*
X164368152Y-98795594D01*
X164368152Y-98795594D02*
X164272914Y-98843213D01*
X164272914Y-98843213D02*
X164225295Y-98843213D01*
X164225295Y-98843213D02*
X164130057Y-98795594D01*
X164130057Y-98795594D02*
X164082438Y-98747975D01*
X164082438Y-98747975D02*
X164034819Y-98652737D01*
X164034819Y-98652737D02*
X164034819Y-98462261D01*
X164034819Y-98462261D02*
X164082438Y-98367023D01*
X164082438Y-98367023D02*
X164130057Y-98319404D01*
X164130057Y-98319404D02*
X164225295Y-98271785D01*
X164225295Y-98271785D02*
X164272914Y-98271785D01*
X164272914Y-98271785D02*
X164368152Y-98319404D01*
X164368152Y-98319404D02*
X164415771Y-98367023D01*
X164415771Y-98367023D02*
X164463390Y-98462261D01*
X164463390Y-98462261D02*
X164463390Y-98652737D01*
X164463390Y-98652737D02*
X164511009Y-98747975D01*
X164511009Y-98747975D02*
X164558628Y-98795594D01*
X164558628Y-98795594D02*
X164653866Y-98843213D01*
X164653866Y-98843213D02*
X164844342Y-98843213D01*
X164844342Y-98843213D02*
X164939580Y-98795594D01*
X164939580Y-98795594D02*
X164987200Y-98747975D01*
X164987200Y-98747975D02*
X165034819Y-98652737D01*
X165034819Y-98652737D02*
X165034819Y-98462261D01*
X165034819Y-98462261D02*
X164987200Y-98367023D01*
X164987200Y-98367023D02*
X164939580Y-98319404D01*
X164939580Y-98319404D02*
X164844342Y-98271785D01*
X164844342Y-98271785D02*
X164653866Y-98271785D01*
X164653866Y-98271785D02*
X164558628Y-98319404D01*
X164558628Y-98319404D02*
X164511009Y-98367023D01*
X164511009Y-98367023D02*
X164463390Y-98462261D01*
X145431905Y-110399819D02*
X145431905Y-109399819D01*
X145431905Y-109399819D02*
X145670000Y-109399819D01*
X145670000Y-109399819D02*
X145812857Y-109447438D01*
X145812857Y-109447438D02*
X145908095Y-109542676D01*
X145908095Y-109542676D02*
X145955714Y-109637914D01*
X145955714Y-109637914D02*
X146003333Y-109828390D01*
X146003333Y-109828390D02*
X146003333Y-109971247D01*
X146003333Y-109971247D02*
X145955714Y-110161723D01*
X145955714Y-110161723D02*
X145908095Y-110256961D01*
X145908095Y-110256961D02*
X145812857Y-110352200D01*
X145812857Y-110352200D02*
X145670000Y-110399819D01*
X145670000Y-110399819D02*
X145431905Y-110399819D01*
X146955714Y-110399819D02*
X146384286Y-110399819D01*
X146670000Y-110399819D02*
X146670000Y-109399819D01*
X146670000Y-109399819D02*
X146574762Y-109542676D01*
X146574762Y-109542676D02*
X146479524Y-109637914D01*
X146479524Y-109637914D02*
X146384286Y-109685533D01*
X150988095Y-110029819D02*
X150988095Y-109029819D01*
X151559523Y-110029819D02*
X151130952Y-109458390D01*
X151559523Y-109029819D02*
X150988095Y-109601247D01*
X167814819Y-87963333D02*
X168529104Y-87963333D01*
X168529104Y-87963333D02*
X168671961Y-88010952D01*
X168671961Y-88010952D02*
X168767200Y-88106190D01*
X168767200Y-88106190D02*
X168814819Y-88249047D01*
X168814819Y-88249047D02*
X168814819Y-88344285D01*
X167910057Y-87534761D02*
X167862438Y-87487142D01*
X167862438Y-87487142D02*
X167814819Y-87391904D01*
X167814819Y-87391904D02*
X167814819Y-87153809D01*
X167814819Y-87153809D02*
X167862438Y-87058571D01*
X167862438Y-87058571D02*
X167910057Y-87010952D01*
X167910057Y-87010952D02*
X168005295Y-86963333D01*
X168005295Y-86963333D02*
X168100533Y-86963333D01*
X168100533Y-86963333D02*
X168243390Y-87010952D01*
X168243390Y-87010952D02*
X168814819Y-87582380D01*
X168814819Y-87582380D02*
X168814819Y-86963333D01*
X168557142Y-112054819D02*
X168223809Y-111578628D01*
X167985714Y-112054819D02*
X167985714Y-111054819D01*
X167985714Y-111054819D02*
X168366666Y-111054819D01*
X168366666Y-111054819D02*
X168461904Y-111102438D01*
X168461904Y-111102438D02*
X168509523Y-111150057D01*
X168509523Y-111150057D02*
X168557142Y-111245295D01*
X168557142Y-111245295D02*
X168557142Y-111388152D01*
X168557142Y-111388152D02*
X168509523Y-111483390D01*
X168509523Y-111483390D02*
X168461904Y-111531009D01*
X168461904Y-111531009D02*
X168366666Y-111578628D01*
X168366666Y-111578628D02*
X167985714Y-111578628D01*
X169509523Y-112054819D02*
X168938095Y-112054819D01*
X169223809Y-112054819D02*
X169223809Y-111054819D01*
X169223809Y-111054819D02*
X169128571Y-111197676D01*
X169128571Y-111197676D02*
X169033333Y-111292914D01*
X169033333Y-111292914D02*
X168938095Y-111340533D01*
X169890476Y-111150057D02*
X169938095Y-111102438D01*
X169938095Y-111102438D02*
X170033333Y-111054819D01*
X170033333Y-111054819D02*
X170271428Y-111054819D01*
X170271428Y-111054819D02*
X170366666Y-111102438D01*
X170366666Y-111102438D02*
X170414285Y-111150057D01*
X170414285Y-111150057D02*
X170461904Y-111245295D01*
X170461904Y-111245295D02*
X170461904Y-111340533D01*
X170461904Y-111340533D02*
X170414285Y-111483390D01*
X170414285Y-111483390D02*
X169842857Y-112054819D01*
X169842857Y-112054819D02*
X170461904Y-112054819D01*
X133866666Y-83854819D02*
X133866666Y-84569104D01*
X133866666Y-84569104D02*
X133819047Y-84711961D01*
X133819047Y-84711961D02*
X133723809Y-84807200D01*
X133723809Y-84807200D02*
X133580952Y-84854819D01*
X133580952Y-84854819D02*
X133485714Y-84854819D01*
X134247619Y-83854819D02*
X134866666Y-83854819D01*
X134866666Y-83854819D02*
X134533333Y-84235771D01*
X134533333Y-84235771D02*
X134676190Y-84235771D01*
X134676190Y-84235771D02*
X134771428Y-84283390D01*
X134771428Y-84283390D02*
X134819047Y-84331009D01*
X134819047Y-84331009D02*
X134866666Y-84426247D01*
X134866666Y-84426247D02*
X134866666Y-84664342D01*
X134866666Y-84664342D02*
X134819047Y-84759580D01*
X134819047Y-84759580D02*
X134771428Y-84807200D01*
X134771428Y-84807200D02*
X134676190Y-84854819D01*
X134676190Y-84854819D02*
X134390476Y-84854819D01*
X134390476Y-84854819D02*
X134295238Y-84807200D01*
X134295238Y-84807200D02*
X134247619Y-84759580D01*
X142134580Y-79366666D02*
X142182200Y-79414285D01*
X142182200Y-79414285D02*
X142229819Y-79557142D01*
X142229819Y-79557142D02*
X142229819Y-79652380D01*
X142229819Y-79652380D02*
X142182200Y-79795237D01*
X142182200Y-79795237D02*
X142086961Y-79890475D01*
X142086961Y-79890475D02*
X141991723Y-79938094D01*
X141991723Y-79938094D02*
X141801247Y-79985713D01*
X141801247Y-79985713D02*
X141658390Y-79985713D01*
X141658390Y-79985713D02*
X141467914Y-79938094D01*
X141467914Y-79938094D02*
X141372676Y-79890475D01*
X141372676Y-79890475D02*
X141277438Y-79795237D01*
X141277438Y-79795237D02*
X141229819Y-79652380D01*
X141229819Y-79652380D02*
X141229819Y-79557142D01*
X141229819Y-79557142D02*
X141277438Y-79414285D01*
X141277438Y-79414285D02*
X141325057Y-79366666D01*
X142229819Y-78414285D02*
X142229819Y-78985713D01*
X142229819Y-78699999D02*
X141229819Y-78699999D01*
X141229819Y-78699999D02*
X141372676Y-78795237D01*
X141372676Y-78795237D02*
X141467914Y-78890475D01*
X141467914Y-78890475D02*
X141515533Y-78985713D01*
X137554819Y-113438094D02*
X136554819Y-113438094D01*
X136554819Y-113438094D02*
X136554819Y-113199999D01*
X136554819Y-113199999D02*
X136602438Y-113057142D01*
X136602438Y-113057142D02*
X136697676Y-112961904D01*
X136697676Y-112961904D02*
X136792914Y-112914285D01*
X136792914Y-112914285D02*
X136983390Y-112866666D01*
X136983390Y-112866666D02*
X137126247Y-112866666D01*
X137126247Y-112866666D02*
X137316723Y-112914285D01*
X137316723Y-112914285D02*
X137411961Y-112961904D01*
X137411961Y-112961904D02*
X137507200Y-113057142D01*
X137507200Y-113057142D02*
X137554819Y-113199999D01*
X137554819Y-113199999D02*
X137554819Y-113438094D01*
X136888152Y-112009523D02*
X137554819Y-112009523D01*
X136507200Y-112247618D02*
X137221485Y-112485713D01*
X137221485Y-112485713D02*
X137221485Y-111866666D01*
X142958095Y-114154819D02*
X142958095Y-114964342D01*
X142958095Y-114964342D02*
X143005714Y-115059580D01*
X143005714Y-115059580D02*
X143053333Y-115107200D01*
X143053333Y-115107200D02*
X143148571Y-115154819D01*
X143148571Y-115154819D02*
X143339047Y-115154819D01*
X143339047Y-115154819D02*
X143434285Y-115107200D01*
X143434285Y-115107200D02*
X143481904Y-115059580D01*
X143481904Y-115059580D02*
X143529523Y-114964342D01*
X143529523Y-114964342D02*
X143529523Y-114154819D01*
X143910476Y-114154819D02*
X144529523Y-114154819D01*
X144529523Y-114154819D02*
X144196190Y-114535771D01*
X144196190Y-114535771D02*
X144339047Y-114535771D01*
X144339047Y-114535771D02*
X144434285Y-114583390D01*
X144434285Y-114583390D02*
X144481904Y-114631009D01*
X144481904Y-114631009D02*
X144529523Y-114726247D01*
X144529523Y-114726247D02*
X144529523Y-114964342D01*
X144529523Y-114964342D02*
X144481904Y-115059580D01*
X144481904Y-115059580D02*
X144434285Y-115107200D01*
X144434285Y-115107200D02*
X144339047Y-115154819D01*
X144339047Y-115154819D02*
X144053333Y-115154819D01*
X144053333Y-115154819D02*
X143958095Y-115107200D01*
X143958095Y-115107200D02*
X143910476Y-115059580D01*
X169949580Y-93741666D02*
X169997200Y-93789285D01*
X169997200Y-93789285D02*
X170044819Y-93932142D01*
X170044819Y-93932142D02*
X170044819Y-94027380D01*
X170044819Y-94027380D02*
X169997200Y-94170237D01*
X169997200Y-94170237D02*
X169901961Y-94265475D01*
X169901961Y-94265475D02*
X169806723Y-94313094D01*
X169806723Y-94313094D02*
X169616247Y-94360713D01*
X169616247Y-94360713D02*
X169473390Y-94360713D01*
X169473390Y-94360713D02*
X169282914Y-94313094D01*
X169282914Y-94313094D02*
X169187676Y-94265475D01*
X169187676Y-94265475D02*
X169092438Y-94170237D01*
X169092438Y-94170237D02*
X169044819Y-94027380D01*
X169044819Y-94027380D02*
X169044819Y-93932142D01*
X169044819Y-93932142D02*
X169092438Y-93789285D01*
X169092438Y-93789285D02*
X169140057Y-93741666D01*
X169044819Y-93408332D02*
X169044819Y-92789285D01*
X169044819Y-92789285D02*
X169425771Y-93122618D01*
X169425771Y-93122618D02*
X169425771Y-92979761D01*
X169425771Y-92979761D02*
X169473390Y-92884523D01*
X169473390Y-92884523D02*
X169521009Y-92836904D01*
X169521009Y-92836904D02*
X169616247Y-92789285D01*
X169616247Y-92789285D02*
X169854342Y-92789285D01*
X169854342Y-92789285D02*
X169949580Y-92836904D01*
X169949580Y-92836904D02*
X169997200Y-92884523D01*
X169997200Y-92884523D02*
X170044819Y-92979761D01*
X170044819Y-92979761D02*
X170044819Y-93265475D01*
X170044819Y-93265475D02*
X169997200Y-93360713D01*
X169997200Y-93360713D02*
X169949580Y-93408332D01*
X137238095Y-76754819D02*
X137238095Y-75754819D01*
X137238095Y-76231009D02*
X137809523Y-76231009D01*
X137809523Y-76754819D02*
X137809523Y-75754819D01*
X138809523Y-76754819D02*
X138238095Y-76754819D01*
X138523809Y-76754819D02*
X138523809Y-75754819D01*
X138523809Y-75754819D02*
X138428571Y-75897676D01*
X138428571Y-75897676D02*
X138333333Y-75992914D01*
X138333333Y-75992914D02*
X138238095Y-76040533D01*
D14*
%TO.C,D6*%
X167680000Y-115010000D02*
X163660000Y-115010000D01*
X163660000Y-112290000D01*
X163960000Y-111990000D01*
X167680000Y-111990000D01*
X167680000Y-115010000D01*
%TO.C,R9*%
X137945000Y-87592621D02*
X137945000Y-87257379D01*
X138705000Y-87592621D02*
X138705000Y-87257379D01*
%TO.C,D2*%
X171120000Y-100180000D02*
X171120000Y-101540000D01*
X171120000Y-101540000D02*
X171920000Y-101540000D01*
X171920000Y-100180000D02*
X171920000Y-101540000D01*
%TO.C,R10*%
X137970000Y-90190121D02*
X137970000Y-89854879D01*
X138730000Y-90190121D02*
X138730000Y-89854879D01*
%TO.C,SW3*%
X174670000Y-110700000D02*
X174670000Y-111000000D01*
X174670000Y-113500000D02*
X174670000Y-113200000D01*
X177970000Y-110700000D02*
X174670000Y-110700000D01*
X177970000Y-111000000D02*
X177970000Y-110700000D01*
X177970000Y-113200000D02*
X177970000Y-113500000D01*
X177970000Y-113500000D02*
X174670000Y-113500000D01*
%TO.C,U1*%
X153040000Y-113400000D02*
X153040000Y-112600000D01*
X153040000Y-113400000D02*
X153040000Y-114200000D01*
X156160000Y-113400000D02*
X156160000Y-112600000D01*
X156160000Y-113400000D02*
X156160000Y-114200000D01*
X153090000Y-114700000D02*
X152760000Y-114940000D01*
X152760000Y-114460000D01*
X153090000Y-114700000D01*
G36*
X153090000Y-114700000D02*
G01*
X152760000Y-114940000D01*
X152760000Y-114460000D01*
X153090000Y-114700000D01*
G37*
%TO.C,U2*%
X145475000Y-67900000D02*
X145475000Y-74100000D01*
X145475000Y-67900000D02*
X163875000Y-67900000D01*
X145475000Y-92750000D02*
X145475000Y-93750000D01*
X145475000Y-93750000D02*
X146975000Y-93750000D01*
X163875000Y-67900000D02*
X163875000Y-74100000D01*
X163875000Y-93750000D02*
X162375000Y-93750000D01*
X163875000Y-93750000D02*
X163875000Y-92750000D01*
X145475000Y-74775000D02*
X144975000Y-74775000D01*
X145475000Y-74275000D01*
X145475000Y-74775000D01*
G36*
X145475000Y-74775000D02*
G01*
X144975000Y-74775000D01*
X145475000Y-74275000D01*
X145475000Y-74775000D01*
G37*
%TO.C,R5*%
X146949879Y-94920000D02*
X147285121Y-94920000D01*
X146949879Y-95680000D02*
X147285121Y-95680000D01*
%TO.C,R11*%
X161940121Y-113845000D02*
X161604879Y-113845000D01*
X161940121Y-114605000D02*
X161604879Y-114605000D01*
%TO.C,D3*%
X172820000Y-105880000D02*
X172820000Y-107240000D01*
X172820000Y-107240000D02*
X173620000Y-107240000D01*
X173620000Y-105880000D02*
X173620000Y-107240000D01*
%TO.C,J4*%
X133380000Y-95760000D02*
X134760000Y-95760000D01*
X133380000Y-97140000D02*
X133380000Y-95760000D01*
X133380000Y-98410000D02*
X133380000Y-108680000D01*
X133380000Y-98410000D02*
X136030000Y-98410000D01*
X133380000Y-108680000D02*
X138680000Y-108680000D01*
X136030000Y-95760000D02*
X138680000Y-95760000D01*
X136030000Y-98410000D02*
X136030000Y-95760000D01*
X138680000Y-95760000D02*
X138680000Y-108680000D01*
%TO.C,C7*%
X143165000Y-121588748D02*
X143165000Y-122111252D01*
X144635000Y-121588748D02*
X144635000Y-122111252D01*
%TO.C,R7*%
X139895000Y-87540121D02*
X139895000Y-87204879D01*
X140655000Y-87540121D02*
X140655000Y-87204879D01*
%TO.C,D5*%
X172720000Y-112280000D02*
X172720000Y-113640000D01*
X172720000Y-113640000D02*
X173520000Y-113640000D01*
X173520000Y-112280000D02*
X173520000Y-113640000D01*
%TO.C,R13*%
X169084879Y-113820000D02*
X169420121Y-113820000D01*
X169084879Y-114580000D02*
X169420121Y-114580000D01*
%TO.C,FB1*%
X143237122Y-102540000D02*
X142437878Y-102540000D01*
X143237122Y-103660000D02*
X142437878Y-103660000D01*
%TO.C,C5*%
X158768335Y-111440000D02*
X158536665Y-111440000D01*
X158768335Y-112160000D02*
X158536665Y-112160000D01*
%TO.C,R2*%
X161982379Y-117495000D02*
X162317621Y-117495000D01*
X161982379Y-118255000D02*
X162317621Y-118255000D01*
%TO.C,F1*%
X151477064Y-102390000D02*
X150272936Y-102390000D01*
X151477064Y-104210000D02*
X150272936Y-104210000D01*
%TO.C,SW2*%
X174670000Y-104200000D02*
X174670000Y-104500000D01*
X174670000Y-107000000D02*
X174670000Y-106700000D01*
X177970000Y-104200000D02*
X174670000Y-104200000D01*
X177970000Y-104500000D02*
X177970000Y-104200000D01*
X177970000Y-106700000D02*
X177970000Y-107000000D01*
X177970000Y-107000000D02*
X174670000Y-107000000D01*
%TO.C,R4*%
X169840000Y-103232379D02*
X169840000Y-103567621D01*
X170600000Y-103232379D02*
X170600000Y-103567621D01*
%TO.C,R3*%
X162004879Y-118945000D02*
X162340121Y-118945000D01*
X162004879Y-119705000D02*
X162340121Y-119705000D01*
D15*
%TO.C,G\u002A\u002A\u002A*%
G36*
X159543470Y-108525942D02*
G01*
X159603878Y-108527187D01*
X159645423Y-108529830D01*
X159672529Y-108534335D01*
X159689619Y-108541166D01*
X159701117Y-108550787D01*
X159701284Y-108550971D01*
X159720716Y-108589573D01*
X159721280Y-108633330D01*
X159702855Y-108669722D01*
X159702441Y-108670139D01*
X159689705Y-108678502D01*
X159668103Y-108684486D01*
X159633529Y-108688453D01*
X159581877Y-108690763D01*
X159509039Y-108691778D01*
X159454711Y-108691915D01*
X159361413Y-108691212D01*
X159293198Y-108688979D01*
X159247467Y-108685028D01*
X159221622Y-108679172D01*
X159214519Y-108674593D01*
X159196503Y-108633604D01*
X159198033Y-108587206D01*
X159218613Y-108548230D01*
X159219424Y-108547405D01*
X159232400Y-108538910D01*
X159254412Y-108532872D01*
X159289638Y-108528913D01*
X159342256Y-108526656D01*
X159416444Y-108525720D01*
X159459775Y-108525630D01*
X159543470Y-108525942D01*
G37*
G36*
X159546914Y-108165913D02*
G01*
X159615903Y-108168347D01*
X159664345Y-108173749D01*
X159695819Y-108183218D01*
X159713903Y-108197855D01*
X159722175Y-108218760D01*
X159724214Y-108247033D01*
X159724217Y-108248489D01*
X159722373Y-108277117D01*
X159714456Y-108298329D01*
X159696888Y-108313223D01*
X159666091Y-108322900D01*
X159618485Y-108328460D01*
X159550492Y-108331003D01*
X159458535Y-108331630D01*
X159453800Y-108331631D01*
X159369573Y-108331468D01*
X159308715Y-108330621D01*
X159266882Y-108328551D01*
X159239727Y-108324718D01*
X159222906Y-108318586D01*
X159212075Y-108309614D01*
X159205363Y-108300833D01*
X159188975Y-108269864D01*
X159183791Y-108248489D01*
X159191373Y-108221294D01*
X159205363Y-108196144D01*
X159214559Y-108184725D01*
X159226531Y-108176544D01*
X159245622Y-108171062D01*
X159276178Y-108167740D01*
X159322543Y-108166040D01*
X159389063Y-108165422D01*
X159453800Y-108165346D01*
X159546914Y-108165913D01*
G37*
G36*
X162179545Y-107662199D02*
G01*
X162247029Y-107696237D01*
X162278312Y-107723054D01*
X162307408Y-107753406D01*
X162323148Y-107777380D01*
X162328921Y-107805071D01*
X162328120Y-107846573D01*
X162326834Y-107867489D01*
X162322229Y-107918462D01*
X162313076Y-107953212D01*
X162294354Y-107983226D01*
X162261037Y-108019990D01*
X162259398Y-108021693D01*
X162227398Y-108055722D01*
X162213410Y-108073940D01*
X162215721Y-108080002D01*
X162232615Y-108077562D01*
X162233262Y-108077412D01*
X162277971Y-108078505D01*
X162311188Y-108100885D01*
X162326663Y-108139273D01*
X162326659Y-108156284D01*
X162322417Y-108199989D01*
X162152915Y-108206917D01*
X162084481Y-108209041D01*
X162023950Y-108209680D01*
X161977946Y-108208847D01*
X161953271Y-108206596D01*
X161923114Y-108186701D01*
X161908554Y-108150943D01*
X161910576Y-108120111D01*
X161924198Y-108102419D01*
X161955981Y-108073944D01*
X162000827Y-108038971D01*
X162041508Y-108010000D01*
X162094199Y-107971863D01*
X162138898Y-107935713D01*
X162170024Y-107906287D01*
X162181067Y-107891560D01*
X162188323Y-107852434D01*
X162171554Y-107825047D01*
X162133059Y-107812467D01*
X162121489Y-107811991D01*
X162092926Y-107814288D01*
X162073609Y-107825232D01*
X162057328Y-107850908D01*
X162040124Y-107891669D01*
X162021117Y-107920758D01*
X161989719Y-107929699D01*
X161984912Y-107929776D01*
X161944418Y-107921882D01*
X161921808Y-107896435D01*
X161915414Y-107850793D01*
X161917407Y-107822748D01*
X161928127Y-107772870D01*
X161951750Y-107734733D01*
X161973507Y-107712841D01*
X162038209Y-107670348D01*
X162108413Y-107653519D01*
X162179545Y-107662199D01*
G37*
G36*
X160324970Y-104904111D02*
G01*
X160427596Y-104932873D01*
X160526240Y-104985365D01*
X160589903Y-105035713D01*
X160666655Y-105123227D01*
X160720944Y-105222149D01*
X160753018Y-105328519D01*
X160763127Y-105438374D01*
X160751522Y-105547753D01*
X160718453Y-105652694D01*
X160664168Y-105749237D01*
X160588918Y-105833418D01*
X160537029Y-105874154D01*
X160438780Y-105925405D01*
X160328780Y-105954686D01*
X160213177Y-105961186D01*
X160098119Y-105944097D01*
X160069382Y-105935794D01*
X159962248Y-105887685D01*
X159871343Y-105818542D01*
X159798851Y-105731221D01*
X159746954Y-105628579D01*
X159717833Y-105513473D01*
X159713668Y-105472789D01*
X159863871Y-105472789D01*
X159882014Y-105560160D01*
X159920492Y-105641349D01*
X159979376Y-105712294D01*
X160058739Y-105768934D01*
X160063715Y-105771561D01*
X160108636Y-105792397D01*
X160151530Y-105808490D01*
X160160714Y-105811158D01*
X160213406Y-105817031D01*
X160278697Y-105813602D01*
X160343572Y-105802142D01*
X160383223Y-105789420D01*
X160442850Y-105753984D01*
X160502342Y-105700937D01*
X160552941Y-105639007D01*
X160578465Y-105594861D01*
X160599432Y-105538263D01*
X160609129Y-105477191D01*
X160610629Y-105428576D01*
X160598470Y-105323429D01*
X160562754Y-105232446D01*
X160504038Y-105156563D01*
X160422881Y-105096715D01*
X160407962Y-105088746D01*
X160335353Y-105063538D01*
X160251973Y-105053074D01*
X160168144Y-105057458D01*
X160094186Y-105076795D01*
X160075709Y-105085399D01*
X159993238Y-105142742D01*
X159930748Y-105214214D01*
X159888309Y-105295755D01*
X159865993Y-105383300D01*
X159863871Y-105472789D01*
X159713668Y-105472789D01*
X159713363Y-105469805D01*
X159717856Y-105351350D01*
X159745162Y-105243355D01*
X159792303Y-105147294D01*
X159856303Y-105064641D01*
X159934183Y-104996871D01*
X160022968Y-104945459D01*
X160119679Y-104911878D01*
X160221339Y-104897604D01*
X160324970Y-104904111D01*
G37*
G36*
X161450480Y-107910701D02*
G01*
X161496304Y-107915989D01*
X161534586Y-107927225D01*
X161575378Y-107946392D01*
X161575794Y-107946611D01*
X161645650Y-107991950D01*
X161693679Y-108042148D01*
X161717457Y-108094363D01*
X161719634Y-108115138D01*
X161711853Y-108160729D01*
X161686564Y-108185715D01*
X161642775Y-108193060D01*
X161600994Y-108183454D01*
X161557286Y-108152205D01*
X161550258Y-108145555D01*
X161486344Y-108099751D01*
X161415526Y-108077001D01*
X161344004Y-108079154D01*
X161335101Y-108081326D01*
X161283248Y-108098822D01*
X161244045Y-108122060D01*
X161215820Y-108154803D01*
X161196901Y-108200812D01*
X161185616Y-108263847D01*
X161180295Y-108347672D01*
X161179209Y-108432140D01*
X161179519Y-108511682D01*
X161180900Y-108568818D01*
X161184025Y-108608854D01*
X161189571Y-108637093D01*
X161198211Y-108658843D01*
X161210620Y-108679408D01*
X161210663Y-108679473D01*
X161259910Y-108731109D01*
X161321031Y-108762351D01*
X161387897Y-108773007D01*
X161454376Y-108762886D01*
X161514338Y-108731796D01*
X161554566Y-108690206D01*
X161584965Y-108659960D01*
X161623417Y-108650416D01*
X161628359Y-108650343D01*
X161673088Y-108660528D01*
X161706075Y-108686884D01*
X161719606Y-108723110D01*
X161719634Y-108724872D01*
X161706846Y-108774317D01*
X161671665Y-108824806D01*
X161618871Y-108871916D01*
X161553240Y-108911224D01*
X161493138Y-108934550D01*
X161431226Y-108949651D01*
X161378356Y-108952827D01*
X161320759Y-108944162D01*
X161287338Y-108935807D01*
X161194865Y-108897896D01*
X161115098Y-108839415D01*
X161052931Y-108764745D01*
X161018837Y-108695407D01*
X161010136Y-108654819D01*
X161003940Y-108593313D01*
X161000243Y-108517570D01*
X160999037Y-108434271D01*
X161000313Y-108350099D01*
X161004065Y-108271735D01*
X161010284Y-108205859D01*
X161018964Y-108159155D01*
X161019454Y-108157468D01*
X161059227Y-108071418D01*
X161121936Y-107998923D01*
X161197932Y-107946815D01*
X161238931Y-107927474D01*
X161277173Y-107916117D01*
X161322730Y-107910750D01*
X161385672Y-107909380D01*
X161387065Y-107909379D01*
X161450480Y-107910701D01*
G37*
G36*
X158668588Y-107694324D02*
G01*
X158766127Y-107695025D01*
X158841606Y-107696833D01*
X158897854Y-107700270D01*
X158937696Y-107705859D01*
X158963961Y-107714121D01*
X158979476Y-107725580D01*
X158987067Y-107740757D01*
X158989563Y-107760176D01*
X158989792Y-107776190D01*
X158988567Y-107801171D01*
X158982861Y-107820666D01*
X158969626Y-107835355D01*
X158945816Y-107845913D01*
X158908384Y-107853020D01*
X158854282Y-107857351D01*
X158780464Y-107859586D01*
X158683884Y-107860401D01*
X158610694Y-107860491D01*
X158282278Y-107860491D01*
X158286144Y-108044097D01*
X158290011Y-108227703D01*
X158539053Y-108234631D01*
X158627608Y-108237184D01*
X158692496Y-108239599D01*
X158737753Y-108242508D01*
X158767415Y-108246539D01*
X158785519Y-108252324D01*
X158796100Y-108260490D01*
X158803195Y-108271669D01*
X158805498Y-108276203D01*
X158815862Y-108311962D01*
X158814877Y-108338559D01*
X158806641Y-108359999D01*
X158793565Y-108375903D01*
X158771832Y-108387086D01*
X158737626Y-108394364D01*
X158687129Y-108398551D01*
X158616527Y-108400464D01*
X158522932Y-108400916D01*
X158283082Y-108400916D01*
X158283082Y-108587745D01*
X158283082Y-108774573D01*
X158625522Y-108778279D01*
X158967961Y-108781986D01*
X158989270Y-108820092D01*
X159002752Y-108850239D01*
X159000049Y-108874765D01*
X158989267Y-108896306D01*
X158967957Y-108934413D01*
X158563896Y-108938086D01*
X158447583Y-108939097D01*
X158355808Y-108939642D01*
X158285399Y-108939525D01*
X158233180Y-108938548D01*
X158195979Y-108936514D01*
X158170621Y-108933226D01*
X158153933Y-108928487D01*
X158142741Y-108922099D01*
X158133870Y-108913866D01*
X158131388Y-108911223D01*
X158124326Y-108902852D01*
X158118542Y-108892592D01*
X158113906Y-108877793D01*
X158110293Y-108855804D01*
X158107575Y-108823974D01*
X158105624Y-108779652D01*
X158104315Y-108720187D01*
X158103519Y-108642928D01*
X158103110Y-108545226D01*
X158102959Y-108424427D01*
X158102940Y-108318244D01*
X158103055Y-108176087D01*
X158103461Y-108059077D01*
X158104252Y-107964647D01*
X158105521Y-107890233D01*
X158107361Y-107833266D01*
X158109866Y-107791182D01*
X158113130Y-107761413D01*
X158117244Y-107741394D01*
X158122303Y-107728558D01*
X158124512Y-107725003D01*
X158131325Y-107716103D01*
X158139948Y-107709107D01*
X158153522Y-107703787D01*
X158175185Y-107699913D01*
X158208078Y-107697255D01*
X158255341Y-107695586D01*
X158320112Y-107694674D01*
X158405532Y-107694291D01*
X158514741Y-107694207D01*
X158546162Y-107694206D01*
X158668588Y-107694324D01*
G37*
G36*
X160727078Y-107920022D02*
G01*
X160756937Y-107949179D01*
X160762866Y-107961369D01*
X160767538Y-107979744D01*
X160771057Y-108007196D01*
X160773524Y-108046615D01*
X160775042Y-108100891D01*
X160775715Y-108172915D01*
X160775643Y-108265577D01*
X160774931Y-108381767D01*
X160774433Y-108442015D01*
X160773270Y-108567287D01*
X160772071Y-108667738D01*
X160770651Y-108746261D01*
X160768823Y-108805749D01*
X160766400Y-108849096D01*
X160763196Y-108879193D01*
X160759026Y-108898934D01*
X160753701Y-108911212D01*
X160747037Y-108918920D01*
X160743527Y-108921686D01*
X160697251Y-108939941D01*
X160649287Y-108932310D01*
X160631039Y-108921697D01*
X160622398Y-108913661D01*
X160615685Y-108901412D01*
X160610552Y-108881436D01*
X160606651Y-108850224D01*
X160603635Y-108804262D01*
X160601156Y-108740039D01*
X160598866Y-108654044D01*
X160597212Y-108580051D01*
X160590283Y-108258050D01*
X160500562Y-108385429D01*
X160448056Y-108455869D01*
X160404630Y-108501686D01*
X160366584Y-108522847D01*
X160330218Y-108519319D01*
X160291832Y-108491069D01*
X160247725Y-108438066D01*
X160209214Y-108382869D01*
X160133000Y-108269274D01*
X160126072Y-108585664D01*
X160123687Y-108687769D01*
X160121347Y-108765708D01*
X160118696Y-108823028D01*
X160115376Y-108863276D01*
X160111031Y-108889995D01*
X160105302Y-108906734D01*
X160097835Y-108917037D01*
X160092245Y-108921698D01*
X160046856Y-108939842D01*
X160000971Y-108932673D01*
X159973644Y-108913628D01*
X159966110Y-108905029D01*
X159960081Y-108893957D01*
X159955393Y-108877464D01*
X159951880Y-108852606D01*
X159949375Y-108816438D01*
X159947713Y-108766015D01*
X159946728Y-108698391D01*
X159946253Y-108610620D01*
X159946125Y-108499759D01*
X159946142Y-108425166D01*
X159946489Y-108314477D01*
X159947377Y-108212428D01*
X159948732Y-108122382D01*
X159950482Y-108047698D01*
X159952551Y-107991737D01*
X159954868Y-107957861D01*
X159956535Y-107949172D01*
X159976157Y-107931069D01*
X159996987Y-107917991D01*
X160023155Y-107908957D01*
X160049346Y-107911889D01*
X160078329Y-107929083D01*
X160112870Y-107962832D01*
X160155737Y-108015430D01*
X160209698Y-108089171D01*
X160218487Y-108101584D01*
X160261286Y-108161525D01*
X160298657Y-108212571D01*
X160327657Y-108250802D01*
X160345342Y-108272297D01*
X160349134Y-108275566D01*
X160359771Y-108265220D01*
X160383707Y-108236254D01*
X160417948Y-108192466D01*
X160459497Y-108137654D01*
X160485332Y-108102893D01*
X160531472Y-108041810D01*
X160573984Y-107988153D01*
X160609308Y-107946222D01*
X160633884Y-107920317D01*
X160641165Y-107914644D01*
X160684164Y-107905843D01*
X160727078Y-107920022D01*
G37*
G36*
X158830126Y-103430139D02*
G01*
X158926141Y-103443180D01*
X158944061Y-103446876D01*
X159107254Y-103492343D01*
X159283149Y-103559295D01*
X159468900Y-103646276D01*
X159661665Y-103751826D01*
X159858598Y-103874488D01*
X160056857Y-104012803D01*
X160077022Y-104027719D01*
X160136128Y-104071229D01*
X160188323Y-104108824D01*
X160229126Y-104137339D01*
X160254056Y-104153607D01*
X160258568Y-104155971D01*
X160277984Y-104151546D01*
X160311822Y-104133204D01*
X160353197Y-104104750D01*
X160358517Y-104100702D01*
X160478710Y-104014004D01*
X160617489Y-103923773D01*
X160767016Y-103834832D01*
X160919453Y-103752001D01*
X160954031Y-103734357D01*
X161034466Y-103693189D01*
X161092713Y-103661629D01*
X161131789Y-103637757D01*
X161154708Y-103619655D01*
X161164487Y-103605403D01*
X161165403Y-103599818D01*
X161177850Y-103552269D01*
X161210975Y-103505016D01*
X161258708Y-103465602D01*
X161284438Y-103451941D01*
X161358581Y-103432159D01*
X161428729Y-103439560D01*
X161493296Y-103473919D01*
X161504295Y-103483030D01*
X161536946Y-103508113D01*
X161566256Y-103517515D01*
X161606485Y-103515393D01*
X161612550Y-103514585D01*
X161675502Y-103512694D01*
X161750992Y-103520170D01*
X161827194Y-103535046D01*
X161892281Y-103555358D01*
X161912214Y-103564388D01*
X161994842Y-103621776D01*
X162058197Y-103697759D01*
X162102249Y-103790986D01*
X162126965Y-103900105D01*
X162132316Y-104023766D01*
X162118268Y-104160615D01*
X162084791Y-104309303D01*
X162031853Y-104468478D01*
X161959423Y-104636788D01*
X161938186Y-104680294D01*
X161853236Y-104840121D01*
X161756925Y-105003881D01*
X161656422Y-105159711D01*
X161598300Y-105242798D01*
X161559975Y-105295904D01*
X161527286Y-105341556D01*
X161503891Y-105374623D01*
X161493737Y-105389492D01*
X161497948Y-105406017D01*
X161516608Y-105440850D01*
X161547429Y-105490211D01*
X161588121Y-105550319D01*
X161608597Y-105579244D01*
X161761955Y-105803695D01*
X161891374Y-106015845D01*
X161996804Y-106215557D01*
X162078196Y-106402696D01*
X162135501Y-106577123D01*
X162168669Y-106738704D01*
X162177653Y-106887301D01*
X162162402Y-107022777D01*
X162148103Y-107077867D01*
X162105352Y-107172762D01*
X162041809Y-107249915D01*
X161958649Y-107308483D01*
X161857046Y-107347621D01*
X161747286Y-107365823D01*
X161694431Y-107368703D01*
X161648110Y-107368985D01*
X161622635Y-107367129D01*
X161497341Y-107343651D01*
X161387258Y-107316892D01*
X161281710Y-107283642D01*
X161170022Y-107240691D01*
X161093718Y-107208093D01*
X160976881Y-107152368D01*
X160846029Y-107082439D01*
X160707967Y-107002398D01*
X160569497Y-106916335D01*
X160437425Y-106828342D01*
X160318553Y-106742509D01*
X160315308Y-106740046D01*
X160220475Y-106667929D01*
X160100524Y-106756949D01*
X159943319Y-106868127D01*
X159781002Y-106972718D01*
X159618308Y-107068100D01*
X159459973Y-107151651D01*
X159310730Y-107220749D01*
X159175317Y-107272773D01*
X159159524Y-107277969D01*
X158999141Y-107321498D01*
X158854580Y-107343793D01*
X158726276Y-107344892D01*
X158614662Y-107324833D01*
X158520174Y-107283655D01*
X158443247Y-107221397D01*
X158436028Y-107213438D01*
X158381246Y-107135016D01*
X158345519Y-107044848D01*
X158328800Y-106941333D01*
X158330285Y-106862782D01*
X158485271Y-106862782D01*
X158485490Y-106932235D01*
X158488273Y-106981339D01*
X158494673Y-107017417D01*
X158505747Y-107047792D01*
X158514390Y-107065057D01*
X158563550Y-107129678D01*
X158630904Y-107173438D01*
X158656025Y-107182988D01*
X158702746Y-107190764D01*
X158768969Y-107191864D01*
X158847461Y-107186912D01*
X158930989Y-107176533D01*
X159012318Y-107161349D01*
X159066006Y-107147630D01*
X159189291Y-107104978D01*
X159326914Y-107046020D01*
X159473267Y-106973690D01*
X159622741Y-106890923D01*
X159769729Y-106800653D01*
X159904096Y-106709081D01*
X159974043Y-106658847D01*
X160024214Y-106622406D01*
X160057028Y-106596953D01*
X160073552Y-106580984D01*
X160343524Y-106580984D01*
X160494618Y-106685262D01*
X160683432Y-106809907D01*
X160867343Y-106920166D01*
X161043958Y-107014884D01*
X161210885Y-107092908D01*
X161365731Y-107153086D01*
X161506104Y-107194261D01*
X161581064Y-107209159D01*
X161677249Y-107216423D01*
X161770892Y-107209200D01*
X161851818Y-107188421D01*
X161864496Y-107183204D01*
X161931041Y-107142511D01*
X161978839Y-107086368D01*
X162009118Y-107012395D01*
X162023103Y-106918211D01*
X162024412Y-106872591D01*
X162014056Y-106741018D01*
X161983775Y-106596736D01*
X161935056Y-106444631D01*
X161869386Y-106289589D01*
X161814516Y-106182636D01*
X161773093Y-106109828D01*
X161725291Y-106029563D01*
X161673401Y-105945313D01*
X161619708Y-105860548D01*
X161566503Y-105778739D01*
X161516072Y-105703355D01*
X161470705Y-105637868D01*
X161432689Y-105585749D01*
X161404313Y-105550467D01*
X161387864Y-105535493D01*
X161387841Y-105535484D01*
X161374067Y-105543201D01*
X161351059Y-105567266D01*
X161337739Y-105583984D01*
X161287589Y-105646406D01*
X161220313Y-105723907D01*
X161139337Y-105812973D01*
X161048087Y-105910087D01*
X160949988Y-106011734D01*
X160848464Y-106114400D01*
X160746943Y-106214570D01*
X160648848Y-106308727D01*
X160557605Y-106393357D01*
X160493284Y-106450592D01*
X160449765Y-106488435D01*
X160405449Y-106527011D01*
X160390690Y-106539870D01*
X160343524Y-106580984D01*
X160073552Y-106580984D01*
X160074900Y-106579681D01*
X160080249Y-106567784D01*
X160076045Y-106559543D01*
X160320071Y-106559543D01*
X160328323Y-106571245D01*
X160347260Y-106564768D01*
X160360737Y-106552088D01*
X160368857Y-106538235D01*
X160354928Y-106538275D01*
X160348577Y-106539847D01*
X160325694Y-106550794D01*
X160320071Y-106559543D01*
X160076045Y-106559543D01*
X160075491Y-106558456D01*
X160063043Y-106548891D01*
X160049950Y-106539751D01*
X160008365Y-106506553D01*
X159950586Y-106456409D01*
X159879689Y-106392292D01*
X159798748Y-106317177D01*
X159710837Y-106234037D01*
X159619033Y-106145845D01*
X159526408Y-106055576D01*
X159436039Y-105966204D01*
X159350999Y-105880701D01*
X159274364Y-105802043D01*
X159209209Y-105733203D01*
X159161471Y-105680439D01*
X159078774Y-105585876D01*
X158988486Y-105715082D01*
X158946468Y-105776105D01*
X158905282Y-105837456D01*
X158870625Y-105890572D01*
X158853789Y-105917465D01*
X158829753Y-105958671D01*
X158818865Y-105985235D01*
X158819325Y-106005855D01*
X158829338Y-106029228D01*
X158830301Y-106031097D01*
X158851117Y-106098723D01*
X158848868Y-106168936D01*
X158826411Y-106235921D01*
X158786601Y-106293860D01*
X158732293Y-106336938D01*
X158669397Y-106358876D01*
X158642834Y-106364551D01*
X158621969Y-106374603D01*
X158604267Y-106393085D01*
X158587192Y-106424049D01*
X158568211Y-106471549D01*
X158544789Y-106539637D01*
X158531916Y-106578712D01*
X158509609Y-106651130D01*
X158495808Y-106710321D01*
X158488475Y-106768688D01*
X158485574Y-106838635D01*
X158485271Y-106862782D01*
X158330285Y-106862782D01*
X158331040Y-106822874D01*
X158352190Y-106687873D01*
X158392200Y-106534733D01*
X158413205Y-106468845D01*
X158443925Y-106376630D01*
X158463436Y-106376630D01*
X158465082Y-106401293D01*
X158470028Y-106399556D01*
X158477558Y-106372442D01*
X158482000Y-106350071D01*
X158485800Y-106320814D01*
X158481517Y-106316833D01*
X158477274Y-106322356D01*
X158466265Y-106352551D01*
X158463436Y-106376630D01*
X158443925Y-106376630D01*
X158472887Y-106289692D01*
X158471545Y-106287714D01*
X158490938Y-106287714D01*
X158497867Y-106294642D01*
X158504795Y-106287714D01*
X158497867Y-106280785D01*
X158490938Y-106287714D01*
X158471545Y-106287714D01*
X158440341Y-106241734D01*
X158412882Y-106177697D01*
X158411038Y-106110426D01*
X158524181Y-106110426D01*
X158524424Y-106157198D01*
X158547372Y-106202703D01*
X158586619Y-106232903D01*
X158634567Y-106239030D01*
X158686210Y-106221097D01*
X158712860Y-106202270D01*
X158741264Y-106174254D01*
X158750883Y-106149186D01*
X158748401Y-106123501D01*
X158728251Y-106070917D01*
X158692314Y-106040719D01*
X158640588Y-106031358D01*
X158585267Y-106041984D01*
X158545463Y-106070180D01*
X158524181Y-106110426D01*
X158411038Y-106110426D01*
X158410939Y-106106799D01*
X158434596Y-106033190D01*
X158436069Y-106030262D01*
X158481384Y-105970346D01*
X158545694Y-105930372D01*
X158616490Y-105912199D01*
X158655539Y-105904543D01*
X158681962Y-105889836D01*
X158705825Y-105860977D01*
X158719716Y-105839387D01*
X158743052Y-105803321D01*
X158777885Y-105751304D01*
X158819698Y-105690005D01*
X158863975Y-105626095D01*
X158868667Y-105619386D01*
X158977586Y-105463769D01*
X158977081Y-105463076D01*
X159183791Y-105463076D01*
X159193433Y-105482810D01*
X159220826Y-105519259D01*
X159263670Y-105570007D01*
X159319663Y-105632637D01*
X159386507Y-105704732D01*
X159461899Y-105783876D01*
X159543542Y-105867653D01*
X159629133Y-105953646D01*
X159716373Y-106039437D01*
X159802961Y-106122611D01*
X159881524Y-106196083D01*
X159973086Y-106280041D01*
X160046779Y-106346565D01*
X160104777Y-106397364D01*
X160149252Y-106434145D01*
X160182377Y-106458616D01*
X160206326Y-106472486D01*
X160223271Y-106477463D01*
X160235386Y-106475255D01*
X160236164Y-106474845D01*
X160254198Y-106461624D01*
X160288388Y-106433798D01*
X160334172Y-106395172D01*
X160386990Y-106349549D01*
X160398835Y-106339185D01*
X160467484Y-106276553D01*
X160550432Y-106196936D01*
X160643830Y-106104294D01*
X160743830Y-106002589D01*
X160846584Y-105895782D01*
X160948244Y-105787834D01*
X161044962Y-105682707D01*
X161132891Y-105584361D01*
X161140419Y-105575775D01*
X161196621Y-105510916D01*
X161236242Y-105463254D01*
X161261467Y-105429600D01*
X161274487Y-105406763D01*
X161277489Y-105391551D01*
X161273461Y-105381776D01*
X161200422Y-105290226D01*
X161111722Y-105186620D01*
X161011141Y-105074814D01*
X160902463Y-104958665D01*
X160789469Y-104842028D01*
X160675942Y-104728760D01*
X160565662Y-104622717D01*
X160462413Y-104527754D01*
X160369976Y-104447729D01*
X160311506Y-104400966D01*
X160264642Y-104365221D01*
X160219607Y-104399648D01*
X160162228Y-104445887D01*
X160090187Y-104507603D01*
X160008207Y-104580465D01*
X159921009Y-104660141D01*
X159833314Y-104742301D01*
X159749845Y-104822611D01*
X159675323Y-104896743D01*
X159654738Y-104917831D01*
X159600711Y-104974760D01*
X159540862Y-105039693D01*
X159477953Y-105109434D01*
X159414746Y-105180785D01*
X159354002Y-105250548D01*
X159298484Y-105315526D01*
X159250954Y-105372521D01*
X159214172Y-105418336D01*
X159190901Y-105449773D01*
X159183791Y-105463076D01*
X158977081Y-105463076D01*
X158841654Y-105277182D01*
X158686644Y-105054467D01*
X158555504Y-104844540D01*
X158447870Y-104646746D01*
X158363376Y-104460430D01*
X158319230Y-104340796D01*
X158282211Y-104219262D01*
X158258062Y-104113099D01*
X158245414Y-104013900D01*
X158242898Y-103913260D01*
X158243803Y-103885792D01*
X158390159Y-103885792D01*
X158391073Y-103973514D01*
X158400011Y-104065137D01*
X158416845Y-104153157D01*
X158419839Y-104164818D01*
X158455667Y-104278420D01*
X158505549Y-104405942D01*
X158566145Y-104539731D01*
X158634114Y-104672134D01*
X158666135Y-104729086D01*
X158720110Y-104820023D01*
X158776782Y-104911526D01*
X158834158Y-105000750D01*
X158890241Y-105084853D01*
X158943036Y-105160991D01*
X158990549Y-105226318D01*
X159030784Y-105277991D01*
X159061746Y-105313167D01*
X159081439Y-105329002D01*
X159086677Y-105328519D01*
X159098200Y-105314787D01*
X159124426Y-105283569D01*
X159162224Y-105238590D01*
X159208462Y-105183578D01*
X159247132Y-105137577D01*
X159346271Y-105024122D01*
X159461055Y-104900239D01*
X159585294Y-104772149D01*
X159712800Y-104646069D01*
X159837384Y-104528218D01*
X159952857Y-104424815D01*
X159977506Y-104403705D01*
X160037891Y-104353357D01*
X160081625Y-104315716D01*
X160108079Y-104286621D01*
X160114074Y-104269275D01*
X160403213Y-104269275D01*
X160413238Y-104282439D01*
X160440365Y-104308921D01*
X160480175Y-104344578D01*
X160517534Y-104376386D01*
X160575156Y-104426811D01*
X160647443Y-104493742D01*
X160730421Y-104573174D01*
X160820114Y-104661102D01*
X160912548Y-104753523D01*
X161003749Y-104846432D01*
X161089741Y-104935825D01*
X161166550Y-105017697D01*
X161230202Y-105088045D01*
X161269352Y-105133789D01*
X161312063Y-105184895D01*
X161348723Y-105227158D01*
X161375681Y-105256480D01*
X161389282Y-105268761D01*
X161389790Y-105268896D01*
X161400036Y-105257982D01*
X161423015Y-105227345D01*
X161456279Y-105180446D01*
X161497380Y-105120750D01*
X161543872Y-105051719D01*
X161553538Y-105037195D01*
X161678240Y-104839002D01*
X161781989Y-104651748D01*
X161864450Y-104476281D01*
X161925288Y-104313455D01*
X161964167Y-104164118D01*
X161980752Y-104029123D01*
X161979800Y-103954474D01*
X161962968Y-103856103D01*
X161927774Y-103778311D01*
X161873741Y-103720666D01*
X161800392Y-103682739D01*
X161707250Y-103664100D01*
X161655283Y-103661877D01*
X161613295Y-103662909D01*
X161588451Y-103670285D01*
X161570774Y-103690246D01*
X161551355Y-103726901D01*
X161514096Y-103787008D01*
X161471522Y-103823652D01*
X161417233Y-103841062D01*
X161374088Y-103844059D01*
X161315443Y-103839544D01*
X161272532Y-103823166D01*
X161261204Y-103815571D01*
X161228673Y-103795792D01*
X161202162Y-103786596D01*
X161200428Y-103786514D01*
X161172526Y-103793548D01*
X161126352Y-103813250D01*
X161065374Y-103843521D01*
X160993059Y-103882259D01*
X160912877Y-103927366D01*
X160828294Y-103976741D01*
X160742778Y-104028284D01*
X160659798Y-104079896D01*
X160582821Y-104129475D01*
X160515315Y-104174922D01*
X160460749Y-104214138D01*
X160422589Y-104245022D01*
X160404304Y-104265473D01*
X160403213Y-104269275D01*
X160114074Y-104269275D01*
X160116618Y-104261914D01*
X160106611Y-104237433D01*
X160077427Y-104209021D01*
X160028433Y-104172515D01*
X159958996Y-104123758D01*
X159932073Y-104104686D01*
X159715582Y-103958847D01*
X159506843Y-103835230D01*
X159306955Y-103734363D01*
X159117019Y-103656776D01*
X158938134Y-103602994D01*
X158848071Y-103584304D01*
X158727236Y-103572144D01*
X158624639Y-103580660D01*
X158539898Y-103609999D01*
X158472631Y-103660307D01*
X158422458Y-103731731D01*
X158412905Y-103752060D01*
X158397395Y-103809472D01*
X158390159Y-103885792D01*
X158243803Y-103885792D01*
X158244027Y-103878992D01*
X158259752Y-103756491D01*
X158295303Y-103653042D01*
X158351127Y-103567882D01*
X158427669Y-103500251D01*
X158485973Y-103466669D01*
X158550975Y-103444883D01*
X158635018Y-103431316D01*
X158730576Y-103426293D01*
X158830126Y-103430139D01*
G37*
D14*
%TO.C,R8*%
X138270000Y-115632379D02*
X138270000Y-115967621D01*
X139030000Y-115632379D02*
X139030000Y-115967621D01*
%TO.C,C6*%
X145465000Y-121563748D02*
X145465000Y-122086252D01*
X146935000Y-121563748D02*
X146935000Y-122086252D01*
%TO.C,C4*%
X169910000Y-106640580D02*
X169910000Y-106359420D01*
X170930000Y-106640580D02*
X170930000Y-106359420D01*
%TO.C,U4*%
X158745000Y-96890000D02*
X161745000Y-96890000D01*
X158745000Y-100110000D02*
X161745000Y-100110000D01*
X158235000Y-97140000D02*
X157755000Y-97140000D01*
X158235000Y-96660000D01*
X158235000Y-97140000D01*
G36*
X158235000Y-97140000D02*
G01*
X157755000Y-97140000D01*
X158235000Y-96660000D01*
X158235000Y-97140000D01*
G37*
%TO.C,C2*%
X143340000Y-76415835D02*
X143340000Y-76184165D01*
X144060000Y-76415835D02*
X144060000Y-76184165D01*
%TO.C,R6*%
X149985121Y-94920000D02*
X149649879Y-94920000D01*
X149985121Y-95680000D02*
X149649879Y-95680000D01*
%TO.C,J1*%
X150050000Y-122000000D02*
X150050000Y-120300000D01*
X159390000Y-122000000D02*
X159390000Y-120300000D01*
%TO.C,R1*%
X171140000Y-97665121D02*
X171140000Y-97329879D01*
X171900000Y-97665121D02*
X171900000Y-97329879D01*
%TO.C,SW1*%
X172480000Y-93040000D02*
X172480000Y-93560000D01*
X172480000Y-100240000D02*
X172480000Y-100760000D01*
X172990000Y-93040000D02*
X172480000Y-93040000D01*
X172990000Y-93560000D02*
X172480000Y-93560000D01*
X172990000Y-100240000D02*
X172480000Y-100240000D01*
X172990000Y-100760000D02*
X172480000Y-100760000D01*
X175820000Y-93560000D02*
X175590000Y-93560000D01*
X175820000Y-93560000D02*
X175820000Y-94100000D01*
X175820000Y-95200000D02*
X175820000Y-98600000D01*
X175820000Y-99700000D02*
X175820000Y-100240000D01*
X175820000Y-100240000D02*
X175590000Y-100240000D01*
X177690000Y-93040000D02*
X175590000Y-93040000D01*
X177690000Y-100760000D02*
X175590000Y-100760000D01*
%TO.C,C8*%
X163060000Y-98941665D02*
X163060000Y-99173335D01*
X163780000Y-98941665D02*
X163780000Y-99173335D01*
%TO.C,D1*%
X142430000Y-107475000D02*
X143450000Y-107475000D01*
X147870000Y-108945000D02*
X147870000Y-106005000D01*
X147990000Y-108945000D02*
X147990000Y-106005000D01*
X148110000Y-108945000D02*
X148110000Y-106005000D01*
X149910000Y-107475000D02*
X148890000Y-107475000D01*
X148890000Y-108945000D02*
X143450000Y-108945000D01*
X143450000Y-106005000D01*
X148890000Y-106005000D01*
X148890000Y-108945000D01*
%TO.C,J2*%
X169360000Y-84980000D02*
X177200000Y-84980000D01*
X169360000Y-87630000D02*
X169360000Y-84980000D01*
X169360000Y-90280000D02*
X169360000Y-88900000D01*
X170740000Y-90280000D02*
X169360000Y-90280000D01*
X172010000Y-87630000D02*
X169360000Y-87630000D01*
X172010000Y-90280000D02*
X172010000Y-87630000D01*
X172010000Y-90280000D02*
X177200000Y-90280000D01*
X177200000Y-90280000D02*
X177200000Y-84980000D01*
%TO.C,R12*%
X169129879Y-112445000D02*
X169465121Y-112445000D01*
X169129879Y-113205000D02*
X169465121Y-113205000D01*
%TO.C,J3*%
X130535000Y-86660000D02*
X130535000Y-90540000D01*
X132505000Y-85490000D02*
X135005000Y-85490000D01*
X132505000Y-91710000D02*
X135005000Y-91710000D01*
X135005000Y-85490000D02*
X135005000Y-86540000D01*
X135005000Y-86540000D02*
X135995000Y-86540000D01*
X135005000Y-91710000D02*
X135005000Y-90660000D01*
%TO.C,C1*%
X141165000Y-76815580D02*
X141165000Y-76534420D01*
X142185000Y-76815580D02*
X142185000Y-76534420D01*
%TO.C,D4*%
X137915000Y-110527500D02*
X137915000Y-112812500D01*
X139385000Y-110527500D02*
X137915000Y-110527500D01*
X139385000Y-112812500D02*
X139385000Y-110527500D01*
%TO.C,U3*%
X140510000Y-113040000D02*
X141770000Y-113040000D01*
X140510000Y-116800000D02*
X140510000Y-113040000D01*
X147330000Y-113040000D02*
X146070000Y-113040000D01*
X147330000Y-116800000D02*
X147330000Y-113040000D01*
X140610000Y-118080000D02*
X140280000Y-118320000D01*
X140280000Y-117840000D01*
X140610000Y-118080000D01*
G36*
X140610000Y-118080000D02*
G01*
X140280000Y-118320000D01*
X140280000Y-117840000D01*
X140610000Y-118080000D01*
G37*
%TO.C,C3*%
X170510000Y-93715580D02*
X170510000Y-93434420D01*
X171530000Y-93715580D02*
X171530000Y-93434420D01*
%TD*%
M02*
