%TF.GenerationSoftware,KiCad,Pcbnew,9.0.3*%
%TF.CreationDate,2026-04-10T19:54:12+05:30*%
%TF.ProjectId,Multilayer pcb intro,4d756c74-696c-4617-9965-722070636220,rev?*%
%TF.SameCoordinates,Original*%
%TF.FileFunction,Paste,Top*%
%TF.FilePolarity,Positive*%
%FSLAX46Y46*%
G04 Gerber Fmt 4.6, Leading zero omitted, Abs format (unit mm)*
G04 Created by KiCad (PCBNEW 9.0.3) date 2026-04-10 19:54:12*
%MOMM*%
%LPD*%
G01*
G04 APERTURE LIST*
G04 Aperture macros list*
%AMRoundRect*
0 Rectangle with rounded corners*
0 $1 Rounding radius*
0 $2 $3 $4 $5 $6 $7 $8 $9 X,Y pos of 4 corners*
0 Add a 4 corners polygon primitive as box body*
4,1,4,$2,$3,$4,$5,$6,$7,$8,$9,$2,$3,0*
0 Add four circle primitives for the rounded corners*
1,1,$1+$1,$2,$3*
1,1,$1+$1,$4,$5*
1,1,$1+$1,$6,$7*
1,1,$1+$1,$8,$9*
0 Add four rect primitives between the rounded corners*
20,1,$1+$1,$2,$3,$4,$5,0*
20,1,$1+$1,$4,$5,$6,$7,0*
20,1,$1+$1,$6,$7,$8,$9,0*
20,1,$1+$1,$8,$9,$2,$3,0*%
G04 Aperture macros list end*
%ADD10RoundRect,0.200000X-0.300000X-0.200000X0.300000X-0.200000X0.300000X0.200000X-0.300000X0.200000X0*%
%ADD11RoundRect,0.160000X0.160000X-0.197500X0.160000X0.197500X-0.160000X0.197500X-0.160000X-0.197500X0*%
%ADD12RoundRect,0.062500X-0.062500X0.117500X-0.062500X-0.117500X0.062500X-0.117500X0.062500X0.117500X0*%
%ADD13R,0.900000X1.700000*%
%ADD14RoundRect,0.150000X0.150000X-0.512500X0.150000X0.512500X-0.150000X0.512500X-0.150000X-0.512500X0*%
%ADD15R,0.900000X0.900000*%
%ADD16R,1.500000X0.900000*%
%ADD17R,0.900000X1.500000*%
%ADD18RoundRect,0.160000X-0.197500X-0.160000X0.197500X-0.160000X0.197500X0.160000X-0.197500X0.160000X0*%
%ADD19RoundRect,0.160000X0.197500X0.160000X-0.197500X0.160000X-0.197500X-0.160000X0.197500X-0.160000X0*%
%ADD20RoundRect,0.250000X-0.475000X0.250000X-0.475000X-0.250000X0.475000X-0.250000X0.475000X0.250000X0*%
%ADD21RoundRect,0.218750X0.218750X0.381250X-0.218750X0.381250X-0.218750X-0.381250X0.218750X-0.381250X0*%
%ADD22RoundRect,0.155000X0.212500X0.155000X-0.212500X0.155000X-0.212500X-0.155000X0.212500X-0.155000X0*%
%ADD23RoundRect,0.250000X0.375000X0.625000X-0.375000X0.625000X-0.375000X-0.625000X0.375000X-0.625000X0*%
%ADD24RoundRect,0.160000X-0.160000X0.197500X-0.160000X-0.197500X0.160000X-0.197500X0.160000X0.197500X0*%
%ADD25RoundRect,0.225000X0.250000X-0.225000X0.250000X0.225000X-0.250000X0.225000X-0.250000X-0.225000X0*%
%ADD26RoundRect,0.150000X-0.150000X-0.335000X0.150000X-0.335000X0.150000X0.335000X-0.150000X0.335000X0*%
%ADD27RoundRect,0.100000X-0.300000X-0.100000X0.300000X-0.100000X0.300000X0.100000X-0.300000X0.100000X0*%
%ADD28RoundRect,0.155000X0.155000X-0.212500X0.155000X0.212500X-0.155000X0.212500X-0.155000X-0.212500X0*%
%ADD29RoundRect,0.150000X-0.150000X-0.425000X0.150000X-0.425000X0.150000X0.425000X-0.150000X0.425000X0*%
%ADD30RoundRect,0.075000X-0.075000X-0.500000X0.075000X-0.500000X0.075000X0.500000X-0.075000X0.500000X0*%
%ADD31O,1.000000X2.100000*%
%ADD32O,1.000000X1.800000*%
%ADD33RoundRect,0.155000X-0.155000X0.212500X-0.155000X-0.212500X0.155000X-0.212500X0.155000X0.212500X0*%
%ADD34RoundRect,0.150000X-0.625000X0.150000X-0.625000X-0.150000X0.625000X-0.150000X0.625000X0.150000X0*%
%ADD35RoundRect,0.250000X-0.650000X0.350000X-0.650000X-0.350000X0.650000X-0.350000X0.650000X0.350000X0*%
%ADD36RoundRect,0.218750X-0.256250X0.218750X-0.256250X-0.218750X0.256250X-0.218750X0.256250X0.218750X0*%
%ADD37RoundRect,0.375000X0.375000X-0.625000X0.375000X0.625000X-0.375000X0.625000X-0.375000X-0.625000X0*%
%ADD38RoundRect,0.500000X1.400000X-0.500000X1.400000X0.500000X-1.400000X0.500000X-1.400000X-0.500000X0*%
G04 APERTURE END LIST*
D10*
%TO.C,D6*%
X164420000Y-112800000D03*
X164420000Y-114200000D03*
X166920000Y-114200000D03*
X166920000Y-112800000D03*
%TD*%
D11*
%TO.C,R9*%
X138325000Y-88022500D03*
X138325000Y-86827500D03*
%TD*%
D12*
%TO.C,D2*%
X171520000Y-101100000D03*
X171520000Y-100260000D03*
%TD*%
D11*
%TO.C,R10*%
X138350000Y-90620000D03*
X138350000Y-89425000D03*
%TD*%
D13*
%TO.C,SW3*%
X178020000Y-112100000D03*
X174620000Y-112100000D03*
%TD*%
D14*
%TO.C,U1*%
X153650000Y-114537500D03*
X154600000Y-114537500D03*
X155550000Y-114537500D03*
X155550000Y-112262500D03*
X154600000Y-112262500D03*
X153650000Y-112262500D03*
%TD*%
D15*
%TO.C,U2*%
X151775000Y-81860000D03*
X151775000Y-83260000D03*
X151775000Y-84660000D03*
X153175000Y-81860000D03*
X153175000Y-83260000D03*
X153175000Y-84660000D03*
X154575000Y-81860000D03*
X154575000Y-83260000D03*
X154575000Y-84660000D03*
D16*
X145925000Y-75540000D03*
X145925000Y-76810000D03*
X145925000Y-78080000D03*
X145925000Y-79350000D03*
X145925000Y-80620000D03*
X145925000Y-81890000D03*
X145925000Y-83160000D03*
X145925000Y-84430000D03*
X145925000Y-85700000D03*
X145925000Y-86970000D03*
X145925000Y-88240000D03*
X145925000Y-89510000D03*
X145925000Y-90780000D03*
X145925000Y-92050000D03*
D17*
X147690000Y-93300000D03*
X148960000Y-93300000D03*
X150230000Y-93300000D03*
X151500000Y-93300000D03*
X152770000Y-93300000D03*
X154040000Y-93300000D03*
X155310000Y-93300000D03*
X156580000Y-93300000D03*
X157850000Y-93300000D03*
X159120000Y-93300000D03*
X160390000Y-93300000D03*
X161660000Y-93300000D03*
D16*
X163425000Y-92050000D03*
X163425000Y-90780000D03*
X163425000Y-89510000D03*
X163425000Y-88240000D03*
X163425000Y-86970000D03*
X163425000Y-85700000D03*
X163425000Y-84430000D03*
X163425000Y-83160000D03*
X163425000Y-81890000D03*
X163425000Y-80620000D03*
X163425000Y-79350000D03*
X163425000Y-78080000D03*
X163425000Y-76810000D03*
X163425000Y-75540000D03*
%TD*%
D18*
%TO.C,R5*%
X146520000Y-95300000D03*
X147715000Y-95300000D03*
%TD*%
D19*
%TO.C,R11*%
X162370000Y-114225000D03*
X161175000Y-114225000D03*
%TD*%
D12*
%TO.C,D3*%
X173220000Y-106800000D03*
X173220000Y-105960000D03*
%TD*%
D20*
%TO.C,C7*%
X143900000Y-120900000D03*
X143900000Y-122800000D03*
%TD*%
D11*
%TO.C,R7*%
X140275000Y-87970000D03*
X140275000Y-86775000D03*
%TD*%
D12*
%TO.C,D5*%
X173120000Y-113200000D03*
X173120000Y-112360000D03*
%TD*%
D18*
%TO.C,R13*%
X168655000Y-114200000D03*
X169850000Y-114200000D03*
%TD*%
D21*
%TO.C,FB1*%
X143900000Y-103100000D03*
X141775000Y-103100000D03*
%TD*%
D22*
%TO.C,C5*%
X159220000Y-111800000D03*
X158085000Y-111800000D03*
%TD*%
D18*
%TO.C,R2*%
X161552500Y-117875000D03*
X162747500Y-117875000D03*
%TD*%
D23*
%TO.C,F1*%
X152275000Y-103300000D03*
X149475000Y-103300000D03*
%TD*%
D13*
%TO.C,SW2*%
X178020000Y-105600000D03*
X174620000Y-105600000D03*
%TD*%
D24*
%TO.C,R4*%
X170220000Y-102802500D03*
X170220000Y-103997500D03*
%TD*%
D18*
%TO.C,R3*%
X161575000Y-119325000D03*
X162770000Y-119325000D03*
%TD*%
D24*
%TO.C,R8*%
X138650000Y-115202500D03*
X138650000Y-116397500D03*
%TD*%
D20*
%TO.C,C6*%
X146200000Y-120875000D03*
X146200000Y-122775000D03*
%TD*%
D25*
%TO.C,C4*%
X170420000Y-107275000D03*
X170420000Y-105725000D03*
%TD*%
D26*
%TO.C,U4*%
X159870000Y-97900000D03*
X159870000Y-99100000D03*
X160620000Y-97900000D03*
X160620000Y-99100000D03*
D27*
X158795000Y-97500000D03*
X158795000Y-98500000D03*
X158795000Y-99500000D03*
X161695000Y-99500000D03*
X161695000Y-98500000D03*
X161695000Y-97500000D03*
%TD*%
D28*
%TO.C,C2*%
X143700000Y-76867500D03*
X143700000Y-75732500D03*
%TD*%
D19*
%TO.C,R6*%
X150415000Y-95300000D03*
X149220000Y-95300000D03*
%TD*%
D29*
%TO.C,J1*%
X151520000Y-118420000D03*
X152320000Y-118420000D03*
D30*
X153470000Y-118420000D03*
X154470000Y-118420000D03*
X154970000Y-118420000D03*
X155970000Y-118420000D03*
D29*
X157120000Y-118420000D03*
X157920000Y-118420000D03*
X157920000Y-118420000D03*
X157120000Y-118420000D03*
D30*
X156470000Y-118420000D03*
X155470000Y-118420000D03*
X153970000Y-118420000D03*
X152970000Y-118420000D03*
D29*
X152320000Y-118420000D03*
X151520000Y-118420000D03*
D31*
X150400000Y-118995000D03*
D32*
X150400000Y-123175000D03*
D31*
X159040000Y-118995000D03*
D32*
X159040000Y-123175000D03*
%TD*%
D11*
%TO.C,R1*%
X171520000Y-98095000D03*
X171520000Y-96900000D03*
%TD*%
D33*
%TO.C,C8*%
X163420000Y-98490000D03*
X163420000Y-99625000D03*
%TD*%
D18*
%TO.C,R12*%
X168700000Y-112825000D03*
X169895000Y-112825000D03*
%TD*%
D34*
%TO.C,J3*%
X135220000Y-87100000D03*
X135220000Y-88100000D03*
X135220000Y-89100000D03*
X135220000Y-90100000D03*
D35*
X131345000Y-85800000D03*
X131345000Y-91400000D03*
%TD*%
D25*
%TO.C,C1*%
X141675000Y-77450000D03*
X141675000Y-75900000D03*
%TD*%
D36*
%TO.C,D4*%
X138650000Y-111225000D03*
X138650000Y-112800000D03*
%TD*%
D37*
%TO.C,U3*%
X141620000Y-118100000D03*
X143920000Y-118100000D03*
X146220000Y-118100000D03*
D38*
X143920000Y-111800000D03*
%TD*%
D25*
%TO.C,C3*%
X171020000Y-94350000D03*
X171020000Y-92800000D03*
%TD*%
M02*
