%TF.GenerationSoftware,KiCad,Pcbnew,9.0.3*%
%TF.CreationDate,2026-04-10T19:54:12+05:30*%
%TF.ProjectId,Multilayer pcb intro,4d756c74-696c-4617-9965-722070636220,rev?*%
%TF.SameCoordinates,Original*%
%TF.FileFunction,Copper,L4,Bot*%
%TF.FilePolarity,Positive*%
%FSLAX46Y46*%
G04 Gerber Fmt 4.6, Leading zero omitted, Abs format (unit mm)*
G04 Created by KiCad (PCBNEW 9.0.3) date 2026-04-10 19:54:12*
%MOMM*%
%LPD*%
G01*
G04 APERTURE LIST*
G04 Aperture macros list*
%AMRoundRect*
0 Rectangle with rounded corners*
0 $1 Rounding radius*
0 $2 $3 $4 $5 $6 $7 $8 $9 X,Y pos of 4 corners*
0 Add a 4 corners polygon primitive as box body*
4,1,4,$2,$3,$4,$5,$6,$7,$8,$9,$2,$3,0*
0 Add four circle primitives for the rounded corners*
1,1,$1+$1,$2,$3*
1,1,$1+$1,$4,$5*
1,1,$1+$1,$6,$7*
1,1,$1+$1,$8,$9*
0 Add four rect primitives between the rounded corners*
20,1,$1+$1,$2,$3,$4,$5,0*
20,1,$1+$1,$4,$5,$6,$7,0*
20,1,$1+$1,$6,$7,$8,$9,0*
20,1,$1+$1,$8,$9,$2,$3,0*%
G04 Aperture macros list end*
%TA.AperFunction,HeatsinkPad*%
%ADD10C,0.600000*%
%TD*%
%TA.AperFunction,ComponentPad*%
%ADD11R,1.700000X1.700000*%
%TD*%
%TA.AperFunction,ComponentPad*%
%ADD12C,1.700000*%
%TD*%
%TA.AperFunction,HeatsinkPad*%
%ADD13O,1.000000X2.100000*%
%TD*%
%TA.AperFunction,HeatsinkPad*%
%ADD14O,1.000000X1.800000*%
%TD*%
%TA.AperFunction,ComponentPad*%
%ADD15C,2.100000*%
%TD*%
%TA.AperFunction,ComponentPad*%
%ADD16C,1.750000*%
%TD*%
%TA.AperFunction,ComponentPad*%
%ADD17RoundRect,0.249999X0.850001X0.850001X-0.850001X0.850001X-0.850001X-0.850001X0.850001X-0.850001X0*%
%TD*%
%TA.AperFunction,ComponentPad*%
%ADD18C,2.200000*%
%TD*%
%TA.AperFunction,ViaPad*%
%ADD19C,0.600000*%
%TD*%
%TA.AperFunction,Conductor*%
%ADD20C,0.200000*%
%TD*%
%TA.AperFunction,Conductor*%
%ADD21C,0.500000*%
%TD*%
%TA.AperFunction,Conductor*%
%ADD22C,0.600000*%
%TD*%
%TA.AperFunction,Conductor*%
%ADD23C,0.240000*%
%TD*%
G04 APERTURE END LIST*
D10*
%TO.P,U2,41,GND*%
%TO.N,GND*%
X151775000Y-82560000D03*
X151775000Y-83960000D03*
X152475000Y-81860000D03*
X152475000Y-83260000D03*
X152475000Y-84660000D03*
X153175000Y-82560000D03*
X153175000Y-83960000D03*
X153875000Y-81860000D03*
X153875000Y-83260000D03*
X153875000Y-84660000D03*
X154575000Y-82560000D03*
X154575000Y-83960000D03*
%TD*%
D11*
%TO.P,J4,1,Pin_1*%
%TO.N,+3.3V*%
X134760000Y-97140000D03*
D12*
%TO.P,J4,2,Pin_2*%
X137300000Y-97140000D03*
%TO.P,J4,3,Pin_3*%
%TO.N,/RESET*%
X134760000Y-99680000D03*
%TO.P,J4,4,Pin_4*%
%TO.N,/CS*%
X137300000Y-99680000D03*
%TO.P,J4,5,Pin_5*%
%TO.N,/MOSI*%
X134760000Y-102220000D03*
%TO.P,J4,6,Pin_6*%
%TO.N,/CLK*%
X137300000Y-102220000D03*
%TO.P,J4,7,Pin_7*%
%TO.N,/MISO*%
X134760000Y-104760000D03*
%TO.P,J4,8,Pin_8*%
%TO.N,/IRQ*%
X137300000Y-104760000D03*
%TO.P,J4,9,Pin_9*%
%TO.N,GND*%
X134760000Y-107300000D03*
%TO.P,J4,10,Pin_10*%
X137300000Y-107300000D03*
%TD*%
D13*
%TO.P,J1,S1,SHIELD*%
%TO.N,GND*%
X150400000Y-118995000D03*
D14*
X150400000Y-123175000D03*
D13*
X159040000Y-118995000D03*
D14*
X159040000Y-123175000D03*
%TD*%
D15*
%TO.P,SW1,*%
%TO.N,*%
X174300000Y-93400000D03*
X174300000Y-100410000D03*
D16*
%TO.P,SW1,1,A*%
%TO.N,GND*%
X176790000Y-94650000D03*
%TO.P,SW1,2,B*%
%TO.N,/USER_SW*%
X176790000Y-99150000D03*
%TD*%
D17*
%TO.P,D1,1,K*%
%TO.N,+5V*%
X151250000Y-107475000D03*
D18*
%TO.P,D1,2,A*%
%TO.N,Net-(D1-A)*%
X141090000Y-107475000D03*
%TD*%
D11*
%TO.P,J2,1,Pin_1*%
%TO.N,/ESP_EN*%
X170740000Y-88900000D03*
D12*
%TO.P,J2,2,Pin_2*%
%TO.N,+3.3V*%
X170740000Y-86360000D03*
%TO.P,J2,3,Pin_3*%
%TO.N,/ESP_TXD*%
X173280000Y-88900000D03*
%TO.P,J2,4,Pin_4*%
%TO.N,GND*%
X173280000Y-86360000D03*
%TO.P,J2,5,Pin_5*%
%TO.N,/ESP_RXD*%
X175820000Y-88900000D03*
%TO.P,J2,6,Pin_6*%
%TO.N,/BOOT(01)*%
X175820000Y-86360000D03*
%TD*%
D19*
%TO.N,GND*%
X140250000Y-75875000D03*
X140830000Y-99380000D03*
X143150000Y-90370000D03*
X150310000Y-75460000D03*
X155620000Y-75530000D03*
X157625000Y-98500000D03*
X165050000Y-89220000D03*
X156880000Y-75530000D03*
X151570000Y-75460000D03*
X156090000Y-82840000D03*
X154600000Y-115600001D03*
X142850000Y-75725000D03*
X162030000Y-75570000D03*
X147430000Y-87240000D03*
X147600000Y-75460000D03*
X142025000Y-122800000D03*
X152910000Y-75530000D03*
X133700000Y-87100000D03*
X149020000Y-75450000D03*
X168050000Y-108290000D03*
X162770000Y-120100000D03*
X167190000Y-93290000D03*
X162750000Y-117100000D03*
X167190000Y-88370000D03*
X143450000Y-95220000D03*
X137000000Y-111200000D03*
X141630000Y-90700000D03*
X163420000Y-100545000D03*
X154330000Y-75520000D03*
X167220000Y-80030000D03*
X157920000Y-117505000D03*
X159480000Y-75560000D03*
X158060000Y-75570000D03*
X144870000Y-98090000D03*
X160770000Y-75570000D03*
X158250000Y-120570000D03*
%TO.N,+3.3V*%
X163420000Y-97525000D03*
X142025000Y-120875000D03*
X147700000Y-96200000D03*
X142900000Y-76850000D03*
X133700000Y-88100000D03*
X140275000Y-85775000D03*
X137425000Y-89425000D03*
X136872500Y-116397500D03*
X163175000Y-112800000D03*
X140325000Y-77450000D03*
X139322500Y-86827500D03*
X171500000Y-95900000D03*
X171197500Y-103997500D03*
%TO.N,/USER_SW*%
X160400000Y-94900000D03*
X169300000Y-95600000D03*
%TO.N,/ESP_EN*%
X162100000Y-81900000D03*
%TO.N,+5V*%
X157600000Y-112600000D03*
X148600000Y-117100000D03*
%TO.N,/BOOT(01)*%
X164950000Y-92050000D03*
X176400000Y-111600000D03*
%TO.N,Net-(F1-Pad1)*%
X152320000Y-116800000D03*
X157125000Y-116400000D03*
%TO.N,Net-(J1-CC1)*%
X154275000Y-120525000D03*
X160400000Y-117875000D03*
%TO.N,/D+*%
X153870000Y-117201001D03*
X155482645Y-117487850D03*
%TO.N,/SCL*%
X148800000Y-90375000D03*
X161695000Y-94905000D03*
X139575000Y-89425000D03*
X140930000Y-92170000D03*
%TO.N,/SDA*%
X157925000Y-95700000D03*
X140600000Y-89400000D03*
%TO.N,/MOSI*%
X152770000Y-91570000D03*
%TO.N,/IRQ*%
X148950000Y-92049998D03*
X144575000Y-100231000D03*
%TO.N,/MISO*%
X155325000Y-91600000D03*
%TO.N,/RESET*%
X140625000Y-105175000D03*
X156580000Y-91670000D03*
%TO.N,/CLK*%
X154025000Y-91575000D03*
%TO.N,/CS*%
X151287500Y-91487500D03*
%TD*%
D20*
%TO.N,/USER_SW*%
X161100000Y-95600000D02*
X160400000Y-94900000D01*
X169300000Y-95600000D02*
X161100000Y-95600000D01*
%TO.N,/ESP_EN*%
X170740000Y-88140000D02*
X170740000Y-88900000D01*
X164500000Y-81900000D02*
X170740000Y-88140000D01*
X162100000Y-81900000D02*
X164500000Y-81900000D01*
D21*
%TO.N,+5V*%
X152815000Y-112885000D02*
X148600000Y-117100000D01*
D20*
X148600000Y-117100000D02*
X150100000Y-115600000D01*
X157600000Y-112600000D02*
X157315000Y-112885000D01*
D21*
X157315000Y-112885000D02*
X152815000Y-112885000D01*
D20*
%TO.N,/BOOT(01)*%
X175820000Y-86360000D02*
X178500000Y-89040000D01*
X172900000Y-91300000D02*
X174669000Y-89531000D01*
X165700000Y-91300000D02*
X172900000Y-91300000D01*
X164950000Y-92050000D02*
X165700000Y-91300000D01*
X176400000Y-101800000D02*
X176400000Y-111600000D01*
X178500000Y-99700000D02*
X176400000Y-101800000D01*
X174669000Y-87511000D02*
X175820000Y-86360000D01*
X174669000Y-89531000D02*
X174669000Y-87511000D01*
X178500000Y-89040000D02*
X178500000Y-99700000D01*
D22*
%TO.N,Net-(F1-Pad1)*%
X152320000Y-116800000D02*
X152718999Y-116401001D01*
X152718999Y-116401001D02*
X154625000Y-116401001D01*
X157123999Y-116401001D02*
X157125000Y-116400000D01*
X154625000Y-116401001D02*
X157123999Y-116401001D01*
D20*
%TO.N,Net-(J1-CC1)*%
X159619000Y-117644000D02*
X159850000Y-117875000D01*
X159850000Y-117875000D02*
X160400000Y-117875000D01*
X160400000Y-117875000D02*
X160475000Y-117800000D01*
X157533215Y-118819000D02*
X158708215Y-117644000D01*
X154275000Y-120525000D02*
X155981000Y-118819000D01*
X158708215Y-117644000D02*
X159619000Y-117644000D01*
X155981000Y-118819000D02*
X157533215Y-118819000D01*
D23*
%TO.N,/D+*%
X153870000Y-117070000D02*
X153870000Y-117201001D01*
X155482645Y-117487850D02*
X155482645Y-117372645D01*
X155180000Y-117070000D02*
X153870000Y-117070000D01*
X155482645Y-117372645D02*
X155180000Y-117070000D01*
D20*
%TO.N,/SCL*%
X161675000Y-91825000D02*
X158525000Y-88675000D01*
X158525000Y-88675000D02*
X140325000Y-88675000D01*
X161695000Y-94905000D02*
X161675000Y-94885000D01*
X141470000Y-93460000D02*
X140930000Y-92920000D01*
X161675000Y-94885000D02*
X161675000Y-91825000D01*
X140325000Y-88675000D02*
X139575000Y-89425000D01*
X145695000Y-90375000D02*
X142610000Y-93460000D01*
X148800000Y-90375000D02*
X145695000Y-90375000D01*
X140930000Y-92920000D02*
X140930000Y-92170000D01*
X142610000Y-93460000D02*
X141470000Y-93460000D01*
%TO.N,/SDA*%
X157925000Y-91625000D02*
X157925000Y-95700000D01*
X140600000Y-89400000D02*
X140830000Y-89630000D01*
X155930000Y-89630000D02*
X157925000Y-91625000D01*
X140830000Y-89630000D02*
X155930000Y-89630000D01*
%TO.N,/MOSI*%
X152800000Y-91600000D02*
X152800000Y-95000000D01*
X146969000Y-100831000D02*
X136149000Y-100831000D01*
X136149000Y-100831000D02*
X134760000Y-102220000D01*
X152800000Y-95000000D02*
X146969000Y-100831000D01*
X152770000Y-91570000D02*
X152800000Y-91600000D01*
%TO.N,/IRQ*%
X148950000Y-95856000D02*
X148950000Y-92049998D01*
X144575000Y-100231000D02*
X148950000Y-95856000D01*
%TO.N,/MISO*%
X147641000Y-103609000D02*
X135911000Y-103609000D01*
X155325000Y-95925000D02*
X147641000Y-103609000D01*
X135911000Y-103609000D02*
X134760000Y-104760000D01*
X155325000Y-91600000D02*
X155325000Y-95925000D01*
%TO.N,/RESET*%
X140625000Y-105175000D02*
X148200000Y-105175000D01*
X148200000Y-105175000D02*
X156580000Y-96795000D01*
X156580000Y-96795000D02*
X156580000Y-91670000D01*
%TO.N,/CLK*%
X154025000Y-91575000D02*
X154025000Y-95375000D01*
X154025000Y-95375000D02*
X147180000Y-102220000D01*
X147180000Y-102220000D02*
X137300000Y-102220000D01*
%TO.N,/CS*%
X145755000Y-91225000D02*
X137300000Y-99680000D01*
X151287500Y-91487500D02*
X151025000Y-91225000D01*
X151025000Y-91225000D02*
X145755000Y-91225000D01*
%TD*%
%TA.AperFunction,Conductor*%
%TO.N,GND*%
G36*
X158285945Y-118587983D02*
G01*
X158329210Y-118631248D01*
X158340000Y-118676193D01*
X158340000Y-118894999D01*
X158340001Y-118895000D01*
X158740000Y-118895000D01*
X158740000Y-119095000D01*
X158340001Y-119095000D01*
X158340000Y-119095001D01*
X158340000Y-119243855D01*
X158321093Y-119302046D01*
X158271593Y-119338010D01*
X158210407Y-119338010D01*
X158160907Y-119302046D01*
X158149668Y-119278482D01*
X158148763Y-119278857D01*
X158146279Y-119272861D01*
X158070518Y-119141639D01*
X158070516Y-119141637D01*
X158070515Y-119141635D01*
X157963365Y-119034485D01*
X157935202Y-119018225D01*
X157894262Y-118972756D01*
X157887866Y-118911906D01*
X157914700Y-118862485D01*
X158170997Y-118606189D01*
X158225513Y-118578412D01*
X158285945Y-118587983D01*
G37*
%TD.AperFunction*%
%TA.AperFunction,Conductor*%
G36*
X148585868Y-91544407D02*
G01*
X148621832Y-91593907D01*
X148621832Y-91655093D01*
X148597682Y-91694501D01*
X148571709Y-91720475D01*
X148549497Y-91742687D01*
X148549496Y-91742688D01*
X148483609Y-91856807D01*
X148476776Y-91882309D01*
X148449500Y-91984106D01*
X148449500Y-92115890D01*
X148466756Y-92180291D01*
X148483609Y-92243188D01*
X148549496Y-92357307D01*
X148549498Y-92357309D01*
X148549500Y-92357312D01*
X148620505Y-92428317D01*
X148648281Y-92482832D01*
X148649500Y-92498319D01*
X148649500Y-95690521D01*
X148630593Y-95748712D01*
X148620503Y-95760525D01*
X148331559Y-96049468D01*
X148277043Y-96077245D01*
X148216611Y-96067674D01*
X148173346Y-96024409D01*
X148168889Y-96012799D01*
X148168874Y-96012806D01*
X148166390Y-96006810D01*
X148100503Y-95892690D01*
X148100501Y-95892688D01*
X148100500Y-95892686D01*
X148007314Y-95799500D01*
X148007311Y-95799498D01*
X148007309Y-95799496D01*
X147893189Y-95733609D01*
X147893191Y-95733609D01*
X147843799Y-95720375D01*
X147765892Y-95699500D01*
X147634108Y-95699500D01*
X147556200Y-95720375D01*
X147506809Y-95733609D01*
X147392690Y-95799496D01*
X147299496Y-95892690D01*
X147233609Y-96006809D01*
X147233608Y-96006814D01*
X147199500Y-96134108D01*
X147199500Y-96265892D01*
X147200669Y-96270253D01*
X147233609Y-96393190D01*
X147299496Y-96507309D01*
X147299498Y-96507311D01*
X147299500Y-96507314D01*
X147392686Y-96600500D01*
X147392688Y-96600501D01*
X147392690Y-96600503D01*
X147506810Y-96666390D01*
X147506811Y-96666390D01*
X147506814Y-96666392D01*
X147506816Y-96666392D01*
X147512806Y-96668874D01*
X147512131Y-96670502D01*
X147556405Y-96699257D01*
X147578329Y-96756380D01*
X147562490Y-96815479D01*
X147549468Y-96831560D01*
X144679524Y-99701504D01*
X144625007Y-99729281D01*
X144609520Y-99730500D01*
X144509108Y-99730500D01*
X144431200Y-99751375D01*
X144381809Y-99764609D01*
X144267690Y-99830496D01*
X144174496Y-99923690D01*
X144108609Y-100037809D01*
X144108608Y-100037814D01*
X144074500Y-100165108D01*
X144074500Y-100296892D01*
X144103702Y-100405879D01*
X144100500Y-100466978D01*
X144061995Y-100514528D01*
X144008076Y-100530500D01*
X138174139Y-100530500D01*
X138115948Y-100511593D01*
X138079984Y-100462093D01*
X138079984Y-100400907D01*
X138104133Y-100361498D01*
X138115977Y-100349655D01*
X138230941Y-100177598D01*
X138310130Y-99986420D01*
X138350500Y-99783465D01*
X138350500Y-99576535D01*
X138310130Y-99373580D01*
X138253802Y-99237595D01*
X138249002Y-99176599D01*
X138275261Y-99129708D01*
X145850475Y-91554496D01*
X145904992Y-91526719D01*
X145920479Y-91525500D01*
X148527677Y-91525500D01*
X148585868Y-91544407D01*
G37*
%TD.AperFunction*%
%TA.AperFunction,Conductor*%
G36*
X175722421Y-75000619D02*
G01*
X175751158Y-75002030D01*
X176058173Y-75017113D01*
X176067815Y-75018063D01*
X176397915Y-75067029D01*
X176407421Y-75068919D01*
X176731144Y-75150008D01*
X176740415Y-75152820D01*
X177054625Y-75265246D01*
X177063594Y-75268961D01*
X177365263Y-75411640D01*
X177373826Y-75416218D01*
X177660049Y-75587773D01*
X177668127Y-75593171D01*
X177936150Y-75791951D01*
X177943660Y-75798114D01*
X178190921Y-76022218D01*
X178197781Y-76029078D01*
X178323484Y-76167770D01*
X178421885Y-76276339D01*
X178428048Y-76283849D01*
X178626828Y-76551872D01*
X178632226Y-76559950D01*
X178803781Y-76846173D01*
X178808361Y-76854741D01*
X178951036Y-77156402D01*
X178954754Y-77165378D01*
X179067175Y-77479571D01*
X179069995Y-77488868D01*
X179151077Y-77812567D01*
X179152972Y-77822096D01*
X179201934Y-78152170D01*
X179202887Y-78161838D01*
X179219381Y-78497577D01*
X179219500Y-78502435D01*
X179219500Y-120497564D01*
X179219381Y-120502422D01*
X179202887Y-120838161D01*
X179201934Y-120847829D01*
X179152972Y-121177903D01*
X179151077Y-121187432D01*
X179069995Y-121511131D01*
X179067175Y-121520428D01*
X178954754Y-121834621D01*
X178951036Y-121843597D01*
X178808361Y-122145258D01*
X178803781Y-122153826D01*
X178632226Y-122440049D01*
X178626828Y-122448127D01*
X178428048Y-122716150D01*
X178421885Y-122723660D01*
X178197786Y-122970916D01*
X178190916Y-122977786D01*
X177943660Y-123201885D01*
X177936150Y-123208048D01*
X177668127Y-123406828D01*
X177660049Y-123412226D01*
X177373826Y-123583781D01*
X177365258Y-123588361D01*
X177063597Y-123731036D01*
X177054621Y-123734754D01*
X176740428Y-123847175D01*
X176731131Y-123849995D01*
X176407432Y-123931077D01*
X176397903Y-123932972D01*
X176067829Y-123981934D01*
X176058161Y-123982887D01*
X175722422Y-123999381D01*
X175717564Y-123999500D01*
X159770005Y-123999500D01*
X159711814Y-123980593D01*
X159675850Y-123931093D01*
X159675850Y-123869907D01*
X159678541Y-123862615D01*
X159713098Y-123779183D01*
X159739999Y-123643944D01*
X159740000Y-123643942D01*
X159740000Y-123275001D01*
X159739999Y-123275000D01*
X159340000Y-123275000D01*
X159340000Y-123075000D01*
X159739999Y-123075000D01*
X159740000Y-123074999D01*
X159740000Y-122706057D01*
X159739999Y-122706055D01*
X159713098Y-122570816D01*
X159660333Y-122443428D01*
X159583728Y-122328779D01*
X159486220Y-122231271D01*
X159371571Y-122154666D01*
X159244182Y-122101901D01*
X159140000Y-122081177D01*
X159140000Y-122491211D01*
X159079496Y-122475000D01*
X159000504Y-122475000D01*
X158940000Y-122491211D01*
X158940000Y-122081177D01*
X158835817Y-122101901D01*
X158708428Y-122154666D01*
X158593779Y-122231271D01*
X158496271Y-122328779D01*
X158419666Y-122443428D01*
X158366901Y-122570816D01*
X158340000Y-122706055D01*
X158340000Y-123074999D01*
X158340001Y-123075000D01*
X158740000Y-123075000D01*
X158740000Y-123275000D01*
X158340001Y-123275000D01*
X158340000Y-123275001D01*
X158340000Y-123643944D01*
X158366901Y-123779183D01*
X158401459Y-123862615D01*
X158406259Y-123923612D01*
X158374290Y-123975781D01*
X158317761Y-123999195D01*
X158309995Y-123999500D01*
X151130005Y-123999500D01*
X151071814Y-123980593D01*
X151035850Y-123931093D01*
X151035850Y-123869907D01*
X151038541Y-123862615D01*
X151073098Y-123779183D01*
X151099999Y-123643944D01*
X151100000Y-123643942D01*
X151100000Y-123275001D01*
X151099999Y-123275000D01*
X150700000Y-123275000D01*
X150700000Y-123075000D01*
X151099999Y-123075000D01*
X151100000Y-123074999D01*
X151100000Y-122706057D01*
X151099999Y-122706055D01*
X151073098Y-122570816D01*
X151020333Y-122443428D01*
X150943728Y-122328779D01*
X150846220Y-122231271D01*
X150731571Y-122154666D01*
X150604182Y-122101901D01*
X150500000Y-122081177D01*
X150500000Y-122491211D01*
X150439496Y-122475000D01*
X150360504Y-122475000D01*
X150300000Y-122491211D01*
X150300000Y-122081177D01*
X150195817Y-122101901D01*
X150068428Y-122154666D01*
X149953779Y-122231271D01*
X149856271Y-122328779D01*
X149779666Y-122443428D01*
X149726901Y-122570816D01*
X149700000Y-122706055D01*
X149700000Y-123074999D01*
X149700001Y-123075000D01*
X150100000Y-123075000D01*
X150100000Y-123275000D01*
X149700001Y-123275000D01*
X149700000Y-123275001D01*
X149700000Y-123643944D01*
X149726901Y-123779183D01*
X149761459Y-123862615D01*
X149766259Y-123923612D01*
X149734290Y-123975781D01*
X149677761Y-123999195D01*
X149669995Y-123999500D01*
X133722436Y-123999500D01*
X133717578Y-123999381D01*
X133381838Y-123982887D01*
X133372170Y-123981934D01*
X133042096Y-123932972D01*
X133032567Y-123931077D01*
X132708868Y-123849995D01*
X132699571Y-123847175D01*
X132385378Y-123734754D01*
X132376402Y-123731036D01*
X132074741Y-123588361D01*
X132066173Y-123583781D01*
X131779950Y-123412226D01*
X131771872Y-123406828D01*
X131503849Y-123208048D01*
X131496339Y-123201885D01*
X131387770Y-123103484D01*
X131249078Y-122977781D01*
X131242218Y-122970921D01*
X131018107Y-122723653D01*
X131011951Y-122716150D01*
X130848264Y-122495444D01*
X130813169Y-122448125D01*
X130807773Y-122440049D01*
X130678223Y-122223908D01*
X130636216Y-122153823D01*
X130631638Y-122145258D01*
X130582770Y-122041936D01*
X130488961Y-121843594D01*
X130485245Y-121834621D01*
X130372820Y-121520415D01*
X130370008Y-121511144D01*
X130288919Y-121187421D01*
X130287029Y-121177915D01*
X130238063Y-120847815D01*
X130237113Y-120838173D01*
X130220619Y-120502421D01*
X130220500Y-120497564D01*
X130220500Y-120378710D01*
X131869500Y-120378710D01*
X131869500Y-120621289D01*
X131901161Y-120861781D01*
X131901161Y-120861786D01*
X131901162Y-120861789D01*
X131956467Y-121068190D01*
X131963944Y-121096092D01*
X131963948Y-121096105D01*
X132056772Y-121320204D01*
X132056774Y-121320208D01*
X132056776Y-121320212D01*
X132172371Y-121520428D01*
X132178066Y-121530292D01*
X132325729Y-121722731D01*
X132325731Y-121722733D01*
X132325735Y-121722738D01*
X132497262Y-121894265D01*
X132497266Y-121894268D01*
X132497268Y-121894270D01*
X132689707Y-122041933D01*
X132689711Y-122041936D01*
X132899788Y-122163224D01*
X133123900Y-122256054D01*
X133358211Y-122318838D01*
X133598712Y-122350500D01*
X133598713Y-122350500D01*
X133841287Y-122350500D01*
X133841288Y-122350500D01*
X134081789Y-122318838D01*
X134316100Y-122256054D01*
X134540212Y-122163224D01*
X134750289Y-122041936D01*
X134942738Y-121894265D01*
X135114265Y-121722738D01*
X135261936Y-121530289D01*
X135383224Y-121320212D01*
X135476054Y-121096100D01*
X135538838Y-120861789D01*
X135545773Y-120809108D01*
X141524500Y-120809108D01*
X141524500Y-120940892D01*
X141554579Y-121053151D01*
X141558609Y-121068190D01*
X141624496Y-121182309D01*
X141624498Y-121182311D01*
X141624500Y-121182314D01*
X141717686Y-121275500D01*
X141717688Y-121275501D01*
X141717690Y-121275503D01*
X141831810Y-121341390D01*
X141831808Y-121341390D01*
X141831812Y-121341391D01*
X141831814Y-121341392D01*
X141959108Y-121375500D01*
X141959110Y-121375500D01*
X142090890Y-121375500D01*
X142090892Y-121375500D01*
X142218186Y-121341392D01*
X142218188Y-121341390D01*
X142218190Y-121341390D01*
X142332309Y-121275503D01*
X142332309Y-121275502D01*
X142332314Y-121275500D01*
X142425500Y-121182314D01*
X142475276Y-121096100D01*
X142491390Y-121068190D01*
X142491390Y-121068188D01*
X142491392Y-121068186D01*
X142525500Y-120940892D01*
X142525500Y-120809108D01*
X142491392Y-120681814D01*
X142491390Y-120681811D01*
X142491390Y-120681809D01*
X142425503Y-120567690D01*
X142425501Y-120567688D01*
X142425500Y-120567686D01*
X142332314Y-120474500D01*
X142332311Y-120474498D01*
X142332309Y-120474496D01*
X142305656Y-120459108D01*
X153774500Y-120459108D01*
X153774500Y-120590892D01*
X153782645Y-120621288D01*
X153808609Y-120718190D01*
X153874496Y-120832309D01*
X153874498Y-120832311D01*
X153874500Y-120832314D01*
X153967686Y-120925500D01*
X153967688Y-120925501D01*
X153967690Y-120925503D01*
X154081810Y-120991390D01*
X154081808Y-120991390D01*
X154081812Y-120991391D01*
X154081814Y-120991392D01*
X154209108Y-121025500D01*
X154209110Y-121025500D01*
X154340890Y-121025500D01*
X154340892Y-121025500D01*
X154468186Y-120991392D01*
X154468188Y-120991390D01*
X154468190Y-120991390D01*
X154582309Y-120925503D01*
X154582309Y-120925502D01*
X154582314Y-120925500D01*
X154675500Y-120832314D01*
X154675503Y-120832309D01*
X154741390Y-120718190D01*
X154741390Y-120718188D01*
X154741392Y-120718186D01*
X154775500Y-120590892D01*
X154775500Y-120490478D01*
X154777968Y-120482880D01*
X154776719Y-120474991D01*
X154787243Y-120454335D01*
X154794407Y-120432287D01*
X154804496Y-120420474D01*
X154846260Y-120378710D01*
X173869500Y-120378710D01*
X173869500Y-120621289D01*
X173901161Y-120861781D01*
X173901161Y-120861786D01*
X173901162Y-120861789D01*
X173956467Y-121068190D01*
X173963944Y-121096092D01*
X173963948Y-121096105D01*
X174056772Y-121320204D01*
X174056774Y-121320208D01*
X174056776Y-121320212D01*
X174172371Y-121520428D01*
X174178066Y-121530292D01*
X174325729Y-121722731D01*
X174325731Y-121722733D01*
X174325735Y-121722738D01*
X174497262Y-121894265D01*
X174497266Y-121894268D01*
X174497268Y-121894270D01*
X174689707Y-122041933D01*
X174689711Y-122041936D01*
X174899788Y-122163224D01*
X175123900Y-122256054D01*
X175358211Y-122318838D01*
X175598712Y-122350500D01*
X175598713Y-122350500D01*
X175841287Y-122350500D01*
X175841288Y-122350500D01*
X176081789Y-122318838D01*
X176316100Y-122256054D01*
X176540212Y-122163224D01*
X176750289Y-122041936D01*
X176942738Y-121894265D01*
X177114265Y-121722738D01*
X177261936Y-121530289D01*
X177383224Y-121320212D01*
X177476054Y-121096100D01*
X177538838Y-120861789D01*
X177570500Y-120621288D01*
X177570500Y-120378712D01*
X177538838Y-120138211D01*
X177476054Y-119903900D01*
X177383224Y-119679788D01*
X177261936Y-119469711D01*
X177261933Y-119469707D01*
X177114270Y-119277268D01*
X177114268Y-119277266D01*
X177114265Y-119277262D01*
X176942738Y-119105735D01*
X176942733Y-119105731D01*
X176942731Y-119105729D01*
X176750292Y-118958066D01*
X176750289Y-118958064D01*
X176540212Y-118836776D01*
X176540208Y-118836774D01*
X176540204Y-118836772D01*
X176316105Y-118743948D01*
X176316104Y-118743947D01*
X176316100Y-118743946D01*
X176081789Y-118681162D01*
X176081786Y-118681161D01*
X176081784Y-118681161D01*
X175841289Y-118649500D01*
X175841288Y-118649500D01*
X175598712Y-118649500D01*
X175598710Y-118649500D01*
X175358218Y-118681161D01*
X175358213Y-118681161D01*
X175123907Y-118743944D01*
X175123894Y-118743948D01*
X174899795Y-118836772D01*
X174689707Y-118958066D01*
X174497268Y-119105729D01*
X174325729Y-119277268D01*
X174178066Y-119469707D01*
X174056772Y-119679795D01*
X173963948Y-119903894D01*
X173963944Y-119903907D01*
X173901161Y-120138213D01*
X173901161Y-120138218D01*
X173869500Y-120378710D01*
X154846260Y-120378710D01*
X154919503Y-120305467D01*
X155439911Y-119785060D01*
X156076475Y-119148496D01*
X156130992Y-119120719D01*
X156146479Y-119119500D01*
X156990791Y-119119500D01*
X157048982Y-119138407D01*
X157084946Y-119187907D01*
X157084946Y-119249093D01*
X157076527Y-119268000D01*
X157073720Y-119272860D01*
X157072214Y-119278482D01*
X157034500Y-119419234D01*
X157034500Y-119570766D01*
X157062338Y-119674659D01*
X157073720Y-119717139D01*
X157149481Y-119848360D01*
X157149483Y-119848362D01*
X157149485Y-119848365D01*
X157256635Y-119955515D01*
X157256637Y-119955516D01*
X157256639Y-119955518D01*
X157387861Y-120031279D01*
X157387859Y-120031279D01*
X157387863Y-120031280D01*
X157387865Y-120031281D01*
X157534234Y-120070500D01*
X157534236Y-120070500D01*
X157685764Y-120070500D01*
X157685766Y-120070500D01*
X157832135Y-120031281D01*
X157832137Y-120031279D01*
X157832139Y-120031279D01*
X157963360Y-119955518D01*
X157963360Y-119955517D01*
X157963365Y-119955515D01*
X158070515Y-119848365D01*
X158146281Y-119717135D01*
X158159352Y-119668349D01*
X158192676Y-119617036D01*
X158249797Y-119595109D01*
X158308898Y-119610944D01*
X158347403Y-119658494D01*
X158352077Y-119674658D01*
X158366901Y-119749183D01*
X158419666Y-119876571D01*
X158496271Y-119991220D01*
X158593779Y-120088728D01*
X158708428Y-120165333D01*
X158835817Y-120218098D01*
X158940000Y-120238822D01*
X158940000Y-119828788D01*
X159000504Y-119845000D01*
X159079496Y-119845000D01*
X159140000Y-119828788D01*
X159140000Y-120238821D01*
X159244181Y-120218098D01*
X159244183Y-120218098D01*
X159371571Y-120165333D01*
X159486220Y-120088728D01*
X159583728Y-119991220D01*
X159660333Y-119876571D01*
X159713098Y-119749183D01*
X159739999Y-119613944D01*
X159740000Y-119613942D01*
X159740000Y-119095001D01*
X159739999Y-119095000D01*
X159340000Y-119095000D01*
X159340000Y-118895000D01*
X159739999Y-118895000D01*
X159740000Y-118894999D01*
X159740000Y-118376057D01*
X159739999Y-118376053D01*
X159723641Y-118293814D01*
X159726584Y-118268950D01*
X159726584Y-118243907D01*
X159730125Y-118239033D01*
X159730833Y-118233053D01*
X159747827Y-118214668D01*
X159762548Y-118194407D01*
X159768276Y-118192545D01*
X159772365Y-118188123D01*
X159820739Y-118175500D01*
X159951679Y-118175500D01*
X160009870Y-118194407D01*
X160021676Y-118204490D01*
X160092686Y-118275500D01*
X160092688Y-118275501D01*
X160092690Y-118275503D01*
X160206810Y-118341390D01*
X160206808Y-118341390D01*
X160206812Y-118341391D01*
X160206814Y-118341392D01*
X160334108Y-118375500D01*
X160334110Y-118375500D01*
X160465890Y-118375500D01*
X160465892Y-118375500D01*
X160593186Y-118341392D01*
X160593188Y-118341390D01*
X160593190Y-118341390D01*
X160707309Y-118275503D01*
X160707309Y-118275502D01*
X160707314Y-118275500D01*
X160800500Y-118182314D01*
X160822043Y-118145000D01*
X160866390Y-118068190D01*
X160866390Y-118068188D01*
X160866392Y-118068186D01*
X160900500Y-117940892D01*
X160900500Y-117809108D01*
X160866392Y-117681814D01*
X160866390Y-117681811D01*
X160866390Y-117681809D01*
X160800503Y-117567690D01*
X160800501Y-117567688D01*
X160800500Y-117567686D01*
X160707314Y-117474500D01*
X160707311Y-117474498D01*
X160707309Y-117474496D01*
X160593189Y-117408609D01*
X160593191Y-117408609D01*
X160543799Y-117395375D01*
X160465892Y-117374500D01*
X160334108Y-117374500D01*
X160256200Y-117395375D01*
X160206809Y-117408609D01*
X160092690Y-117474496D01*
X160092684Y-117474500D01*
X160053581Y-117513604D01*
X159999064Y-117541381D01*
X159938632Y-117531809D01*
X159913577Y-117513606D01*
X159803511Y-117403540D01*
X159795750Y-117399059D01*
X159734992Y-117363980D01*
X159734988Y-117363978D01*
X159658564Y-117343500D01*
X159658562Y-117343500D01*
X158668653Y-117343500D01*
X158668650Y-117343500D01*
X158592226Y-117363978D01*
X158592222Y-117363980D01*
X158523706Y-117403538D01*
X157437740Y-118489504D01*
X157383223Y-118517281D01*
X157367736Y-118518500D01*
X155941435Y-118518500D01*
X155865011Y-118538978D01*
X155865007Y-118538980D01*
X155796491Y-118578538D01*
X154379524Y-119995504D01*
X154325007Y-120023281D01*
X154309520Y-120024500D01*
X154209108Y-120024500D01*
X154131200Y-120045375D01*
X154081809Y-120058609D01*
X153967690Y-120124496D01*
X153874496Y-120217690D01*
X153808609Y-120331809D01*
X153789539Y-120402978D01*
X153774500Y-120459108D01*
X142305656Y-120459108D01*
X142218189Y-120408609D01*
X142218191Y-120408609D01*
X142168799Y-120395375D01*
X142090892Y-120374500D01*
X141959108Y-120374500D01*
X141881200Y-120395375D01*
X141831809Y-120408609D01*
X141717690Y-120474496D01*
X141624496Y-120567690D01*
X141558609Y-120681809D01*
X141558608Y-120681814D01*
X141524500Y-120809108D01*
X135545773Y-120809108D01*
X135570500Y-120621288D01*
X135570500Y-120378712D01*
X135538838Y-120138211D01*
X135476054Y-119903900D01*
X135383224Y-119679788D01*
X135261936Y-119469711D01*
X135261933Y-119469707D01*
X135114270Y-119277268D01*
X135114268Y-119277266D01*
X135114265Y-119277262D01*
X134942738Y-119105735D01*
X134942733Y-119105731D01*
X134942731Y-119105729D01*
X134750292Y-118958066D01*
X134750289Y-118958064D01*
X134540212Y-118836776D01*
X134540208Y-118836774D01*
X134540204Y-118836772D01*
X134316105Y-118743948D01*
X134316104Y-118743947D01*
X134316100Y-118743946D01*
X134081789Y-118681162D01*
X134081786Y-118681161D01*
X134081784Y-118681161D01*
X133841289Y-118649500D01*
X133841288Y-118649500D01*
X133598712Y-118649500D01*
X133598710Y-118649500D01*
X133358218Y-118681161D01*
X133358213Y-118681161D01*
X133123907Y-118743944D01*
X133123894Y-118743948D01*
X132899795Y-118836772D01*
X132689707Y-118958066D01*
X132497268Y-119105729D01*
X132325729Y-119277268D01*
X132178066Y-119469707D01*
X132056772Y-119679795D01*
X131963948Y-119903894D01*
X131963944Y-119903907D01*
X131901161Y-120138213D01*
X131901161Y-120138218D01*
X131869500Y-120378710D01*
X130220500Y-120378710D01*
X130220500Y-118376055D01*
X149700000Y-118376055D01*
X149700000Y-118894999D01*
X149700001Y-118895000D01*
X150100000Y-118895000D01*
X150100000Y-119095000D01*
X149700001Y-119095000D01*
X149700000Y-119095001D01*
X149700000Y-119613944D01*
X149726901Y-119749183D01*
X149779666Y-119876571D01*
X149856271Y-119991220D01*
X149953779Y-120088728D01*
X150068428Y-120165333D01*
X150195817Y-120218098D01*
X150300000Y-120238822D01*
X150300000Y-119828788D01*
X150360504Y-119845000D01*
X150439496Y-119845000D01*
X150500000Y-119828788D01*
X150500000Y-120238821D01*
X150604181Y-120218098D01*
X150604183Y-120218098D01*
X150731571Y-120165333D01*
X150846220Y-120088728D01*
X150943728Y-119991220D01*
X151020333Y-119876571D01*
X151073098Y-119749183D01*
X151073098Y-119749181D01*
X151087922Y-119674659D01*
X151117818Y-119621275D01*
X151173383Y-119595659D01*
X151233393Y-119607596D01*
X151274926Y-119652525D01*
X151280646Y-119668349D01*
X151293718Y-119717134D01*
X151293720Y-119717138D01*
X151369481Y-119848360D01*
X151369483Y-119848362D01*
X151369485Y-119848365D01*
X151476635Y-119955515D01*
X151476637Y-119955516D01*
X151476639Y-119955518D01*
X151607861Y-120031279D01*
X151607859Y-120031279D01*
X151607863Y-120031280D01*
X151607865Y-120031281D01*
X151754234Y-120070500D01*
X151754236Y-120070500D01*
X151905764Y-120070500D01*
X151905766Y-120070500D01*
X152052135Y-120031281D01*
X152052137Y-120031279D01*
X152052139Y-120031279D01*
X152183360Y-119955518D01*
X152183360Y-119955517D01*
X152183365Y-119955515D01*
X152290515Y-119848365D01*
X152304261Y-119824556D01*
X152366279Y-119717139D01*
X152366279Y-119717137D01*
X152366281Y-119717135D01*
X152405500Y-119570766D01*
X152405500Y-119419234D01*
X152366281Y-119272865D01*
X152366279Y-119272861D01*
X152366279Y-119272860D01*
X152290518Y-119141639D01*
X152290516Y-119141637D01*
X152290515Y-119141635D01*
X152183365Y-119034485D01*
X152183362Y-119034483D01*
X152183360Y-119034481D01*
X152052138Y-118958720D01*
X152052140Y-118958720D01*
X151995347Y-118943503D01*
X151905766Y-118919500D01*
X151754234Y-118919500D01*
X151664652Y-118943503D01*
X151607860Y-118958720D01*
X151476639Y-119034481D01*
X151369481Y-119141639D01*
X151293720Y-119272861D01*
X151291237Y-119278857D01*
X151289108Y-119277975D01*
X151261302Y-119320793D01*
X151204180Y-119342719D01*
X151145080Y-119326883D01*
X151106575Y-119279332D01*
X151100000Y-119243855D01*
X151100000Y-119095001D01*
X151099999Y-119095000D01*
X150700000Y-119095000D01*
X150700000Y-118895000D01*
X151099999Y-118895000D01*
X151100000Y-118894999D01*
X151100000Y-118376057D01*
X151099999Y-118376055D01*
X151073098Y-118240816D01*
X151020333Y-118113428D01*
X150943728Y-117998779D01*
X150846220Y-117901271D01*
X150731571Y-117824666D01*
X150604182Y-117771901D01*
X150500000Y-117751177D01*
X150500000Y-118161211D01*
X150439496Y-118145000D01*
X150360504Y-118145000D01*
X150300000Y-118161211D01*
X150300000Y-117751177D01*
X150195817Y-117771901D01*
X150068428Y-117824666D01*
X149953779Y-117901271D01*
X149856271Y-117998779D01*
X149779666Y-118113428D01*
X149726901Y-118240816D01*
X149700000Y-118376055D01*
X130220500Y-118376055D01*
X130220500Y-117034108D01*
X148099500Y-117034108D01*
X148099500Y-117165892D01*
X148125382Y-117262484D01*
X148133609Y-117293190D01*
X148199496Y-117407309D01*
X148199498Y-117407311D01*
X148199500Y-117407314D01*
X148292686Y-117500500D01*
X148292688Y-117500501D01*
X148292690Y-117500503D01*
X148406810Y-117566390D01*
X148406808Y-117566390D01*
X148406812Y-117566391D01*
X148406814Y-117566392D01*
X148534108Y-117600500D01*
X148534110Y-117600500D01*
X148665890Y-117600500D01*
X148665892Y-117600500D01*
X148793186Y-117566392D01*
X148793188Y-117566390D01*
X148793190Y-117566390D01*
X148907309Y-117500503D01*
X148907309Y-117500502D01*
X148907314Y-117500500D01*
X149000500Y-117407314D01*
X149066392Y-117293186D01*
X149067750Y-117288114D01*
X149093373Y-117243728D01*
X149602993Y-116734108D01*
X151819500Y-116734108D01*
X151819500Y-116865892D01*
X151835855Y-116926931D01*
X151853609Y-116993190D01*
X151919496Y-117107309D01*
X151919498Y-117107311D01*
X151919500Y-117107314D01*
X152012686Y-117200500D01*
X152012688Y-117200501D01*
X152012690Y-117200503D01*
X152126810Y-117266390D01*
X152126808Y-117266390D01*
X152126812Y-117266391D01*
X152126814Y-117266392D01*
X152254108Y-117300500D01*
X152254110Y-117300500D01*
X152385890Y-117300500D01*
X152385892Y-117300500D01*
X152513186Y-117266392D01*
X152513188Y-117266390D01*
X152513190Y-117266390D01*
X152627309Y-117200503D01*
X152627309Y-117200502D01*
X152627314Y-117200500D01*
X152819999Y-117007815D01*
X152897318Y-116930497D01*
X152951834Y-116902720D01*
X152967321Y-116901501D01*
X153303076Y-116901501D01*
X153361267Y-116920408D01*
X153397231Y-116969908D01*
X153398702Y-117026121D01*
X153369500Y-117135109D01*
X153369500Y-117266893D01*
X153378505Y-117300500D01*
X153403609Y-117394191D01*
X153469496Y-117508310D01*
X153469498Y-117508312D01*
X153469500Y-117508315D01*
X153562686Y-117601501D01*
X153562688Y-117601502D01*
X153562690Y-117601504D01*
X153676810Y-117667391D01*
X153676808Y-117667391D01*
X153676812Y-117667392D01*
X153676814Y-117667393D01*
X153804108Y-117701501D01*
X153804110Y-117701501D01*
X153935890Y-117701501D01*
X153935892Y-117701501D01*
X154063186Y-117667393D01*
X154063188Y-117667391D01*
X154063190Y-117667391D01*
X154177309Y-117601504D01*
X154177309Y-117601503D01*
X154177314Y-117601501D01*
X154270500Y-117508315D01*
X154299026Y-117458907D01*
X154309943Y-117439999D01*
X154355413Y-117399059D01*
X154395679Y-117390500D01*
X154883145Y-117390500D01*
X154941336Y-117409407D01*
X154977300Y-117458907D01*
X154982145Y-117489500D01*
X154982145Y-117553742D01*
X154987707Y-117574500D01*
X155016254Y-117681040D01*
X155082141Y-117795159D01*
X155082143Y-117795161D01*
X155082145Y-117795164D01*
X155175331Y-117888350D01*
X155175333Y-117888351D01*
X155175335Y-117888353D01*
X155289455Y-117954240D01*
X155289453Y-117954240D01*
X155289457Y-117954241D01*
X155289459Y-117954242D01*
X155416753Y-117988350D01*
X155416755Y-117988350D01*
X155548535Y-117988350D01*
X155548537Y-117988350D01*
X155675831Y-117954242D01*
X155675833Y-117954240D01*
X155675835Y-117954240D01*
X155789954Y-117888353D01*
X155789954Y-117888352D01*
X155789959Y-117888350D01*
X155883145Y-117795164D01*
X155908541Y-117751177D01*
X155949035Y-117681040D01*
X155949035Y-117681038D01*
X155949037Y-117681036D01*
X155983145Y-117553742D01*
X155983145Y-117421958D01*
X155949037Y-117294664D01*
X155949035Y-117294661D01*
X155949035Y-117294659D01*
X155883148Y-117180540D01*
X155883146Y-117180538D01*
X155883145Y-117180536D01*
X155789959Y-117087350D01*
X155788033Y-117086238D01*
X155786967Y-117085054D01*
X155784810Y-117083399D01*
X155785116Y-117082999D01*
X155747092Y-117040770D01*
X155740695Y-116979920D01*
X155771286Y-116926931D01*
X155827181Y-116902044D01*
X155837532Y-116901501D01*
X157189889Y-116901501D01*
X157189891Y-116901501D01*
X157317185Y-116867393D01*
X157317187Y-116867391D01*
X157317189Y-116867391D01*
X157431308Y-116801504D01*
X157431308Y-116801503D01*
X157431313Y-116801501D01*
X157525500Y-116707314D01*
X157526946Y-116704809D01*
X157591390Y-116593190D01*
X157591390Y-116593188D01*
X157591392Y-116593186D01*
X157625500Y-116465892D01*
X157625500Y-116334107D01*
X157591392Y-116206814D01*
X157525500Y-116092685D01*
X157432315Y-115999500D01*
X157318186Y-115933608D01*
X157190893Y-115899500D01*
X157059108Y-115899500D01*
X157059106Y-115899500D01*
X157057940Y-115899654D01*
X157045017Y-115900501D01*
X154690892Y-115900501D01*
X152784892Y-115900501D01*
X152653107Y-115900501D01*
X152575199Y-115921376D01*
X152525808Y-115934610D01*
X152411689Y-116000497D01*
X151919496Y-116492690D01*
X151853609Y-116606809D01*
X151846428Y-116633609D01*
X151819500Y-116734108D01*
X149602993Y-116734108D01*
X152972607Y-113364496D01*
X153027124Y-113336719D01*
X153042611Y-113335500D01*
X157374307Y-113335500D01*
X157374309Y-113335500D01*
X157488886Y-113304799D01*
X157488888Y-113304797D01*
X157488890Y-113304797D01*
X157591608Y-113245492D01*
X157591608Y-113245491D01*
X157591613Y-113245489D01*
X157675489Y-113161613D01*
X157698483Y-113121784D01*
X157743952Y-113080845D01*
X157758588Y-113075661D01*
X157793186Y-113066392D01*
X157907314Y-113000500D01*
X158000500Y-112907314D01*
X158066392Y-112793186D01*
X158082222Y-112734108D01*
X162674500Y-112734108D01*
X162674500Y-112865892D01*
X162685598Y-112907309D01*
X162708609Y-112993190D01*
X162774496Y-113107309D01*
X162774498Y-113107311D01*
X162774500Y-113107314D01*
X162867686Y-113200500D01*
X162867688Y-113200501D01*
X162867690Y-113200503D01*
X162981810Y-113266390D01*
X162981808Y-113266390D01*
X162981812Y-113266391D01*
X162981814Y-113266392D01*
X163109108Y-113300500D01*
X163109110Y-113300500D01*
X163240890Y-113300500D01*
X163240892Y-113300500D01*
X163368186Y-113266392D01*
X163368188Y-113266390D01*
X163368190Y-113266390D01*
X163482309Y-113200503D01*
X163482309Y-113200502D01*
X163482314Y-113200500D01*
X163575500Y-113107314D01*
X163593776Y-113075659D01*
X163641390Y-112993190D01*
X163641390Y-112993188D01*
X163641392Y-112993186D01*
X163675500Y-112865892D01*
X163675500Y-112734108D01*
X163641392Y-112606814D01*
X163641390Y-112606811D01*
X163641390Y-112606809D01*
X163575503Y-112492690D01*
X163575501Y-112492688D01*
X163575500Y-112492686D01*
X163482314Y-112399500D01*
X163482311Y-112399498D01*
X163482309Y-112399496D01*
X163368189Y-112333609D01*
X163368191Y-112333609D01*
X163318799Y-112320375D01*
X163240892Y-112299500D01*
X163109108Y-112299500D01*
X163031200Y-112320375D01*
X162981809Y-112333609D01*
X162867690Y-112399496D01*
X162774496Y-112492690D01*
X162708609Y-112606809D01*
X162692778Y-112665892D01*
X162674500Y-112734108D01*
X158082222Y-112734108D01*
X158100500Y-112665892D01*
X158100500Y-112534108D01*
X158066392Y-112406814D01*
X158066390Y-112406811D01*
X158066390Y-112406809D01*
X158000503Y-112292690D01*
X158000501Y-112292688D01*
X158000500Y-112292686D01*
X157907314Y-112199500D01*
X157907311Y-112199498D01*
X157907309Y-112199496D01*
X157793189Y-112133609D01*
X157793191Y-112133609D01*
X157743799Y-112120375D01*
X157665892Y-112099500D01*
X157534108Y-112099500D01*
X157456200Y-112120375D01*
X157406809Y-112133609D01*
X157292690Y-112199496D01*
X157199499Y-112292687D01*
X157195566Y-112299500D01*
X157146201Y-112385001D01*
X157100733Y-112425941D01*
X157060466Y-112434500D01*
X152755691Y-112434500D01*
X152710508Y-112446606D01*
X152665325Y-112458713D01*
X152665324Y-112458712D01*
X152641112Y-112465201D01*
X152641109Y-112465202D01*
X152538390Y-112524507D01*
X152538389Y-112524508D01*
X148456271Y-116606624D01*
X148411899Y-116632244D01*
X148406819Y-116633605D01*
X148406810Y-116633609D01*
X148292690Y-116699496D01*
X148199496Y-116792690D01*
X148133609Y-116906809D01*
X148127262Y-116930497D01*
X148099500Y-117034108D01*
X130220500Y-117034108D01*
X130220500Y-116331608D01*
X136372000Y-116331608D01*
X136372000Y-116463392D01*
X136402079Y-116575651D01*
X136406109Y-116590690D01*
X136471996Y-116704809D01*
X136471998Y-116704811D01*
X136472000Y-116704814D01*
X136565186Y-116798000D01*
X136565188Y-116798001D01*
X136565190Y-116798003D01*
X136679310Y-116863890D01*
X136679308Y-116863890D01*
X136679312Y-116863891D01*
X136679314Y-116863892D01*
X136806608Y-116898000D01*
X136806610Y-116898000D01*
X136938390Y-116898000D01*
X136938392Y-116898000D01*
X137065686Y-116863892D01*
X137065688Y-116863890D01*
X137065690Y-116863890D01*
X137179809Y-116798003D01*
X137179809Y-116798002D01*
X137179814Y-116798000D01*
X137273000Y-116704814D01*
X137276070Y-116699496D01*
X137338890Y-116590690D01*
X137338890Y-116590688D01*
X137338892Y-116590686D01*
X137373000Y-116463392D01*
X137373000Y-116331608D01*
X137338892Y-116204314D01*
X137338890Y-116204311D01*
X137338890Y-116204309D01*
X137273003Y-116090190D01*
X137273001Y-116090188D01*
X137273000Y-116090186D01*
X137179814Y-115997000D01*
X137179811Y-115996998D01*
X137179809Y-115996996D01*
X137065689Y-115931109D01*
X137065691Y-115931109D01*
X137016299Y-115917875D01*
X136938392Y-115897000D01*
X136806608Y-115897000D01*
X136728700Y-115917875D01*
X136679309Y-115931109D01*
X136565190Y-115996996D01*
X136471996Y-116090190D01*
X136406109Y-116204309D01*
X136406108Y-116204314D01*
X136372000Y-116331608D01*
X130220500Y-116331608D01*
X130220500Y-107196581D01*
X133710000Y-107196581D01*
X133710000Y-107403418D01*
X133750349Y-107606272D01*
X133829501Y-107797360D01*
X133829508Y-107797374D01*
X133944405Y-107969329D01*
X133946826Y-107971750D01*
X134342210Y-107576365D01*
X134359901Y-107607007D01*
X134452993Y-107700099D01*
X134483632Y-107717788D01*
X134088249Y-108113173D01*
X134090670Y-108115594D01*
X134262625Y-108230491D01*
X134262639Y-108230498D01*
X134453727Y-108309650D01*
X134656581Y-108349999D01*
X134656586Y-108350000D01*
X134863414Y-108350000D01*
X134863418Y-108349999D01*
X135066272Y-108309650D01*
X135257360Y-108230498D01*
X135257366Y-108230495D01*
X135429333Y-108115591D01*
X135431750Y-108113173D01*
X135036366Y-107717789D01*
X135067007Y-107700099D01*
X135160099Y-107607007D01*
X135177789Y-107576366D01*
X135573173Y-107971750D01*
X135575591Y-107969333D01*
X135690495Y-107797366D01*
X135690498Y-107797360D01*
X135769650Y-107606272D01*
X135809999Y-107403418D01*
X135810000Y-107403413D01*
X135810000Y-107196586D01*
X135809999Y-107196581D01*
X136250000Y-107196581D01*
X136250000Y-107403418D01*
X136290349Y-107606272D01*
X136369501Y-107797360D01*
X136369508Y-107797374D01*
X136484405Y-107969329D01*
X136486826Y-107971750D01*
X136882210Y-107576365D01*
X136899901Y-107607007D01*
X136992993Y-107700099D01*
X137023632Y-107717788D01*
X136628249Y-108113173D01*
X136630670Y-108115594D01*
X136802625Y-108230491D01*
X136802639Y-108230498D01*
X136993727Y-108309650D01*
X137196581Y-108349999D01*
X137196586Y-108350000D01*
X137403414Y-108350000D01*
X137403418Y-108349999D01*
X137606272Y-108309650D01*
X137797360Y-108230498D01*
X137797366Y-108230495D01*
X137969333Y-108115591D01*
X137971750Y-108113173D01*
X137576366Y-107717789D01*
X137607007Y-107700099D01*
X137700099Y-107607007D01*
X137717789Y-107576366D01*
X138113173Y-107971750D01*
X138115591Y-107969333D01*
X138230495Y-107797366D01*
X138230498Y-107797360D01*
X138309650Y-107606272D01*
X138349999Y-107403418D01*
X138350000Y-107403413D01*
X138350000Y-107372644D01*
X139789500Y-107372644D01*
X139789500Y-107577355D01*
X139821521Y-107779529D01*
X139884780Y-107974219D01*
X139977712Y-108156609D01*
X139977714Y-108156613D01*
X140098029Y-108322213D01*
X140098031Y-108322215D01*
X140098034Y-108322219D01*
X140242781Y-108466966D01*
X140242784Y-108466968D01*
X140242786Y-108466970D01*
X140408386Y-108587285D01*
X140408390Y-108587287D01*
X140590781Y-108680220D01*
X140785466Y-108743477D01*
X140785467Y-108743477D01*
X140785470Y-108743478D01*
X140987645Y-108775500D01*
X140987648Y-108775500D01*
X141192355Y-108775500D01*
X141394529Y-108743478D01*
X141394530Y-108743477D01*
X141394534Y-108743477D01*
X141589219Y-108680220D01*
X141771610Y-108587287D01*
X141937219Y-108466966D01*
X142081966Y-108322219D01*
X142202287Y-108156610D01*
X142295220Y-107974219D01*
X142358477Y-107779534D01*
X142358478Y-107779529D01*
X142390500Y-107577355D01*
X142390500Y-107372644D01*
X142358478Y-107170470D01*
X142358477Y-107170466D01*
X142295220Y-106975781D01*
X142202287Y-106793390D01*
X142202285Y-106793386D01*
X142081969Y-106627785D01*
X142081968Y-106627784D01*
X142081966Y-106627781D01*
X142024909Y-106570724D01*
X149949500Y-106570724D01*
X149949500Y-108379267D01*
X149952353Y-108409696D01*
X149952353Y-108409698D01*
X149952354Y-108409700D01*
X149972392Y-108466966D01*
X149997208Y-108537886D01*
X150077845Y-108647145D01*
X150077854Y-108647154D01*
X150187115Y-108727792D01*
X150187116Y-108727792D01*
X150187117Y-108727793D01*
X150315300Y-108772646D01*
X150345733Y-108775500D01*
X152154266Y-108775499D01*
X152154267Y-108775499D01*
X152160352Y-108774928D01*
X152184700Y-108772646D01*
X152312883Y-108727793D01*
X152377342Y-108680220D01*
X152422145Y-108647154D01*
X152422146Y-108647152D01*
X152422150Y-108647150D01*
X152502793Y-108537883D01*
X152547646Y-108409700D01*
X152550500Y-108379267D01*
X152550499Y-106570734D01*
X152547646Y-106540300D01*
X152502793Y-106412117D01*
X152502791Y-106412115D01*
X152502791Y-106412113D01*
X152422154Y-106302854D01*
X152422145Y-106302845D01*
X152312884Y-106222207D01*
X152184704Y-106177355D01*
X152184695Y-106177353D01*
X152154274Y-106174500D01*
X150345732Y-106174500D01*
X150315303Y-106177353D01*
X150187113Y-106222208D01*
X150077854Y-106302845D01*
X150077845Y-106302854D01*
X149997207Y-106412115D01*
X149952355Y-106540295D01*
X149952353Y-106540304D01*
X149949500Y-106570724D01*
X142024909Y-106570724D01*
X141937219Y-106483034D01*
X141937215Y-106483031D01*
X141937213Y-106483029D01*
X141771613Y-106362714D01*
X141771609Y-106362712D01*
X141589219Y-106269780D01*
X141394529Y-106206521D01*
X141192355Y-106174500D01*
X141192352Y-106174500D01*
X140987648Y-106174500D01*
X140987645Y-106174500D01*
X140785470Y-106206521D01*
X140590780Y-106269780D01*
X140408390Y-106362712D01*
X140408386Y-106362714D01*
X140242786Y-106483029D01*
X140098029Y-106627786D01*
X139977714Y-106793386D01*
X139977712Y-106793390D01*
X139884780Y-106975780D01*
X139821521Y-107170470D01*
X139789500Y-107372644D01*
X138350000Y-107372644D01*
X138350000Y-107196586D01*
X138349999Y-107196581D01*
X138309650Y-106993727D01*
X138230498Y-106802639D01*
X138230491Y-106802625D01*
X138115594Y-106630670D01*
X138113173Y-106628249D01*
X137717788Y-107023632D01*
X137700099Y-106992993D01*
X137607007Y-106899901D01*
X137576365Y-106882210D01*
X137971750Y-106486826D01*
X137969329Y-106484405D01*
X137797374Y-106369508D01*
X137797360Y-106369501D01*
X137606272Y-106290349D01*
X137403418Y-106250000D01*
X137196581Y-106250000D01*
X136993727Y-106290349D01*
X136802639Y-106369501D01*
X136802630Y-106369505D01*
X136630665Y-106484410D01*
X136628248Y-106486825D01*
X137023633Y-106882210D01*
X136992993Y-106899901D01*
X136899901Y-106992993D01*
X136882210Y-107023633D01*
X136486825Y-106628248D01*
X136484410Y-106630665D01*
X136369505Y-106802630D01*
X136369501Y-106802639D01*
X136290349Y-106993727D01*
X136250000Y-107196581D01*
X135809999Y-107196581D01*
X135769650Y-106993727D01*
X135690498Y-106802639D01*
X135690491Y-106802625D01*
X135575594Y-106630670D01*
X135573173Y-106628249D01*
X135177788Y-107023632D01*
X135160099Y-106992993D01*
X135067007Y-106899901D01*
X135036365Y-106882210D01*
X135431750Y-106486826D01*
X135429329Y-106484405D01*
X135257374Y-106369508D01*
X135257360Y-106369501D01*
X135066272Y-106290349D01*
X134863418Y-106250000D01*
X134656581Y-106250000D01*
X134453727Y-106290349D01*
X134262639Y-106369501D01*
X134262630Y-106369505D01*
X134090665Y-106484410D01*
X134088248Y-106486825D01*
X134483633Y-106882210D01*
X134452993Y-106899901D01*
X134359901Y-106992993D01*
X134342210Y-107023633D01*
X133946825Y-106628248D01*
X133944410Y-106630665D01*
X133829505Y-106802630D01*
X133829501Y-106802639D01*
X133750349Y-106993727D01*
X133710000Y-107196581D01*
X130220500Y-107196581D01*
X130220500Y-102116532D01*
X133709500Y-102116532D01*
X133709500Y-102323467D01*
X133749869Y-102526418D01*
X133829058Y-102717597D01*
X133829059Y-102717598D01*
X133944023Y-102889655D01*
X134090345Y-103035977D01*
X134262402Y-103150941D01*
X134453580Y-103230130D01*
X134656535Y-103270500D01*
X134656536Y-103270500D01*
X134863464Y-103270500D01*
X134863465Y-103270500D01*
X135066420Y-103230130D01*
X135257598Y-103150941D01*
X135429655Y-103035977D01*
X135575977Y-102889655D01*
X135690941Y-102717598D01*
X135770130Y-102526420D01*
X135810500Y-102323465D01*
X135810500Y-102116535D01*
X135770130Y-101913580D01*
X135713802Y-101777595D01*
X135709002Y-101716599D01*
X135735264Y-101669706D01*
X136244476Y-101160496D01*
X136298992Y-101132719D01*
X136314479Y-101131500D01*
X136711846Y-101131500D01*
X136770037Y-101150407D01*
X136806001Y-101199907D01*
X136806001Y-101261093D01*
X136770037Y-101310593D01*
X136766847Y-101312816D01*
X136630348Y-101404020D01*
X136484020Y-101550348D01*
X136369058Y-101722402D01*
X136289869Y-101913581D01*
X136249500Y-102116532D01*
X136249500Y-102323467D01*
X136289869Y-102526418D01*
X136369058Y-102717597D01*
X136369059Y-102717598D01*
X136484023Y-102889655D01*
X136630345Y-103035977D01*
X136630348Y-103035979D01*
X136766847Y-103127184D01*
X136804727Y-103175234D01*
X136807129Y-103236372D01*
X136773137Y-103287246D01*
X136715733Y-103308424D01*
X136711846Y-103308500D01*
X135871435Y-103308500D01*
X135795011Y-103328978D01*
X135795007Y-103328980D01*
X135726489Y-103368539D01*
X135310291Y-103784736D01*
X135255775Y-103812513D01*
X135202402Y-103806196D01*
X135197858Y-103804314D01*
X135162898Y-103789832D01*
X135066418Y-103749869D01*
X134863467Y-103709500D01*
X134863465Y-103709500D01*
X134656535Y-103709500D01*
X134656532Y-103709500D01*
X134453581Y-103749869D01*
X134262402Y-103829058D01*
X134090348Y-103944020D01*
X133944020Y-104090348D01*
X133829058Y-104262402D01*
X133749869Y-104453581D01*
X133709500Y-104656532D01*
X133709500Y-104863467D01*
X133749869Y-105066418D01*
X133829058Y-105257597D01*
X133934538Y-105415460D01*
X133944023Y-105429655D01*
X134090345Y-105575977D01*
X134262402Y-105690941D01*
X134453580Y-105770130D01*
X134656535Y-105810500D01*
X134656536Y-105810500D01*
X134863464Y-105810500D01*
X134863465Y-105810500D01*
X135066420Y-105770130D01*
X135257598Y-105690941D01*
X135429655Y-105575977D01*
X135575977Y-105429655D01*
X135690941Y-105257598D01*
X135770130Y-105066420D01*
X135810500Y-104863465D01*
X135810500Y-104656535D01*
X135770130Y-104453580D01*
X135713801Y-104317592D01*
X135709001Y-104256600D01*
X135735261Y-104209708D01*
X136006475Y-103938496D01*
X136060991Y-103910719D01*
X136076478Y-103909500D01*
X136425861Y-103909500D01*
X136484052Y-103928407D01*
X136520016Y-103977907D01*
X136520016Y-104039093D01*
X136495866Y-104078501D01*
X136484023Y-104090345D01*
X136484020Y-104090348D01*
X136369058Y-104262402D01*
X136289869Y-104453581D01*
X136249500Y-104656532D01*
X136249500Y-104863467D01*
X136289869Y-105066418D01*
X136369058Y-105257597D01*
X136474538Y-105415460D01*
X136484023Y-105429655D01*
X136630345Y-105575977D01*
X136802402Y-105690941D01*
X136993580Y-105770130D01*
X137196535Y-105810500D01*
X137196536Y-105810500D01*
X137403464Y-105810500D01*
X137403465Y-105810500D01*
X137606420Y-105770130D01*
X137797598Y-105690941D01*
X137969655Y-105575977D01*
X138115977Y-105429655D01*
X138230941Y-105257598D01*
X138310130Y-105066420D01*
X138350500Y-104863465D01*
X138350500Y-104656535D01*
X138310130Y-104453580D01*
X138230941Y-104262402D01*
X138115977Y-104090345D01*
X138104133Y-104078501D01*
X138076358Y-104023987D01*
X138085929Y-103963555D01*
X138129194Y-103920290D01*
X138174139Y-103909500D01*
X147680563Y-103909500D01*
X147680563Y-103909499D01*
X147756989Y-103889021D01*
X147825511Y-103849460D01*
X147881460Y-103793511D01*
X155565460Y-96109511D01*
X155586420Y-96073207D01*
X155589615Y-96067674D01*
X155591404Y-96064572D01*
X155605021Y-96040989D01*
X155625500Y-95964562D01*
X155625500Y-92048321D01*
X155644407Y-91990130D01*
X155654490Y-91978323D01*
X155725500Y-91907314D01*
X155742823Y-91877310D01*
X155791390Y-91793190D01*
X155791390Y-91793188D01*
X155791392Y-91793186D01*
X155825500Y-91665892D01*
X155825500Y-91534108D01*
X155791392Y-91406814D01*
X155791390Y-91406811D01*
X155791390Y-91406809D01*
X155725503Y-91292690D01*
X155725501Y-91292688D01*
X155725500Y-91292686D01*
X155632314Y-91199500D01*
X155632311Y-91199498D01*
X155632309Y-91199496D01*
X155518189Y-91133609D01*
X155518191Y-91133609D01*
X155468799Y-91120375D01*
X155390892Y-91099500D01*
X155259108Y-91099500D01*
X155181200Y-91120375D01*
X155131809Y-91133609D01*
X155017690Y-91199496D01*
X154924496Y-91292690D01*
X154858609Y-91406809D01*
X154849585Y-91440489D01*
X154824500Y-91534108D01*
X154824500Y-91665892D01*
X154843256Y-91735890D01*
X154858609Y-91793190D01*
X154924496Y-91907309D01*
X154924498Y-91907311D01*
X154924500Y-91907314D01*
X154995505Y-91978319D01*
X155023281Y-92032834D01*
X155024500Y-92048321D01*
X155024500Y-95759521D01*
X155005593Y-95817712D01*
X154995504Y-95829525D01*
X147545525Y-103279504D01*
X147491008Y-103307281D01*
X147475521Y-103308500D01*
X137888154Y-103308500D01*
X137829963Y-103289593D01*
X137793999Y-103240093D01*
X137793999Y-103178907D01*
X137829963Y-103129407D01*
X137833153Y-103127184D01*
X137969655Y-103035977D01*
X138115977Y-102889655D01*
X138230941Y-102717598D01*
X138287268Y-102581614D01*
X138327005Y-102535088D01*
X138378732Y-102520500D01*
X147219563Y-102520500D01*
X147219563Y-102520499D01*
X147295989Y-102500021D01*
X147364511Y-102460460D01*
X147420460Y-102404511D01*
X154265460Y-95559511D01*
X154267776Y-95555500D01*
X154305021Y-95490989D01*
X154325500Y-95414562D01*
X154325500Y-92023321D01*
X154344407Y-91965130D01*
X154354490Y-91953323D01*
X154425500Y-91882314D01*
X154436832Y-91862686D01*
X154491390Y-91768190D01*
X154491390Y-91768188D01*
X154491392Y-91768186D01*
X154525500Y-91640892D01*
X154525500Y-91509108D01*
X154491392Y-91381814D01*
X154491390Y-91381811D01*
X154491390Y-91381809D01*
X154425503Y-91267690D01*
X154425501Y-91267688D01*
X154425500Y-91267686D01*
X154332314Y-91174500D01*
X154332311Y-91174498D01*
X154332309Y-91174496D01*
X154218189Y-91108609D01*
X154218191Y-91108609D01*
X154168799Y-91095375D01*
X154090892Y-91074500D01*
X153959108Y-91074500D01*
X153881200Y-91095375D01*
X153831809Y-91108609D01*
X153717690Y-91174496D01*
X153624496Y-91267690D01*
X153558609Y-91381809D01*
X153551909Y-91406814D01*
X153524500Y-91509108D01*
X153524500Y-91640892D01*
X153535163Y-91680686D01*
X153558609Y-91768190D01*
X153624496Y-91882309D01*
X153624498Y-91882311D01*
X153624500Y-91882314D01*
X153695505Y-91953319D01*
X153723281Y-92007834D01*
X153724500Y-92023321D01*
X153724500Y-95209521D01*
X153705593Y-95267712D01*
X153695504Y-95279525D01*
X147084525Y-101890504D01*
X147030008Y-101918281D01*
X147014521Y-101919500D01*
X138378732Y-101919500D01*
X138320541Y-101900593D01*
X138287268Y-101858386D01*
X138230941Y-101722402D01*
X138115979Y-101550348D01*
X138115977Y-101550345D01*
X137969655Y-101404023D01*
X137833152Y-101312815D01*
X137795273Y-101264766D01*
X137792871Y-101203628D01*
X137826863Y-101152754D01*
X137884267Y-101131576D01*
X137888154Y-101131500D01*
X147008563Y-101131500D01*
X147008563Y-101131499D01*
X147084989Y-101111021D01*
X147153511Y-101071460D01*
X147209460Y-101015511D01*
X153040460Y-95184511D01*
X153080021Y-95115989D01*
X153100500Y-95039562D01*
X153100500Y-91988321D01*
X153119407Y-91930130D01*
X153129490Y-91918323D01*
X153170500Y-91877314D01*
X153218132Y-91794814D01*
X153236390Y-91763190D01*
X153236390Y-91763188D01*
X153236392Y-91763186D01*
X153270500Y-91635892D01*
X153270500Y-91504108D01*
X153236392Y-91376814D01*
X153236390Y-91376811D01*
X153236390Y-91376809D01*
X153170503Y-91262690D01*
X153170501Y-91262688D01*
X153170500Y-91262686D01*
X153077314Y-91169500D01*
X153077311Y-91169498D01*
X153077309Y-91169496D01*
X152963189Y-91103609D01*
X152963191Y-91103609D01*
X152909149Y-91089129D01*
X152835892Y-91069500D01*
X152704108Y-91069500D01*
X152630851Y-91089129D01*
X152576809Y-91103609D01*
X152462690Y-91169496D01*
X152369496Y-91262690D01*
X152303609Y-91376809D01*
X152291605Y-91421609D01*
X152269500Y-91504108D01*
X152269500Y-91635892D01*
X152285205Y-91694504D01*
X152303609Y-91763190D01*
X152369496Y-91877309D01*
X152369498Y-91877311D01*
X152369500Y-91877314D01*
X152462686Y-91970500D01*
X152462688Y-91970501D01*
X152467275Y-91975088D01*
X152465884Y-91976478D01*
X152495419Y-92019439D01*
X152499500Y-92047569D01*
X152499500Y-94834521D01*
X152480593Y-94892712D01*
X152470504Y-94904525D01*
X146873525Y-100501504D01*
X146819008Y-100529281D01*
X146803521Y-100530500D01*
X145141924Y-100530500D01*
X145083733Y-100511593D01*
X145047769Y-100462093D01*
X145046297Y-100405879D01*
X145075500Y-100296892D01*
X145075500Y-100196478D01*
X145094407Y-100138287D01*
X145104496Y-100126474D01*
X147129990Y-98100980D01*
X149190460Y-96040511D01*
X149213560Y-96000500D01*
X149230021Y-95971989D01*
X149250500Y-95895562D01*
X149250500Y-92498319D01*
X149269407Y-92440128D01*
X149279490Y-92428321D01*
X149350500Y-92357312D01*
X149416392Y-92243184D01*
X149450500Y-92115890D01*
X149450500Y-91984106D01*
X149416392Y-91856812D01*
X149416390Y-91856809D01*
X149416390Y-91856807D01*
X149350503Y-91742688D01*
X149350501Y-91742686D01*
X149350500Y-91742684D01*
X149302317Y-91694501D01*
X149274542Y-91639987D01*
X149284113Y-91579555D01*
X149327378Y-91536290D01*
X149372323Y-91525500D01*
X150703561Y-91525500D01*
X150761752Y-91544407D01*
X150797716Y-91593907D01*
X150799183Y-91598861D01*
X150817143Y-91665890D01*
X150821109Y-91680690D01*
X150886996Y-91794809D01*
X150886998Y-91794811D01*
X150887000Y-91794814D01*
X150980186Y-91888000D01*
X150980188Y-91888001D01*
X150980190Y-91888003D01*
X151094310Y-91953890D01*
X151094308Y-91953890D01*
X151094312Y-91953891D01*
X151094314Y-91953892D01*
X151221608Y-91988000D01*
X151221610Y-91988000D01*
X151353390Y-91988000D01*
X151353392Y-91988000D01*
X151480686Y-91953892D01*
X151480688Y-91953890D01*
X151480690Y-91953890D01*
X151594809Y-91888003D01*
X151594809Y-91888002D01*
X151594814Y-91888000D01*
X151688000Y-91794814D01*
X151702615Y-91769500D01*
X151753890Y-91680690D01*
X151753890Y-91680688D01*
X151753892Y-91680686D01*
X151788000Y-91553392D01*
X151788000Y-91421608D01*
X151753892Y-91294314D01*
X151753890Y-91294311D01*
X151753890Y-91294309D01*
X151688003Y-91180190D01*
X151688001Y-91180188D01*
X151688000Y-91180186D01*
X151594814Y-91087000D01*
X151594811Y-91086998D01*
X151594809Y-91086996D01*
X151480689Y-91021109D01*
X151480691Y-91021109D01*
X151431299Y-91007875D01*
X151353392Y-90987000D01*
X151240298Y-90987000D01*
X151190798Y-90973736D01*
X151164319Y-90958448D01*
X151140988Y-90944978D01*
X151064564Y-90924500D01*
X151064562Y-90924500D01*
X149197321Y-90924500D01*
X149139130Y-90905593D01*
X149103166Y-90856093D01*
X149103166Y-90794907D01*
X149127315Y-90755498D01*
X149200500Y-90682314D01*
X149266392Y-90568186D01*
X149300500Y-90440892D01*
X149300500Y-90309108D01*
X149266392Y-90181814D01*
X149266390Y-90181811D01*
X149266390Y-90181809D01*
X149207033Y-90079000D01*
X149194311Y-90019152D01*
X149219198Y-89963256D01*
X149272186Y-89932663D01*
X149292769Y-89930500D01*
X155764521Y-89930500D01*
X155822712Y-89949407D01*
X155834525Y-89959496D01*
X156964158Y-91089129D01*
X156991935Y-91143646D01*
X156982364Y-91204078D01*
X156939099Y-91247343D01*
X156878667Y-91256914D01*
X156844654Y-91244870D01*
X156773187Y-91203608D01*
X156730754Y-91192238D01*
X156645892Y-91169500D01*
X156514108Y-91169500D01*
X156436200Y-91190375D01*
X156386809Y-91203609D01*
X156272690Y-91269496D01*
X156179496Y-91362690D01*
X156113609Y-91476809D01*
X156101901Y-91520504D01*
X156079500Y-91604108D01*
X156079500Y-91735892D01*
X156094852Y-91793186D01*
X156113609Y-91863190D01*
X156179496Y-91977309D01*
X156179498Y-91977311D01*
X156179500Y-91977314D01*
X156250505Y-92048319D01*
X156278281Y-92102834D01*
X156279500Y-92118321D01*
X156279500Y-96629521D01*
X156260593Y-96687712D01*
X156250504Y-96699525D01*
X148104525Y-104845504D01*
X148050008Y-104873281D01*
X148034521Y-104874500D01*
X141073321Y-104874500D01*
X141015130Y-104855593D01*
X141003323Y-104845509D01*
X140932314Y-104774500D01*
X140932311Y-104774498D01*
X140932309Y-104774496D01*
X140818189Y-104708609D01*
X140818191Y-104708609D01*
X140768799Y-104695375D01*
X140690892Y-104674500D01*
X140559108Y-104674500D01*
X140481200Y-104695375D01*
X140431809Y-104708609D01*
X140317690Y-104774496D01*
X140224496Y-104867690D01*
X140158609Y-104981809D01*
X140158608Y-104981814D01*
X140124500Y-105109108D01*
X140124500Y-105240892D01*
X140154579Y-105353151D01*
X140158609Y-105368190D01*
X140224496Y-105482309D01*
X140224498Y-105482311D01*
X140224500Y-105482314D01*
X140317686Y-105575500D01*
X140317688Y-105575501D01*
X140317690Y-105575503D01*
X140431810Y-105641390D01*
X140431808Y-105641390D01*
X140431812Y-105641391D01*
X140431814Y-105641392D01*
X140559108Y-105675500D01*
X140559110Y-105675500D01*
X140690890Y-105675500D01*
X140690892Y-105675500D01*
X140818186Y-105641392D01*
X140818188Y-105641390D01*
X140818190Y-105641390D01*
X140932309Y-105575503D01*
X140932309Y-105575502D01*
X140932314Y-105575500D01*
X141003319Y-105504494D01*
X141057834Y-105476719D01*
X141073321Y-105475500D01*
X148239563Y-105475500D01*
X148239563Y-105475499D01*
X148315989Y-105455021D01*
X148384511Y-105415460D01*
X148440460Y-105359511D01*
X149868363Y-103931608D01*
X170697000Y-103931608D01*
X170697000Y-104063392D01*
X170704222Y-104090345D01*
X170731109Y-104190690D01*
X170796996Y-104304809D01*
X170796998Y-104304811D01*
X170797000Y-104304814D01*
X170890186Y-104398000D01*
X170890188Y-104398001D01*
X170890190Y-104398003D01*
X171004310Y-104463890D01*
X171004308Y-104463890D01*
X171004312Y-104463891D01*
X171004314Y-104463892D01*
X171131608Y-104498000D01*
X171131610Y-104498000D01*
X171263390Y-104498000D01*
X171263392Y-104498000D01*
X171390686Y-104463892D01*
X171390688Y-104463890D01*
X171390690Y-104463890D01*
X171504809Y-104398003D01*
X171504809Y-104398002D01*
X171504814Y-104398000D01*
X171598000Y-104304814D01*
X171622487Y-104262402D01*
X171663890Y-104190690D01*
X171663890Y-104190688D01*
X171663892Y-104190686D01*
X171698000Y-104063392D01*
X171698000Y-103931608D01*
X171663892Y-103804314D01*
X171663890Y-103804311D01*
X171663890Y-103804309D01*
X171598003Y-103690190D01*
X171598001Y-103690188D01*
X171598000Y-103690186D01*
X171504814Y-103597000D01*
X171504811Y-103596998D01*
X171504809Y-103596996D01*
X171390689Y-103531109D01*
X171390691Y-103531109D01*
X171341299Y-103517875D01*
X171263392Y-103497000D01*
X171131608Y-103497000D01*
X171053700Y-103517875D01*
X171004309Y-103531109D01*
X170890190Y-103596996D01*
X170796996Y-103690190D01*
X170731109Y-103804309D01*
X170723579Y-103832412D01*
X170697000Y-103931608D01*
X149868363Y-103931608D01*
X153488392Y-100311579D01*
X173049500Y-100311579D01*
X173049500Y-100508420D01*
X173080289Y-100702821D01*
X173089283Y-100730500D01*
X173141116Y-100890025D01*
X173230476Y-101065405D01*
X173346172Y-101224646D01*
X173485354Y-101363828D01*
X173644595Y-101479524D01*
X173819975Y-101568884D01*
X174007174Y-101629709D01*
X174007175Y-101629709D01*
X174007178Y-101629710D01*
X174201580Y-101660500D01*
X174201583Y-101660500D01*
X174398420Y-101660500D01*
X174592821Y-101629710D01*
X174592822Y-101629709D01*
X174592826Y-101629709D01*
X174780025Y-101568884D01*
X174955405Y-101479524D01*
X175114646Y-101363828D01*
X175253828Y-101224646D01*
X175369524Y-101065405D01*
X175458884Y-100890025D01*
X175519709Y-100702826D01*
X175534262Y-100610941D01*
X175550500Y-100508420D01*
X175550500Y-100311579D01*
X175519710Y-100117178D01*
X175519709Y-100117174D01*
X175458884Y-99929975D01*
X175369524Y-99754595D01*
X175253828Y-99595354D01*
X175114646Y-99456172D01*
X174955405Y-99340476D01*
X174955404Y-99340475D01*
X174955402Y-99340474D01*
X174780025Y-99251116D01*
X174592821Y-99190289D01*
X174398420Y-99159500D01*
X174398417Y-99159500D01*
X174201583Y-99159500D01*
X174201580Y-99159500D01*
X174007178Y-99190289D01*
X173819974Y-99251116D01*
X173644597Y-99340474D01*
X173485355Y-99456171D01*
X173346171Y-99595355D01*
X173230474Y-99754597D01*
X173141116Y-99929974D01*
X173080289Y-100117178D01*
X173049500Y-100311579D01*
X153488392Y-100311579D01*
X154734619Y-99065352D01*
X175714500Y-99065352D01*
X175714500Y-99234647D01*
X175740980Y-99401842D01*
X175784091Y-99534521D01*
X175793295Y-99562849D01*
X175870150Y-99713685D01*
X175969654Y-99850641D01*
X176089359Y-99970346D01*
X176226315Y-100069850D01*
X176377151Y-100146705D01*
X176538153Y-100199018D01*
X176538154Y-100199018D01*
X176538157Y-100199019D01*
X176705353Y-100225500D01*
X176705356Y-100225500D01*
X176874647Y-100225500D01*
X177041842Y-100199019D01*
X177041843Y-100199018D01*
X177041847Y-100199018D01*
X177202849Y-100146705D01*
X177353685Y-100069850D01*
X177490641Y-99970346D01*
X177610346Y-99850641D01*
X177709850Y-99713685D01*
X177786705Y-99562849D01*
X177839018Y-99401847D01*
X177848738Y-99340476D01*
X177865500Y-99234647D01*
X177865500Y-99065352D01*
X177839019Y-98898157D01*
X177791664Y-98752412D01*
X177786705Y-98737151D01*
X177709850Y-98586315D01*
X177610346Y-98449359D01*
X177490641Y-98329654D01*
X177353685Y-98230150D01*
X177353684Y-98230149D01*
X177353682Y-98230148D01*
X177275864Y-98190498D01*
X177202849Y-98153295D01*
X177202846Y-98153294D01*
X177202844Y-98153293D01*
X177041842Y-98100980D01*
X176874647Y-98074500D01*
X176874644Y-98074500D01*
X176705356Y-98074500D01*
X176705353Y-98074500D01*
X176538157Y-98100980D01*
X176377155Y-98153293D01*
X176226317Y-98230148D01*
X176157837Y-98279902D01*
X176089359Y-98329654D01*
X175969654Y-98449359D01*
X175919902Y-98517837D01*
X175870148Y-98586317D01*
X175793293Y-98737155D01*
X175740980Y-98898157D01*
X175714500Y-99065352D01*
X154734619Y-99065352D01*
X156340863Y-97459108D01*
X162919500Y-97459108D01*
X162919500Y-97590892D01*
X162932015Y-97637598D01*
X162953609Y-97718190D01*
X163019496Y-97832309D01*
X163019498Y-97832311D01*
X163019500Y-97832314D01*
X163112686Y-97925500D01*
X163112688Y-97925501D01*
X163112690Y-97925503D01*
X163226810Y-97991390D01*
X163226808Y-97991390D01*
X163226812Y-97991391D01*
X163226814Y-97991392D01*
X163354108Y-98025500D01*
X163354110Y-98025500D01*
X163485890Y-98025500D01*
X163485892Y-98025500D01*
X163613186Y-97991392D01*
X163613188Y-97991390D01*
X163613190Y-97991390D01*
X163727309Y-97925503D01*
X163727309Y-97925502D01*
X163727314Y-97925500D01*
X163820500Y-97832314D01*
X163886392Y-97718186D01*
X163920500Y-97590892D01*
X163920500Y-97459108D01*
X163886392Y-97331814D01*
X163886390Y-97331811D01*
X163886390Y-97331809D01*
X163820503Y-97217690D01*
X163820501Y-97217688D01*
X163820500Y-97217686D01*
X163727314Y-97124500D01*
X163727311Y-97124498D01*
X163727309Y-97124496D01*
X163613189Y-97058609D01*
X163613191Y-97058609D01*
X163530811Y-97036536D01*
X163485892Y-97024500D01*
X163354108Y-97024500D01*
X163309189Y-97036536D01*
X163226809Y-97058609D01*
X163112690Y-97124496D01*
X163019496Y-97217690D01*
X162953609Y-97331809D01*
X162953608Y-97331814D01*
X162919500Y-97459108D01*
X156340863Y-97459108D01*
X156820460Y-96979511D01*
X156860022Y-96910988D01*
X156880500Y-96834562D01*
X156880500Y-96755438D01*
X156880500Y-92118321D01*
X156899407Y-92060130D01*
X156909493Y-92048321D01*
X156980500Y-91977314D01*
X156984434Y-91970500D01*
X157046390Y-91863190D01*
X157046390Y-91863188D01*
X157046392Y-91863186D01*
X157080500Y-91735892D01*
X157080500Y-91604108D01*
X157046392Y-91476814D01*
X157046390Y-91476811D01*
X157046390Y-91476809D01*
X157005130Y-91405345D01*
X156992408Y-91345497D01*
X157017295Y-91289601D01*
X157070283Y-91259008D01*
X157131133Y-91265404D01*
X157160870Y-91285841D01*
X157595504Y-91720475D01*
X157623281Y-91774992D01*
X157624500Y-91790479D01*
X157624500Y-95251679D01*
X157605593Y-95309870D01*
X157595509Y-95321676D01*
X157550796Y-95366390D01*
X157524497Y-95392689D01*
X157524496Y-95392690D01*
X157458609Y-95506809D01*
X157451294Y-95534109D01*
X157424500Y-95634108D01*
X157424500Y-95765892D01*
X157433781Y-95800529D01*
X157458609Y-95893190D01*
X157524496Y-96007309D01*
X157524498Y-96007311D01*
X157524500Y-96007314D01*
X157617686Y-96100500D01*
X157617688Y-96100501D01*
X157617690Y-96100503D01*
X157731810Y-96166390D01*
X157731808Y-96166390D01*
X157731812Y-96166391D01*
X157731814Y-96166392D01*
X157859108Y-96200500D01*
X157859110Y-96200500D01*
X157990890Y-96200500D01*
X157990892Y-96200500D01*
X158118186Y-96166392D01*
X158118188Y-96166390D01*
X158118190Y-96166390D01*
X158232309Y-96100503D01*
X158232309Y-96100502D01*
X158232314Y-96100500D01*
X158325500Y-96007314D01*
X158350183Y-95964562D01*
X158391390Y-95893190D01*
X158391390Y-95893188D01*
X158391392Y-95893186D01*
X158425500Y-95765892D01*
X158425500Y-95634108D01*
X158391392Y-95506814D01*
X158391390Y-95506811D01*
X158391390Y-95506809D01*
X158325503Y-95392690D01*
X158325501Y-95392688D01*
X158325500Y-95392686D01*
X158254494Y-95321680D01*
X158226719Y-95267166D01*
X158225500Y-95251679D01*
X158225500Y-91585437D01*
X158225499Y-91585435D01*
X158225009Y-91583608D01*
X158205021Y-91509011D01*
X158202190Y-91504108D01*
X158165460Y-91440489D01*
X158109511Y-91384539D01*
X158109511Y-91384540D01*
X156114511Y-89389540D01*
X156107406Y-89385438D01*
X156045989Y-89349979D01*
X156045988Y-89349978D01*
X156045987Y-89349978D01*
X155969564Y-89329500D01*
X155969562Y-89329500D01*
X141175231Y-89329500D01*
X141117040Y-89310593D01*
X141085106Y-89271469D01*
X141081720Y-89264021D01*
X141066392Y-89206814D01*
X141016180Y-89119844D01*
X141014191Y-89115469D01*
X141011269Y-89089607D01*
X141005858Y-89064152D01*
X141007880Y-89059610D01*
X141007322Y-89054671D01*
X141020159Y-89032031D01*
X141030745Y-89008256D01*
X141035049Y-89005770D01*
X141037502Y-89001446D01*
X141061193Y-88990676D01*
X141083733Y-88977663D01*
X141091651Y-88976830D01*
X141093202Y-88976126D01*
X141094952Y-88976483D01*
X141104316Y-88975500D01*
X158359521Y-88975500D01*
X158417712Y-88994407D01*
X158429525Y-89004496D01*
X161345504Y-91920475D01*
X161373281Y-91974992D01*
X161374500Y-91990479D01*
X161374500Y-94476678D01*
X161355593Y-94534869D01*
X161345504Y-94546681D01*
X161294500Y-94597684D01*
X161294496Y-94597690D01*
X161228609Y-94711809D01*
X161209539Y-94782978D01*
X161194500Y-94839108D01*
X161194500Y-94970892D01*
X161195197Y-94973492D01*
X161208182Y-95021953D01*
X161207901Y-95027310D01*
X161210336Y-95032089D01*
X161206322Y-95057432D01*
X161204979Y-95083055D01*
X161201604Y-95087222D01*
X161200765Y-95092521D01*
X161182620Y-95110665D01*
X161166474Y-95130605D01*
X161161292Y-95131993D01*
X161157500Y-95135786D01*
X161132155Y-95139799D01*
X161107373Y-95146440D01*
X161102365Y-95144517D01*
X161097068Y-95145357D01*
X161074203Y-95133707D01*
X161050252Y-95124513D01*
X161042551Y-95117580D01*
X160929496Y-95004525D01*
X160901719Y-94950008D01*
X160900500Y-94934521D01*
X160900500Y-94834109D01*
X160889062Y-94791422D01*
X160866392Y-94706814D01*
X160866390Y-94706811D01*
X160866390Y-94706809D01*
X160800503Y-94592690D01*
X160800501Y-94592688D01*
X160800500Y-94592686D01*
X160707314Y-94499500D01*
X160707311Y-94499498D01*
X160707309Y-94499496D01*
X160593189Y-94433609D01*
X160593191Y-94433609D01*
X160543799Y-94420375D01*
X160465892Y-94399500D01*
X160334108Y-94399500D01*
X160256200Y-94420375D01*
X160206809Y-94433609D01*
X160092690Y-94499496D01*
X159999496Y-94592690D01*
X159933609Y-94706809D01*
X159926161Y-94734607D01*
X159899500Y-94834108D01*
X159899500Y-94965892D01*
X159915957Y-95027310D01*
X159933609Y-95093190D01*
X159999496Y-95207309D01*
X159999498Y-95207311D01*
X159999500Y-95207314D01*
X160092686Y-95300500D01*
X160092688Y-95300501D01*
X160092690Y-95300503D01*
X160206810Y-95366390D01*
X160206808Y-95366390D01*
X160206812Y-95366391D01*
X160206814Y-95366392D01*
X160334108Y-95400500D01*
X160334110Y-95400500D01*
X160434521Y-95400500D01*
X160492712Y-95419407D01*
X160504525Y-95429496D01*
X160859540Y-95784511D01*
X160859539Y-95784511D01*
X160915489Y-95840460D01*
X160984007Y-95880019D01*
X160984011Y-95880021D01*
X161060435Y-95900499D01*
X161060437Y-95900500D01*
X161060438Y-95900500D01*
X168851679Y-95900500D01*
X168909870Y-95919407D01*
X168921676Y-95929490D01*
X168992686Y-96000500D01*
X168992688Y-96000501D01*
X168992690Y-96000503D01*
X169106810Y-96066390D01*
X169106808Y-96066390D01*
X169106812Y-96066391D01*
X169106814Y-96066392D01*
X169234108Y-96100500D01*
X169234110Y-96100500D01*
X169365890Y-96100500D01*
X169365892Y-96100500D01*
X169493186Y-96066392D01*
X169493188Y-96066390D01*
X169493190Y-96066390D01*
X169607309Y-96000503D01*
X169607309Y-96000502D01*
X169607314Y-96000500D01*
X169700500Y-95907314D01*
X169742766Y-95834108D01*
X170999500Y-95834108D01*
X170999500Y-95965892D01*
X171019622Y-96040989D01*
X171033609Y-96093190D01*
X171099496Y-96207309D01*
X171099498Y-96207311D01*
X171099500Y-96207314D01*
X171192686Y-96300500D01*
X171192688Y-96300501D01*
X171192690Y-96300503D01*
X171306810Y-96366390D01*
X171306808Y-96366390D01*
X171306812Y-96366391D01*
X171306814Y-96366392D01*
X171434108Y-96400500D01*
X171434110Y-96400500D01*
X171565890Y-96400500D01*
X171565892Y-96400500D01*
X171693186Y-96366392D01*
X171693188Y-96366390D01*
X171693190Y-96366390D01*
X171807309Y-96300503D01*
X171807309Y-96300502D01*
X171807314Y-96300500D01*
X171900500Y-96207314D01*
X171904434Y-96200500D01*
X171966390Y-96093190D01*
X171966390Y-96093188D01*
X171966392Y-96093186D01*
X172000500Y-95965892D01*
X172000500Y-95834108D01*
X171966392Y-95706814D01*
X171966390Y-95706811D01*
X171966390Y-95706809D01*
X171900503Y-95592690D01*
X171900501Y-95592688D01*
X171900500Y-95592686D01*
X171807314Y-95499500D01*
X171807311Y-95499498D01*
X171807309Y-95499496D01*
X171693189Y-95433609D01*
X171693191Y-95433609D01*
X171622112Y-95414564D01*
X171565892Y-95399500D01*
X171434108Y-95399500D01*
X171377888Y-95414564D01*
X171306809Y-95433609D01*
X171192690Y-95499496D01*
X171099496Y-95592690D01*
X171033609Y-95706809D01*
X171019485Y-95759521D01*
X170999500Y-95834108D01*
X169742766Y-95834108D01*
X169766392Y-95793186D01*
X169800500Y-95665892D01*
X169800500Y-95534108D01*
X169766392Y-95406814D01*
X169766390Y-95406811D01*
X169766390Y-95406809D01*
X169700503Y-95292690D01*
X169700501Y-95292688D01*
X169700500Y-95292686D01*
X169607314Y-95199500D01*
X169607311Y-95199498D01*
X169607309Y-95199496D01*
X169493189Y-95133609D01*
X169493191Y-95133609D01*
X169433368Y-95117580D01*
X169365892Y-95099500D01*
X169234108Y-95099500D01*
X169166632Y-95117580D01*
X169106809Y-95133609D01*
X168992690Y-95199496D01*
X168992689Y-95199497D01*
X168992686Y-95199499D01*
X168992686Y-95199500D01*
X168921680Y-95270505D01*
X168867166Y-95298281D01*
X168851679Y-95299500D01*
X162216637Y-95299500D01*
X162158446Y-95280593D01*
X162122482Y-95231093D01*
X162122482Y-95169907D01*
X162130900Y-95151000D01*
X162150195Y-95117580D01*
X162161392Y-95098186D01*
X162195500Y-94970892D01*
X162195500Y-94839108D01*
X162161392Y-94711814D01*
X162161390Y-94711811D01*
X162161390Y-94711809D01*
X162095503Y-94597690D01*
X162095501Y-94597688D01*
X162095500Y-94597686D01*
X162004494Y-94506680D01*
X161976719Y-94452166D01*
X161975500Y-94436679D01*
X161975500Y-93301579D01*
X173049500Y-93301579D01*
X173049500Y-93498420D01*
X173080289Y-93692821D01*
X173124216Y-93828012D01*
X173141116Y-93880025D01*
X173230476Y-94055405D01*
X173346172Y-94214646D01*
X173485354Y-94353828D01*
X173644595Y-94469524D01*
X173819975Y-94558884D01*
X174007174Y-94619709D01*
X174007175Y-94619709D01*
X174007178Y-94619710D01*
X174201580Y-94650500D01*
X174201583Y-94650500D01*
X174398420Y-94650500D01*
X174592821Y-94619710D01*
X174592822Y-94619709D01*
X174592826Y-94619709D01*
X174759996Y-94565392D01*
X175715000Y-94565392D01*
X175715000Y-94734607D01*
X175741469Y-94901731D01*
X175741470Y-94901735D01*
X175793755Y-95062650D01*
X175793757Y-95062653D01*
X175870577Y-95213422D01*
X175870579Y-95213426D01*
X175960872Y-95337703D01*
X176375870Y-94922704D01*
X176393902Y-94953937D01*
X176486063Y-95046098D01*
X176517292Y-95064128D01*
X176102295Y-95479125D01*
X176226579Y-95569423D01*
X176377346Y-95646242D01*
X176377349Y-95646244D01*
X176538264Y-95698529D01*
X176538268Y-95698530D01*
X176705393Y-95725000D01*
X176874607Y-95725000D01*
X177041731Y-95698530D01*
X177041735Y-95698529D01*
X177202650Y-95646244D01*
X177202653Y-95646242D01*
X177353422Y-95569422D01*
X177353428Y-95569418D01*
X177477703Y-95479126D01*
X177477703Y-95479125D01*
X177062706Y-95064129D01*
X177093937Y-95046098D01*
X177186098Y-94953937D01*
X177204129Y-94922706D01*
X177619125Y-95337703D01*
X177619126Y-95337703D01*
X177709418Y-95213428D01*
X177709422Y-95213422D01*
X177786242Y-95062653D01*
X177786244Y-95062650D01*
X177838529Y-94901735D01*
X177838530Y-94901731D01*
X177865000Y-94734607D01*
X177865000Y-94565392D01*
X177838530Y-94398268D01*
X177838529Y-94398264D01*
X177786244Y-94237349D01*
X177786242Y-94237346D01*
X177709423Y-94086579D01*
X177619125Y-93962295D01*
X177204128Y-94377292D01*
X177186098Y-94346063D01*
X177093937Y-94253902D01*
X177062704Y-94235870D01*
X177477703Y-93820872D01*
X177353426Y-93730579D01*
X177353422Y-93730577D01*
X177202653Y-93653757D01*
X177202650Y-93653755D01*
X177041735Y-93601470D01*
X177041731Y-93601469D01*
X176874607Y-93575000D01*
X176705393Y-93575000D01*
X176538268Y-93601469D01*
X176538264Y-93601470D01*
X176377349Y-93653755D01*
X176377346Y-93653757D01*
X176226578Y-93730577D01*
X176102295Y-93820872D01*
X176517293Y-94235870D01*
X176486063Y-94253902D01*
X176393902Y-94346063D01*
X176375870Y-94377293D01*
X175960872Y-93962295D01*
X175870577Y-94086578D01*
X175793757Y-94237346D01*
X175793755Y-94237349D01*
X175741470Y-94398264D01*
X175741469Y-94398268D01*
X175715000Y-94565392D01*
X174759996Y-94565392D01*
X174780025Y-94558884D01*
X174955405Y-94469524D01*
X175114646Y-94353828D01*
X175253828Y-94214646D01*
X175369524Y-94055405D01*
X175458884Y-93880025D01*
X175475784Y-93828011D01*
X175475785Y-93828011D01*
X175519709Y-93692827D01*
X175550500Y-93498420D01*
X175550500Y-93301579D01*
X175519710Y-93107178D01*
X175519709Y-93107174D01*
X175458884Y-92919975D01*
X175369524Y-92744595D01*
X175253828Y-92585354D01*
X175114646Y-92446172D01*
X174955405Y-92330476D01*
X174955404Y-92330475D01*
X174955402Y-92330474D01*
X174780025Y-92241116D01*
X174592821Y-92180289D01*
X174398420Y-92149500D01*
X174398417Y-92149500D01*
X174201583Y-92149500D01*
X174201580Y-92149500D01*
X174007178Y-92180289D01*
X173819974Y-92241116D01*
X173644597Y-92330474D01*
X173485355Y-92446171D01*
X173346171Y-92585355D01*
X173230474Y-92744597D01*
X173141116Y-92919974D01*
X173080289Y-93107178D01*
X173049500Y-93301579D01*
X161975500Y-93301579D01*
X161975500Y-91984108D01*
X164449500Y-91984108D01*
X164449500Y-92115892D01*
X164479579Y-92228151D01*
X164483609Y-92243190D01*
X164549496Y-92357309D01*
X164549498Y-92357311D01*
X164549500Y-92357314D01*
X164642686Y-92450500D01*
X164642688Y-92450501D01*
X164642690Y-92450503D01*
X164756810Y-92516390D01*
X164756808Y-92516390D01*
X164756812Y-92516391D01*
X164756814Y-92516392D01*
X164884108Y-92550500D01*
X164884110Y-92550500D01*
X165015890Y-92550500D01*
X165015892Y-92550500D01*
X165143186Y-92516392D01*
X165143188Y-92516390D01*
X165143190Y-92516390D01*
X165257309Y-92450503D01*
X165257309Y-92450502D01*
X165257314Y-92450500D01*
X165350500Y-92357314D01*
X165350503Y-92357309D01*
X165416390Y-92243190D01*
X165416390Y-92243188D01*
X165416392Y-92243186D01*
X165450500Y-92115892D01*
X165450500Y-92015477D01*
X165469407Y-91957286D01*
X165479497Y-91945473D01*
X165795475Y-91629496D01*
X165849991Y-91601719D01*
X165865478Y-91600500D01*
X172939563Y-91600500D01*
X172939563Y-91600499D01*
X173015989Y-91580021D01*
X173084511Y-91540460D01*
X173140460Y-91484511D01*
X174909460Y-89715511D01*
X174932950Y-89674824D01*
X174978418Y-89633885D01*
X175039268Y-89627488D01*
X175088687Y-89654319D01*
X175150345Y-89715977D01*
X175322402Y-89830941D01*
X175513580Y-89910130D01*
X175716535Y-89950500D01*
X175716536Y-89950500D01*
X175923464Y-89950500D01*
X175923465Y-89950500D01*
X176126420Y-89910130D01*
X176317598Y-89830941D01*
X176489655Y-89715977D01*
X176635977Y-89569655D01*
X176750941Y-89397598D01*
X176830130Y-89206420D01*
X176870500Y-89003465D01*
X176870500Y-88796535D01*
X176830130Y-88593580D01*
X176750941Y-88402402D01*
X176635977Y-88230345D01*
X176489655Y-88084023D01*
X176489651Y-88084020D01*
X176317597Y-87969058D01*
X176126418Y-87889869D01*
X175923467Y-87849500D01*
X175923465Y-87849500D01*
X175716535Y-87849500D01*
X175716532Y-87849500D01*
X175513581Y-87889869D01*
X175322402Y-87969058D01*
X175150344Y-88084023D01*
X175138501Y-88095866D01*
X175083984Y-88123642D01*
X175023552Y-88114068D01*
X174980289Y-88070802D01*
X174969500Y-88025860D01*
X174969500Y-87676477D01*
X174988407Y-87618286D01*
X174998490Y-87606480D01*
X175269708Y-87335261D01*
X175324223Y-87307485D01*
X175377591Y-87313801D01*
X175513580Y-87370130D01*
X175716535Y-87410500D01*
X175716536Y-87410500D01*
X175923464Y-87410500D01*
X175923465Y-87410500D01*
X176126420Y-87370130D01*
X176262405Y-87313802D01*
X176323399Y-87309002D01*
X176370292Y-87335263D01*
X178170504Y-89135475D01*
X178198281Y-89189992D01*
X178199500Y-89205479D01*
X178199500Y-99534521D01*
X178180593Y-99592712D01*
X178170504Y-99604525D01*
X176215489Y-101559540D01*
X176215488Y-101559539D01*
X176159539Y-101615489D01*
X176119980Y-101684007D01*
X176119978Y-101684011D01*
X176099500Y-101760435D01*
X176099500Y-111151679D01*
X176080593Y-111209870D01*
X176070509Y-111221676D01*
X175999500Y-111292686D01*
X175999497Y-111292689D01*
X175999496Y-111292690D01*
X175933609Y-111406809D01*
X175933608Y-111406814D01*
X175899500Y-111534108D01*
X175899500Y-111665892D01*
X175929579Y-111778151D01*
X175933609Y-111793190D01*
X175999496Y-111907309D01*
X175999498Y-111907311D01*
X175999500Y-111907314D01*
X176092686Y-112000500D01*
X176092688Y-112000501D01*
X176092690Y-112000503D01*
X176206810Y-112066390D01*
X176206808Y-112066390D01*
X176206812Y-112066391D01*
X176206814Y-112066392D01*
X176334108Y-112100500D01*
X176334110Y-112100500D01*
X176465890Y-112100500D01*
X176465892Y-112100500D01*
X176593186Y-112066392D01*
X176593188Y-112066390D01*
X176593190Y-112066390D01*
X176707309Y-112000503D01*
X176707309Y-112000502D01*
X176707314Y-112000500D01*
X176800500Y-111907314D01*
X176866392Y-111793186D01*
X176900500Y-111665892D01*
X176900500Y-111534108D01*
X176866392Y-111406814D01*
X176866390Y-111406811D01*
X176866390Y-111406809D01*
X176800503Y-111292690D01*
X176800501Y-111292688D01*
X176800500Y-111292686D01*
X176729494Y-111221680D01*
X176701719Y-111167166D01*
X176700500Y-111151679D01*
X176700500Y-101965478D01*
X176719407Y-101907287D01*
X176729490Y-101895480D01*
X178740460Y-99884511D01*
X178745820Y-99875226D01*
X178752009Y-99864509D01*
X178780020Y-99815990D01*
X178780021Y-99815989D01*
X178800500Y-99739562D01*
X178800500Y-89000438D01*
X178780021Y-88924011D01*
X178740460Y-88855489D01*
X178684511Y-88799539D01*
X178684511Y-88799540D01*
X176795263Y-86910292D01*
X176767486Y-86855775D01*
X176773802Y-86802405D01*
X176830130Y-86666420D01*
X176870500Y-86463465D01*
X176870500Y-86256535D01*
X176830130Y-86053580D01*
X176750941Y-85862402D01*
X176635977Y-85690345D01*
X176489655Y-85544023D01*
X176318270Y-85429508D01*
X176317597Y-85429058D01*
X176126418Y-85349869D01*
X175923467Y-85309500D01*
X175923465Y-85309500D01*
X175716535Y-85309500D01*
X175716532Y-85309500D01*
X175513581Y-85349869D01*
X175322402Y-85429058D01*
X175150348Y-85544020D01*
X175004020Y-85690348D01*
X174889058Y-85862402D01*
X174809869Y-86053581D01*
X174769500Y-86256532D01*
X174769500Y-86463467D01*
X174809869Y-86666418D01*
X174866196Y-86802402D01*
X174870997Y-86863399D01*
X174844736Y-86910291D01*
X174484489Y-87270539D01*
X174428539Y-87326489D01*
X174388980Y-87395007D01*
X174388978Y-87395011D01*
X174368500Y-87471435D01*
X174368500Y-88311845D01*
X174349593Y-88370036D01*
X174300093Y-88406000D01*
X174238907Y-88406000D01*
X174189407Y-88370036D01*
X174187184Y-88366846D01*
X174095979Y-88230348D01*
X174095977Y-88230345D01*
X173949655Y-88084023D01*
X173949651Y-88084020D01*
X173777597Y-87969058D01*
X173586418Y-87889869D01*
X173383467Y-87849500D01*
X173383465Y-87849500D01*
X173176535Y-87849500D01*
X173176532Y-87849500D01*
X172973581Y-87889869D01*
X172782402Y-87969058D01*
X172610348Y-88084020D01*
X172464020Y-88230348D01*
X172349058Y-88402402D01*
X172269869Y-88593581D01*
X172229500Y-88796532D01*
X172229500Y-89003467D01*
X172269869Y-89206418D01*
X172349058Y-89397597D01*
X172464020Y-89569651D01*
X172464023Y-89569655D01*
X172610345Y-89715977D01*
X172782402Y-89830941D01*
X172973580Y-89910130D01*
X173176535Y-89950500D01*
X173176536Y-89950500D01*
X173383464Y-89950500D01*
X173383465Y-89950500D01*
X173586420Y-89910130D01*
X173601992Y-89903679D01*
X173662985Y-89898878D01*
X173715155Y-89930845D01*
X173738572Y-89987372D01*
X173724290Y-90046867D01*
X173709881Y-90065147D01*
X172804525Y-90970504D01*
X172750008Y-90998281D01*
X172734521Y-90999500D01*
X165660435Y-90999500D01*
X165584011Y-91019978D01*
X165584007Y-91019980D01*
X165515489Y-91059539D01*
X165054523Y-91520504D01*
X165000007Y-91548281D01*
X164984520Y-91549500D01*
X164884108Y-91549500D01*
X164806200Y-91570375D01*
X164756809Y-91583609D01*
X164642690Y-91649496D01*
X164549496Y-91742690D01*
X164483609Y-91856809D01*
X164476776Y-91882310D01*
X164449500Y-91984108D01*
X161975500Y-91984108D01*
X161975500Y-91785437D01*
X161970699Y-91767522D01*
X161970699Y-91767521D01*
X161955022Y-91709012D01*
X161946646Y-91694504D01*
X161915463Y-91640493D01*
X161915461Y-91640491D01*
X161915460Y-91640489D01*
X158709511Y-88434540D01*
X158684365Y-88420022D01*
X158684363Y-88420020D01*
X158640990Y-88394979D01*
X158640985Y-88394977D01*
X158564564Y-88374500D01*
X158564562Y-88374500D01*
X140285438Y-88374500D01*
X140285435Y-88374500D01*
X140209014Y-88394977D01*
X140209009Y-88394979D01*
X140165636Y-88420020D01*
X140165637Y-88420021D01*
X140140486Y-88434542D01*
X139679523Y-88895504D01*
X139625007Y-88923281D01*
X139609520Y-88924500D01*
X139509108Y-88924500D01*
X139431200Y-88945375D01*
X139381809Y-88958609D01*
X139267690Y-89024496D01*
X139174496Y-89117690D01*
X139108609Y-89231809D01*
X139089539Y-89302978D01*
X139074500Y-89359108D01*
X139074500Y-89490892D01*
X139081760Y-89517987D01*
X139108609Y-89618190D01*
X139174496Y-89732309D01*
X139174498Y-89732311D01*
X139174500Y-89732314D01*
X139267686Y-89825500D01*
X139267688Y-89825501D01*
X139267690Y-89825503D01*
X139381810Y-89891390D01*
X139381808Y-89891390D01*
X139381812Y-89891391D01*
X139381814Y-89891392D01*
X139509108Y-89925500D01*
X139509110Y-89925500D01*
X139640890Y-89925500D01*
X139640892Y-89925500D01*
X139768186Y-89891392D01*
X139768188Y-89891390D01*
X139768190Y-89891390D01*
X139882309Y-89825503D01*
X139882309Y-89825502D01*
X139882314Y-89825500D01*
X139975500Y-89732314D01*
X140008981Y-89674323D01*
X140054448Y-89633384D01*
X140115298Y-89626987D01*
X140168286Y-89657579D01*
X140180452Y-89674323D01*
X140199498Y-89707311D01*
X140199500Y-89707314D01*
X140292686Y-89800500D01*
X140292688Y-89800501D01*
X140292690Y-89800503D01*
X140406810Y-89866390D01*
X140406808Y-89866390D01*
X140406812Y-89866391D01*
X140406814Y-89866392D01*
X140534108Y-89900500D01*
X140534110Y-89900500D01*
X140671335Y-89900500D01*
X140709226Y-89908038D01*
X140714008Y-89910019D01*
X140714011Y-89910021D01*
X140714014Y-89910021D01*
X140714017Y-89910023D01*
X140764962Y-89923673D01*
X140790435Y-89930499D01*
X140790437Y-89930500D01*
X140790438Y-89930500D01*
X145494423Y-89930500D01*
X145552614Y-89949407D01*
X145588578Y-89998907D01*
X145588578Y-90060093D01*
X145552614Y-90109593D01*
X145543923Y-90115237D01*
X145519934Y-90129087D01*
X145510490Y-90134539D01*
X142514525Y-93130504D01*
X142460008Y-93158281D01*
X142444521Y-93159500D01*
X141635479Y-93159500D01*
X141577288Y-93140593D01*
X141565475Y-93130504D01*
X141259496Y-92824525D01*
X141255869Y-92817407D01*
X141249407Y-92812712D01*
X141242243Y-92790663D01*
X141231719Y-92770008D01*
X141230500Y-92754521D01*
X141230500Y-92618321D01*
X141249407Y-92560130D01*
X141259490Y-92548323D01*
X141330500Y-92477314D01*
X141343711Y-92454432D01*
X141396390Y-92363190D01*
X141396390Y-92363188D01*
X141396392Y-92363186D01*
X141430500Y-92235892D01*
X141430500Y-92104108D01*
X141396392Y-91976814D01*
X141396390Y-91976811D01*
X141396390Y-91976809D01*
X141330503Y-91862690D01*
X141330501Y-91862688D01*
X141330500Y-91862686D01*
X141237314Y-91769500D01*
X141237311Y-91769498D01*
X141237309Y-91769496D01*
X141123189Y-91703609D01*
X141123191Y-91703609D01*
X141073799Y-91690375D01*
X140995892Y-91669500D01*
X140864108Y-91669500D01*
X140786200Y-91690375D01*
X140736809Y-91703609D01*
X140622690Y-91769496D01*
X140529496Y-91862690D01*
X140463609Y-91976809D01*
X140448598Y-92032834D01*
X140429500Y-92104108D01*
X140429500Y-92235892D01*
X140459579Y-92348151D01*
X140463609Y-92363190D01*
X140529496Y-92477309D01*
X140529498Y-92477311D01*
X140529500Y-92477314D01*
X140600505Y-92548319D01*
X140628281Y-92602834D01*
X140629500Y-92618321D01*
X140629500Y-92959564D01*
X140649978Y-93035988D01*
X140649980Y-93035992D01*
X140689538Y-93104508D01*
X140689540Y-93104511D01*
X141229540Y-93644511D01*
X141229539Y-93644511D01*
X141285489Y-93700460D01*
X141354007Y-93740019D01*
X141354011Y-93740021D01*
X141430435Y-93760499D01*
X141430437Y-93760500D01*
X142555521Y-93760500D01*
X142613712Y-93779407D01*
X142649676Y-93828907D01*
X142649676Y-93890093D01*
X142625525Y-93929503D01*
X141430515Y-95124513D01*
X137850291Y-98704736D01*
X137795774Y-98732513D01*
X137742402Y-98726196D01*
X137606420Y-98669870D01*
X137606418Y-98669869D01*
X137403467Y-98629500D01*
X137403465Y-98629500D01*
X137196535Y-98629500D01*
X137196532Y-98629500D01*
X136993581Y-98669869D01*
X136802402Y-98749058D01*
X136630348Y-98864020D01*
X136484020Y-99010348D01*
X136369058Y-99182402D01*
X136289869Y-99373581D01*
X136249500Y-99576532D01*
X136249500Y-99783467D01*
X136289869Y-99986418D01*
X136369058Y-100177597D01*
X136458584Y-100311583D01*
X136484023Y-100349655D01*
X136495866Y-100361498D01*
X136523642Y-100416013D01*
X136514071Y-100476445D01*
X136470806Y-100519710D01*
X136425861Y-100530500D01*
X136188562Y-100530500D01*
X136109438Y-100530500D01*
X136062661Y-100543033D01*
X136033007Y-100550979D01*
X135964493Y-100590536D01*
X135964488Y-100590540D01*
X135310291Y-101244736D01*
X135255775Y-101272513D01*
X135202402Y-101266196D01*
X135190082Y-101261093D01*
X135162898Y-101249832D01*
X135066418Y-101209869D01*
X134863467Y-101169500D01*
X134863465Y-101169500D01*
X134656535Y-101169500D01*
X134656532Y-101169500D01*
X134453581Y-101209869D01*
X134262402Y-101289058D01*
X134090348Y-101404020D01*
X133944020Y-101550348D01*
X133829058Y-101722402D01*
X133749869Y-101913581D01*
X133709500Y-102116532D01*
X130220500Y-102116532D01*
X130220500Y-99576532D01*
X133709500Y-99576532D01*
X133709500Y-99783467D01*
X133749869Y-99986418D01*
X133829058Y-100177597D01*
X133918584Y-100311583D01*
X133944023Y-100349655D01*
X134090345Y-100495977D01*
X134262402Y-100610941D01*
X134453580Y-100690130D01*
X134656535Y-100730500D01*
X134656536Y-100730500D01*
X134863464Y-100730500D01*
X134863465Y-100730500D01*
X135066420Y-100690130D01*
X135257598Y-100610941D01*
X135429655Y-100495977D01*
X135575977Y-100349655D01*
X135690941Y-100177598D01*
X135770130Y-99986420D01*
X135810500Y-99783465D01*
X135810500Y-99576535D01*
X135770130Y-99373580D01*
X135690941Y-99182402D01*
X135575977Y-99010345D01*
X135429655Y-98864023D01*
X135429651Y-98864020D01*
X135257597Y-98749058D01*
X135066418Y-98669869D01*
X134863467Y-98629500D01*
X134863465Y-98629500D01*
X134656535Y-98629500D01*
X134656532Y-98629500D01*
X134453581Y-98669869D01*
X134262402Y-98749058D01*
X134090348Y-98864020D01*
X133944020Y-99010348D01*
X133829058Y-99182402D01*
X133749869Y-99373581D01*
X133709500Y-99576532D01*
X130220500Y-99576532D01*
X130220500Y-96270253D01*
X133709500Y-96270253D01*
X133709500Y-98009746D01*
X133709501Y-98009758D01*
X133721132Y-98068227D01*
X133721134Y-98068233D01*
X133743017Y-98100982D01*
X133765448Y-98134552D01*
X133831769Y-98178867D01*
X133876231Y-98187711D01*
X133890241Y-98190498D01*
X133890246Y-98190498D01*
X133890252Y-98190500D01*
X133890253Y-98190500D01*
X135629747Y-98190500D01*
X135629748Y-98190500D01*
X135688231Y-98178867D01*
X135754552Y-98134552D01*
X135798867Y-98068231D01*
X135810500Y-98009748D01*
X135810500Y-97036532D01*
X136249500Y-97036532D01*
X136249500Y-97243467D01*
X136289869Y-97446418D01*
X136369058Y-97637597D01*
X136422908Y-97718190D01*
X136484023Y-97809655D01*
X136630345Y-97955977D01*
X136802402Y-98070941D01*
X136993580Y-98150130D01*
X137196535Y-98190500D01*
X137196536Y-98190500D01*
X137403464Y-98190500D01*
X137403465Y-98190500D01*
X137606420Y-98150130D01*
X137797598Y-98070941D01*
X137969655Y-97955977D01*
X138115977Y-97809655D01*
X138230941Y-97637598D01*
X138310130Y-97446420D01*
X138350500Y-97243465D01*
X138350500Y-97036535D01*
X138310130Y-96833580D01*
X138230941Y-96642402D01*
X138115977Y-96470345D01*
X137969655Y-96324023D01*
X137934455Y-96300503D01*
X137797597Y-96209058D01*
X137606418Y-96129869D01*
X137403467Y-96089500D01*
X137403465Y-96089500D01*
X137196535Y-96089500D01*
X137196532Y-96089500D01*
X136993581Y-96129869D01*
X136802402Y-96209058D01*
X136630348Y-96324020D01*
X136484020Y-96470348D01*
X136369058Y-96642402D01*
X136289869Y-96833581D01*
X136249500Y-97036532D01*
X135810500Y-97036532D01*
X135810500Y-96270252D01*
X135798867Y-96211769D01*
X135754552Y-96145448D01*
X135754548Y-96145445D01*
X135688233Y-96101134D01*
X135688231Y-96101133D01*
X135688228Y-96101132D01*
X135688227Y-96101132D01*
X135629758Y-96089501D01*
X135629748Y-96089500D01*
X133890252Y-96089500D01*
X133890251Y-96089500D01*
X133890241Y-96089501D01*
X133831772Y-96101132D01*
X133831766Y-96101134D01*
X133765451Y-96145445D01*
X133765445Y-96145451D01*
X133721134Y-96211766D01*
X133721132Y-96211772D01*
X133709501Y-96270241D01*
X133709500Y-96270253D01*
X130220500Y-96270253D01*
X130220500Y-89359108D01*
X136924500Y-89359108D01*
X136924500Y-89490892D01*
X136931760Y-89517987D01*
X136958609Y-89618190D01*
X137024496Y-89732309D01*
X137024498Y-89732311D01*
X137024500Y-89732314D01*
X137117686Y-89825500D01*
X137117688Y-89825501D01*
X137117690Y-89825503D01*
X137231810Y-89891390D01*
X137231808Y-89891390D01*
X137231812Y-89891391D01*
X137231814Y-89891392D01*
X137359108Y-89925500D01*
X137359110Y-89925500D01*
X137490890Y-89925500D01*
X137490892Y-89925500D01*
X137618186Y-89891392D01*
X137618188Y-89891390D01*
X137618190Y-89891390D01*
X137732309Y-89825503D01*
X137732309Y-89825502D01*
X137732314Y-89825500D01*
X137825500Y-89732314D01*
X137858981Y-89674323D01*
X137891390Y-89618190D01*
X137891390Y-89618188D01*
X137891392Y-89618186D01*
X137925500Y-89490892D01*
X137925500Y-89359108D01*
X137891392Y-89231814D01*
X137891390Y-89231811D01*
X137891390Y-89231809D01*
X137825503Y-89117690D01*
X137825501Y-89117688D01*
X137825500Y-89117686D01*
X137732314Y-89024500D01*
X137732311Y-89024498D01*
X137732309Y-89024496D01*
X137618189Y-88958609D01*
X137618191Y-88958609D01*
X137568799Y-88945375D01*
X137490892Y-88924500D01*
X137359108Y-88924500D01*
X137281200Y-88945375D01*
X137231809Y-88958609D01*
X137117690Y-89024496D01*
X137024496Y-89117690D01*
X136958609Y-89231809D01*
X136939539Y-89302978D01*
X136924500Y-89359108D01*
X130220500Y-89359108D01*
X130220500Y-88034108D01*
X133199500Y-88034108D01*
X133199500Y-88165892D01*
X133216770Y-88230345D01*
X133233609Y-88293190D01*
X133299496Y-88407309D01*
X133299498Y-88407311D01*
X133299500Y-88407314D01*
X133392686Y-88500500D01*
X133392688Y-88500501D01*
X133392690Y-88500503D01*
X133506810Y-88566390D01*
X133506808Y-88566390D01*
X133506812Y-88566391D01*
X133506814Y-88566392D01*
X133634108Y-88600500D01*
X133634110Y-88600500D01*
X133765890Y-88600500D01*
X133765892Y-88600500D01*
X133893186Y-88566392D01*
X133893188Y-88566390D01*
X133893190Y-88566390D01*
X134007309Y-88500503D01*
X134007309Y-88500502D01*
X134007314Y-88500500D01*
X134100500Y-88407314D01*
X134166392Y-88293186D01*
X134200500Y-88165892D01*
X134200500Y-88034108D01*
X134166392Y-87906814D01*
X134166390Y-87906811D01*
X134166390Y-87906809D01*
X134100503Y-87792690D01*
X134100501Y-87792688D01*
X134100500Y-87792686D01*
X134007314Y-87699500D01*
X134007311Y-87699498D01*
X134007309Y-87699496D01*
X133893189Y-87633609D01*
X133893191Y-87633609D01*
X133836003Y-87618286D01*
X133765892Y-87599500D01*
X133634108Y-87599500D01*
X133563997Y-87618286D01*
X133506809Y-87633609D01*
X133392690Y-87699496D01*
X133299496Y-87792690D01*
X133233609Y-87906809D01*
X133216203Y-87971772D01*
X133199500Y-88034108D01*
X130220500Y-88034108D01*
X130220500Y-86761608D01*
X138822000Y-86761608D01*
X138822000Y-86893392D01*
X138852079Y-87005651D01*
X138856109Y-87020690D01*
X138921996Y-87134809D01*
X138921998Y-87134811D01*
X138922000Y-87134814D01*
X139015186Y-87228000D01*
X139015188Y-87228001D01*
X139015190Y-87228003D01*
X139129310Y-87293890D01*
X139129308Y-87293890D01*
X139129312Y-87293891D01*
X139129314Y-87293892D01*
X139256608Y-87328000D01*
X139256610Y-87328000D01*
X139388390Y-87328000D01*
X139388392Y-87328000D01*
X139515686Y-87293892D01*
X139515688Y-87293890D01*
X139515690Y-87293890D01*
X139629809Y-87228003D01*
X139629809Y-87228002D01*
X139629814Y-87228000D01*
X139723000Y-87134814D01*
X139788892Y-87020686D01*
X139823000Y-86893392D01*
X139823000Y-86761608D01*
X139788892Y-86634314D01*
X139788890Y-86634311D01*
X139788890Y-86634309D01*
X139723003Y-86520190D01*
X139723001Y-86520188D01*
X139723000Y-86520186D01*
X139629814Y-86427000D01*
X139629811Y-86426998D01*
X139629809Y-86426996D01*
X139515689Y-86361109D01*
X139515691Y-86361109D01*
X139466299Y-86347875D01*
X139388392Y-86327000D01*
X139256608Y-86327000D01*
X139178700Y-86347875D01*
X139129309Y-86361109D01*
X139015190Y-86426996D01*
X138921996Y-86520190D01*
X138856109Y-86634309D01*
X138856108Y-86634314D01*
X138822000Y-86761608D01*
X130220500Y-86761608D01*
X130220500Y-85709108D01*
X139774500Y-85709108D01*
X139774500Y-85840892D01*
X139780325Y-85862630D01*
X139808609Y-85968190D01*
X139874496Y-86082309D01*
X139874498Y-86082311D01*
X139874500Y-86082314D01*
X139967686Y-86175500D01*
X139967688Y-86175501D01*
X139967690Y-86175503D01*
X140081810Y-86241390D01*
X140081808Y-86241390D01*
X140081812Y-86241391D01*
X140081814Y-86241392D01*
X140209108Y-86275500D01*
X140209110Y-86275500D01*
X140340890Y-86275500D01*
X140340892Y-86275500D01*
X140468186Y-86241392D01*
X140468188Y-86241390D01*
X140468190Y-86241390D01*
X140582309Y-86175503D01*
X140582309Y-86175502D01*
X140582314Y-86175500D01*
X140675500Y-86082314D01*
X140741392Y-85968186D01*
X140775500Y-85840892D01*
X140775500Y-85709108D01*
X140741392Y-85581814D01*
X140741390Y-85581811D01*
X140741390Y-85581809D01*
X140675503Y-85467690D01*
X140675501Y-85467688D01*
X140675500Y-85467686D01*
X140582314Y-85374500D01*
X140582311Y-85374498D01*
X140582309Y-85374496D01*
X140468189Y-85308609D01*
X140468191Y-85308609D01*
X140418799Y-85295375D01*
X140340892Y-85274500D01*
X140209108Y-85274500D01*
X140131200Y-85295375D01*
X140081809Y-85308609D01*
X139967690Y-85374496D01*
X139874496Y-85467690D01*
X139808609Y-85581809D01*
X139808608Y-85581814D01*
X139774500Y-85709108D01*
X130220500Y-85709108D01*
X130220500Y-81834108D01*
X161599500Y-81834108D01*
X161599500Y-81965892D01*
X161629579Y-82078151D01*
X161633609Y-82093190D01*
X161699496Y-82207309D01*
X161699498Y-82207311D01*
X161699500Y-82207314D01*
X161792686Y-82300500D01*
X161792688Y-82300501D01*
X161792690Y-82300503D01*
X161906810Y-82366390D01*
X161906808Y-82366390D01*
X161906812Y-82366391D01*
X161906814Y-82366392D01*
X162034108Y-82400500D01*
X162034110Y-82400500D01*
X162165890Y-82400500D01*
X162165892Y-82400500D01*
X162293186Y-82366392D01*
X162293188Y-82366390D01*
X162293190Y-82366390D01*
X162407309Y-82300503D01*
X162407309Y-82300502D01*
X162407314Y-82300500D01*
X162478319Y-82229494D01*
X162532834Y-82201719D01*
X162548321Y-82200500D01*
X164334521Y-82200500D01*
X164392712Y-82219407D01*
X164404525Y-82229496D01*
X169867965Y-87692936D01*
X169895742Y-87747453D01*
X169886171Y-87807885D01*
X169842906Y-87851150D01*
X169817279Y-87860037D01*
X169811771Y-87861132D01*
X169811766Y-87861134D01*
X169745451Y-87905445D01*
X169745445Y-87905451D01*
X169701134Y-87971766D01*
X169701132Y-87971772D01*
X169689501Y-88030241D01*
X169689500Y-88030253D01*
X169689500Y-89769746D01*
X169689501Y-89769758D01*
X169701132Y-89828227D01*
X169701134Y-89828233D01*
X169745445Y-89894548D01*
X169745448Y-89894552D01*
X169811769Y-89938867D01*
X169856231Y-89947711D01*
X169870241Y-89950498D01*
X169870246Y-89950498D01*
X169870252Y-89950500D01*
X169870253Y-89950500D01*
X171609747Y-89950500D01*
X171609748Y-89950500D01*
X171668231Y-89938867D01*
X171734552Y-89894552D01*
X171778867Y-89828231D01*
X171790500Y-89769748D01*
X171790500Y-88030252D01*
X171789626Y-88025860D01*
X171787711Y-88016231D01*
X171778867Y-87971769D01*
X171734552Y-87905448D01*
X171734548Y-87905445D01*
X171668233Y-87861134D01*
X171668231Y-87861133D01*
X171668228Y-87861132D01*
X171668227Y-87861132D01*
X171609758Y-87849501D01*
X171609748Y-87849500D01*
X171609747Y-87849500D01*
X170915479Y-87849500D01*
X170857288Y-87830593D01*
X170845475Y-87820504D01*
X170604475Y-87579504D01*
X170576698Y-87524987D01*
X170586269Y-87464555D01*
X170629534Y-87421290D01*
X170674479Y-87410500D01*
X170843464Y-87410500D01*
X170843465Y-87410500D01*
X171046420Y-87370130D01*
X171237598Y-87290941D01*
X171409655Y-87175977D01*
X171555977Y-87029655D01*
X171670941Y-86857598D01*
X171750130Y-86666420D01*
X171790500Y-86463465D01*
X171790500Y-86256581D01*
X172230000Y-86256581D01*
X172230000Y-86463418D01*
X172270349Y-86666272D01*
X172349501Y-86857360D01*
X172349508Y-86857374D01*
X172464405Y-87029329D01*
X172466826Y-87031750D01*
X172862210Y-86636365D01*
X172879901Y-86667007D01*
X172972993Y-86760099D01*
X173003632Y-86777788D01*
X172608249Y-87173173D01*
X172610670Y-87175594D01*
X172782625Y-87290491D01*
X172782639Y-87290498D01*
X172973727Y-87369650D01*
X173176581Y-87409999D01*
X173176586Y-87410000D01*
X173383414Y-87410000D01*
X173383418Y-87409999D01*
X173586272Y-87369650D01*
X173777360Y-87290498D01*
X173777366Y-87290495D01*
X173949333Y-87175591D01*
X173951750Y-87173173D01*
X173556366Y-86777789D01*
X173587007Y-86760099D01*
X173680099Y-86667007D01*
X173697789Y-86636366D01*
X174093173Y-87031750D01*
X174095591Y-87029333D01*
X174210495Y-86857366D01*
X174210498Y-86857360D01*
X174289650Y-86666272D01*
X174329999Y-86463418D01*
X174330000Y-86463413D01*
X174330000Y-86256586D01*
X174329999Y-86256581D01*
X174289650Y-86053727D01*
X174210498Y-85862639D01*
X174210491Y-85862625D01*
X174095594Y-85690670D01*
X174093173Y-85688249D01*
X173697788Y-86083632D01*
X173680099Y-86052993D01*
X173587007Y-85959901D01*
X173556365Y-85942210D01*
X173951750Y-85546826D01*
X173949329Y-85544405D01*
X173777374Y-85429508D01*
X173777360Y-85429501D01*
X173586272Y-85350349D01*
X173383418Y-85310000D01*
X173176581Y-85310000D01*
X172973727Y-85350349D01*
X172782639Y-85429501D01*
X172782630Y-85429505D01*
X172610665Y-85544410D01*
X172608248Y-85546825D01*
X173003633Y-85942210D01*
X172972993Y-85959901D01*
X172879901Y-86052993D01*
X172862210Y-86083633D01*
X172466825Y-85688248D01*
X172464410Y-85690665D01*
X172349505Y-85862630D01*
X172349501Y-85862639D01*
X172270349Y-86053727D01*
X172230000Y-86256581D01*
X171790500Y-86256581D01*
X171790500Y-86256535D01*
X171750130Y-86053580D01*
X171670941Y-85862402D01*
X171555977Y-85690345D01*
X171409655Y-85544023D01*
X171238270Y-85429508D01*
X171237597Y-85429058D01*
X171046418Y-85349869D01*
X170843467Y-85309500D01*
X170843465Y-85309500D01*
X170636535Y-85309500D01*
X170636532Y-85309500D01*
X170433581Y-85349869D01*
X170242402Y-85429058D01*
X170070348Y-85544020D01*
X169924020Y-85690348D01*
X169809058Y-85862402D01*
X169729869Y-86053581D01*
X169689500Y-86256532D01*
X169689500Y-86425521D01*
X169670593Y-86483712D01*
X169621093Y-86519676D01*
X169559907Y-86519676D01*
X169520496Y-86495525D01*
X168299471Y-85274500D01*
X164684511Y-81659540D01*
X164675066Y-81654087D01*
X164615989Y-81619979D01*
X164615988Y-81619978D01*
X164615987Y-81619978D01*
X164539564Y-81599500D01*
X164539562Y-81599500D01*
X162548321Y-81599500D01*
X162490130Y-81580593D01*
X162478323Y-81570509D01*
X162407314Y-81499500D01*
X162407311Y-81499498D01*
X162407309Y-81499496D01*
X162293189Y-81433609D01*
X162293191Y-81433609D01*
X162243799Y-81420375D01*
X162165892Y-81399500D01*
X162034108Y-81399500D01*
X161956200Y-81420375D01*
X161906809Y-81433609D01*
X161792690Y-81499496D01*
X161699496Y-81592690D01*
X161633609Y-81706809D01*
X161633608Y-81706814D01*
X161599500Y-81834108D01*
X130220500Y-81834108D01*
X130220500Y-78502435D01*
X130220619Y-78497578D01*
X130226458Y-78378712D01*
X130226458Y-78378710D01*
X131869500Y-78378710D01*
X131869500Y-78621289D01*
X131901161Y-78861781D01*
X131901161Y-78861786D01*
X131963944Y-79096092D01*
X131963948Y-79096105D01*
X132056772Y-79320204D01*
X132056774Y-79320208D01*
X132056776Y-79320212D01*
X132178064Y-79530289D01*
X132178066Y-79530292D01*
X132325729Y-79722731D01*
X132325731Y-79722733D01*
X132325735Y-79722738D01*
X132497262Y-79894265D01*
X132497266Y-79894268D01*
X132497268Y-79894270D01*
X132689707Y-80041933D01*
X132689711Y-80041936D01*
X132899788Y-80163224D01*
X133123900Y-80256054D01*
X133358211Y-80318838D01*
X133598712Y-80350500D01*
X133598713Y-80350500D01*
X133841287Y-80350500D01*
X133841288Y-80350500D01*
X134081789Y-80318838D01*
X134316100Y-80256054D01*
X134540212Y-80163224D01*
X134750289Y-80041936D01*
X134942738Y-79894265D01*
X135114265Y-79722738D01*
X135261936Y-79530289D01*
X135383224Y-79320212D01*
X135476054Y-79096100D01*
X135538838Y-78861789D01*
X135570500Y-78621288D01*
X135570500Y-78378712D01*
X135570500Y-78378710D01*
X173869500Y-78378710D01*
X173869500Y-78621289D01*
X173901161Y-78861781D01*
X173901161Y-78861786D01*
X173963944Y-79096092D01*
X173963948Y-79096105D01*
X174056772Y-79320204D01*
X174056774Y-79320208D01*
X174056776Y-79320212D01*
X174178064Y-79530289D01*
X174178066Y-79530292D01*
X174325729Y-79722731D01*
X174325731Y-79722733D01*
X174325735Y-79722738D01*
X174497262Y-79894265D01*
X174497266Y-79894268D01*
X174497268Y-79894270D01*
X174689707Y-80041933D01*
X174689711Y-80041936D01*
X174899788Y-80163224D01*
X175123900Y-80256054D01*
X175358211Y-80318838D01*
X175598712Y-80350500D01*
X175598713Y-80350500D01*
X175841287Y-80350500D01*
X175841288Y-80350500D01*
X176081789Y-80318838D01*
X176316100Y-80256054D01*
X176540212Y-80163224D01*
X176750289Y-80041936D01*
X176942738Y-79894265D01*
X177114265Y-79722738D01*
X177261936Y-79530289D01*
X177383224Y-79320212D01*
X177476054Y-79096100D01*
X177538838Y-78861789D01*
X177570500Y-78621288D01*
X177570500Y-78378712D01*
X177538838Y-78138211D01*
X177476054Y-77903900D01*
X177383224Y-77679788D01*
X177261936Y-77469711D01*
X177237516Y-77437886D01*
X177114270Y-77277268D01*
X177114268Y-77277266D01*
X177114265Y-77277262D01*
X176942738Y-77105735D01*
X176942733Y-77105731D01*
X176942731Y-77105729D01*
X176750292Y-76958066D01*
X176750289Y-76958064D01*
X176540212Y-76836776D01*
X176540208Y-76836774D01*
X176540204Y-76836772D01*
X176316105Y-76743948D01*
X176316104Y-76743947D01*
X176316100Y-76743946D01*
X176081789Y-76681162D01*
X176081786Y-76681161D01*
X176081784Y-76681161D01*
X175841289Y-76649500D01*
X175841288Y-76649500D01*
X175598712Y-76649500D01*
X175598710Y-76649500D01*
X175358218Y-76681161D01*
X175358213Y-76681161D01*
X175123907Y-76743944D01*
X175123894Y-76743948D01*
X174899795Y-76836772D01*
X174689707Y-76958066D01*
X174497268Y-77105729D01*
X174325729Y-77277268D01*
X174178066Y-77469707D01*
X174056772Y-77679795D01*
X173963948Y-77903894D01*
X173963944Y-77903907D01*
X173901161Y-78138213D01*
X173901161Y-78138218D01*
X173869500Y-78378710D01*
X135570500Y-78378710D01*
X135538838Y-78138211D01*
X135476054Y-77903900D01*
X135383224Y-77679788D01*
X135261936Y-77469711D01*
X135237516Y-77437886D01*
X135196251Y-77384108D01*
X139824500Y-77384108D01*
X139824500Y-77515892D01*
X139854579Y-77628151D01*
X139858609Y-77643190D01*
X139924496Y-77757309D01*
X139924498Y-77757311D01*
X139924500Y-77757314D01*
X140017686Y-77850500D01*
X140017688Y-77850501D01*
X140017690Y-77850503D01*
X140131810Y-77916390D01*
X140131808Y-77916390D01*
X140131812Y-77916391D01*
X140131814Y-77916392D01*
X140259108Y-77950500D01*
X140259110Y-77950500D01*
X140390890Y-77950500D01*
X140390892Y-77950500D01*
X140518186Y-77916392D01*
X140518188Y-77916390D01*
X140518190Y-77916390D01*
X140632309Y-77850503D01*
X140632309Y-77850502D01*
X140632314Y-77850500D01*
X140725500Y-77757314D01*
X140791392Y-77643186D01*
X140825500Y-77515892D01*
X140825500Y-77384108D01*
X140791392Y-77256814D01*
X140791390Y-77256811D01*
X140791390Y-77256809D01*
X140725503Y-77142690D01*
X140725501Y-77142688D01*
X140725500Y-77142686D01*
X140632314Y-77049500D01*
X140632311Y-77049498D01*
X140632309Y-77049496D01*
X140518189Y-76983609D01*
X140518191Y-76983609D01*
X140468799Y-76970375D01*
X140390892Y-76949500D01*
X140259108Y-76949500D01*
X140181200Y-76970375D01*
X140131809Y-76983609D01*
X140017690Y-77049496D01*
X139924496Y-77142690D01*
X139858609Y-77256809D01*
X139858608Y-77256814D01*
X139824500Y-77384108D01*
X135196251Y-77384108D01*
X135114270Y-77277268D01*
X135114268Y-77277266D01*
X135114265Y-77277262D01*
X134942738Y-77105735D01*
X134942733Y-77105731D01*
X134942731Y-77105729D01*
X134750292Y-76958066D01*
X134750289Y-76958064D01*
X134540212Y-76836776D01*
X134540208Y-76836774D01*
X134540204Y-76836772D01*
X134413061Y-76784108D01*
X142399500Y-76784108D01*
X142399500Y-76915892D01*
X142417644Y-76983608D01*
X142433609Y-77043190D01*
X142499496Y-77157309D01*
X142499498Y-77157311D01*
X142499500Y-77157314D01*
X142592686Y-77250500D01*
X142592688Y-77250501D01*
X142592690Y-77250503D01*
X142706810Y-77316390D01*
X142706808Y-77316390D01*
X142706812Y-77316391D01*
X142706814Y-77316392D01*
X142834108Y-77350500D01*
X142834110Y-77350500D01*
X142965890Y-77350500D01*
X142965892Y-77350500D01*
X143093186Y-77316392D01*
X143093188Y-77316390D01*
X143093190Y-77316390D01*
X143207309Y-77250503D01*
X143207309Y-77250502D01*
X143207314Y-77250500D01*
X143300500Y-77157314D01*
X143366392Y-77043186D01*
X143400500Y-76915892D01*
X143400500Y-76784108D01*
X143366392Y-76656814D01*
X143366390Y-76656811D01*
X143366390Y-76656809D01*
X143300503Y-76542690D01*
X143300501Y-76542688D01*
X143300500Y-76542686D01*
X143207314Y-76449500D01*
X143207311Y-76449498D01*
X143207309Y-76449496D01*
X143093189Y-76383609D01*
X143093191Y-76383609D01*
X143043799Y-76370375D01*
X142965892Y-76349500D01*
X142834108Y-76349500D01*
X142756200Y-76370375D01*
X142706809Y-76383609D01*
X142592690Y-76449496D01*
X142499496Y-76542690D01*
X142433609Y-76656809D01*
X142433608Y-76656814D01*
X142399500Y-76784108D01*
X134413061Y-76784108D01*
X134316105Y-76743948D01*
X134316104Y-76743947D01*
X134316100Y-76743946D01*
X134081789Y-76681162D01*
X134081786Y-76681161D01*
X134081784Y-76681161D01*
X133841289Y-76649500D01*
X133841288Y-76649500D01*
X133598712Y-76649500D01*
X133598710Y-76649500D01*
X133358218Y-76681161D01*
X133358213Y-76681161D01*
X133123907Y-76743944D01*
X133123894Y-76743948D01*
X132899795Y-76836772D01*
X132689707Y-76958066D01*
X132497268Y-77105729D01*
X132325729Y-77277268D01*
X132178066Y-77469707D01*
X132056772Y-77679795D01*
X131963948Y-77903894D01*
X131963944Y-77903907D01*
X131901161Y-78138213D01*
X131901161Y-78138218D01*
X131869500Y-78378710D01*
X130226458Y-78378710D01*
X130237113Y-78161824D01*
X130238063Y-78152186D01*
X130287029Y-77822080D01*
X130288918Y-77812582D01*
X130370009Y-77488849D01*
X130372818Y-77479590D01*
X130485249Y-77165367D01*
X130488958Y-77156412D01*
X130631644Y-76854728D01*
X130636211Y-76846185D01*
X130807780Y-76559938D01*
X130813163Y-76551883D01*
X131011957Y-76283841D01*
X131018107Y-76276346D01*
X131242228Y-76029067D01*
X131249067Y-76022228D01*
X131496346Y-75798107D01*
X131503841Y-75791957D01*
X131771883Y-75593163D01*
X131779938Y-75587780D01*
X132066185Y-75416211D01*
X132074728Y-75411644D01*
X132376412Y-75268958D01*
X132385367Y-75265249D01*
X132699590Y-75152818D01*
X132708849Y-75150009D01*
X133032582Y-75068918D01*
X133042080Y-75067029D01*
X133372186Y-75018063D01*
X133381824Y-75017113D01*
X133690606Y-75001944D01*
X133717579Y-75000619D01*
X133722436Y-75000500D01*
X133785892Y-75000500D01*
X175654108Y-75000500D01*
X175717564Y-75000500D01*
X175722421Y-75000619D01*
G37*
%TD.AperFunction*%
%TD*%
M02*
